<svg width="63" height="83" viewBox="0 0 63 83" fill="none" xmlns="http://www.w3.org/2000/svg">
<path d="M17.339 49.3783H55.8154C56.5212 49.3783 57.0978 48.8008 57.0978 48.0959C57.0978 47.3901 56.5212 46.8135 55.8154 46.8135H17.339C16.6341 46.8135 16.0566 47.3901 16.0566 48.0959C16.0566 48.8008 16.6341 49.3783 17.339 49.3783Z" fill="black"/>
<path d="M16.0566 37.8342C16.0566 38.5399 16.6341 39.1165 17.339 39.1165H55.8154C56.5212 39.1165 57.0978 38.5399 57.0978 37.8342C57.0978 37.1292 56.5212 36.5518 55.8154 36.5518H17.339C16.6341 36.5518 16.0566 37.1292 16.0566 37.8342Z" fill="black"/>
<path d="M17.339 44.2474H55.8154C56.5212 44.2474 57.0978 43.6708 57.0978 42.965C57.0978 42.2593 56.5212 41.6826 55.8154 41.6826H17.339C16.6341 41.6826 16.0566 42.2593 16.0566 42.965C16.0566 43.6708 16.6341 44.2474 17.339 44.2474Z" fill="black"/>
<path d="M55.1736 33.3456C55.8786 33.3456 56.456 32.7681 56.456 32.0632V17.3136C56.456 16.6079 55.8786 16.0312 55.1736 16.0312H17.9797C17.2739 16.0312 16.6973 16.6079 16.6973 17.3136V32.0632C16.6973 32.7681 17.2739 33.3456 17.9797 33.3456H55.1736ZM19.262 18.596H53.8905V30.7808H19.262V18.596Z" fill="black"/>
<mask id="mask0_287_546" style="mask-type:luminance" maskUnits="userSpaceOnUse" x="10" y="0" width="53" height="83">
<path d="M10.0879 0H62.9303V82.0835H10.0879V0Z" fill="white"/>
</mask>
<g mask="url(#mask0_287_546)">
<path d="M10.924 76.9532C10.7315 76.9532 10.4749 76.9532 10.2832 76.889V78.2356C10.2832 80.352 12.0147 82.0835 14.1304 82.0835H59.0195C61.1359 82.0835 62.8674 80.352 62.8674 78.2356V14.1079C62.8674 11.9915 61.1359 10.2599 59.0195 10.2599H51.966V6.41276C51.966 5.70701 51.3885 5.13037 50.6828 5.13037H42.8593C42.2827 2.17983 39.653 0 36.5749 0C33.4969 0 30.8679 2.17983 30.2905 5.13037H22.4671C21.7613 5.13037 21.1847 5.70701 21.1847 6.41276V10.2599H14.1304C12.0147 10.2599 10.2832 11.9915 10.2832 14.1079V50.0839C10.4749 50.0839 10.7315 50.0197 10.924 50.0197C11.5656 50.0197 12.2064 50.0839 12.848 50.1472V14.1079C12.848 13.4022 13.4254 12.8255 14.1304 12.8255H59.0195C59.7252 12.8255 60.3019 13.4022 60.3019 14.1079V78.2356C60.3019 78.9413 59.7252 79.518 59.0195 79.518H14.1304C13.4254 79.518 12.848 78.9413 12.848 78.2356V76.8248C12.2064 76.889 11.5656 76.9532 10.924 76.9532ZM49.4004 10.2599H23.7495V7.69516H31.4446C32.1503 7.69516 32.7278 7.11772 32.7278 6.41276C32.7278 4.2963 34.4593 2.56479 36.5749 2.56479C38.6914 2.56479 40.4229 4.2963 40.4229 6.41276C40.4229 7.11772 40.9995 7.69516 41.7053 7.69516H49.4004V10.2599Z" fill="black"/>
</g>
<path d="M38.5001 59.6398C39.2058 59.6398 39.7825 59.0624 39.7825 58.3566C39.7825 57.6517 39.2058 57.0742 38.5001 57.0742H22.7891C23.2382 57.9083 23.5582 58.7416 23.879 59.6398H38.5001Z" fill="black"/>
<path d="M20.9316 54.5094H55.8166C56.5224 54.5094 57.099 53.932 57.099 53.227C57.099 52.5213 56.5224 51.9438 55.8166 51.9438H17.8535C19.0076 52.6496 20.0341 53.4829 20.9316 54.5094Z" fill="black"/>
<mask id="mask1_287_546" style="mask-type:luminance" maskUnits="userSpaceOnUse" x="0" y="52" width="22" height="23">
<path d="M0 52.5273H21.8481V74.4271H0V52.5273Z" fill="white"/>
</mask>
<g mask="url(#mask1_287_546)">
<path d="M10.923 74.3866C16.9507 74.3866 21.8245 69.5128 21.8245 63.485C21.8245 57.4572 16.9507 52.5835 10.923 52.5835C4.89519 52.5835 0.0214844 57.4572 0.0214844 63.485C0.0214844 69.5128 4.89519 74.3866 10.923 74.3866ZM10.923 55.1483C15.54 55.1483 19.2597 58.8679 19.2597 63.485C19.2597 68.1021 15.54 71.8218 10.923 71.8218C6.3059 71.8218 2.58626 68.1021 2.58626 63.485C2.58626 58.8679 6.3059 55.1483 10.923 55.1483Z" fill="black"/>
</g>
<path d="M5.669 65.0248L8.42704 67.0771C8.68368 67.2696 8.93952 67.3337 9.19616 67.3337C9.51695 67.3337 9.90191 67.2054 10.0944 66.9488L15.0323 61.8184C15.5447 61.3059 15.4806 60.4718 14.9681 60.0227C14.4548 59.5102 13.6215 59.5744 13.1724 60.0869L9.00368 64.384L7.14466 63.0366C6.56722 62.5883 5.79732 62.7166 5.349 63.2933C4.96404 63.8065 5.09236 64.5757 5.669 65.0248Z" fill="black"/>
<path d="M50.6844 62.8457C46.7731 62.8457 43.6309 65.9879 43.6309 69.8993C43.6309 73.8114 46.7731 76.9536 50.6844 76.9536C54.5965 76.9536 57.7387 73.8114 57.7387 69.8993C57.7387 65.9879 54.5965 62.8457 50.6844 62.8457ZM50.6844 74.388C48.1838 74.388 46.1956 72.4007 46.1956 69.8993C46.1956 67.3986 48.1838 65.4105 50.6844 65.4105C53.1858 65.4105 55.1739 67.3986 55.1739 69.8993C55.1739 72.4007 53.1858 74.388 50.6844 74.388Z" fill="black"/>
</svg>
