<svg width="67" height="74" viewBox="0 0 67 74" fill="none" xmlns="http://www.w3.org/2000/svg">
<path fill-rule="evenodd" clip-rule="evenodd" d="M64.4439 14.5616L63.391 14.0852C63.1816 13.9899 62.9253 14.0878 62.832 14.2965L61.263 17.7653L63.085 18.5914L64.656 15.1206C64.7499 14.9119 64.6533 14.6562 64.4439 14.5616ZM51.9948 48.5394L48.1952 56.9386V64.1768C48.1952 66.1383 46.6 67.7328 44.6385 67.7328H9.58965C7.6281 67.7328 6.03363 66.1383 6.03363 64.1768V16.1601C6.03363 14.1999 7.6281 12.6034 9.58965 12.6034H16.8822V8.80649H8.49378C5.04245 8.80649 2.23535 11.6143 2.23535 15.0643V65.2726C2.23535 68.7239 5.04245 71.531 8.49378 71.531H45.7357C49.1864 71.531 51.9948 68.7239 51.9948 65.2726V48.5394ZM19.1189 13.353V8.05758C19.1189 7.71466 19.4068 7.42543 19.7497 7.42543H24.3251C25.1646 7.42543 25.7041 6.53424 25.3143 5.78935C24.4915 4.21702 25.5981 2.23266 27.4671 2.23266C29.3394 2.23266 30.4439 4.21837 29.6219 5.78935C29.2313 6.53491 29.7715 7.42543 30.611 7.42543H35.1871C35.5287 7.42543 35.8192 7.71466 35.8192 8.05758V13.353C35.8192 13.6946 35.5287 13.9852 35.1871 13.9852H19.7497C19.4068 13.9852 19.1189 13.6946 19.1189 13.353ZM45.7357 8.80582C49.1864 8.80582 51.9948 11.6143 51.9948 15.0636V32.8336L48.1952 41.2341V16.1601C48.1952 14.1999 46.6 12.6034 44.6385 12.6034H38.0546V8.80649H45.7357V8.80582ZM62.1643 20.6275L46.1457 56.0494L44.162 58.0062L44.3211 55.2233L60.3416 19.8034L62.1643 20.6275ZM9.58965 14.8388H17.3036C17.8063 15.6655 18.7129 16.2205 19.7497 16.2205H35.1871C36.2232 16.2205 37.1285 15.6655 37.6325 14.8388H44.6385C45.3673 14.8388 45.9598 15.432 45.9598 16.1601V46.1759L42.1985 54.4911C42.1421 54.6166 42.1099 54.7509 42.1025 54.8878L41.7643 60.7764C41.7046 61.8005 42.94 62.3508 43.6641 61.6361L45.9598 59.3705V64.1768C45.9598 64.9049 45.3673 65.4974 44.6385 65.4974H9.58965C8.8622 65.4974 8.2683 64.9049 8.2683 64.1768V16.1601C8.2683 15.432 8.8622 14.8388 9.58965 14.8388ZM66.6913 16.042L54.2302 43.5983V65.2726C54.2302 69.956 50.4198 73.7664 45.7357 73.7664H8.49378C3.81036 73.7664 0 69.956 0 65.2726V15.0636C0 10.3802 3.81036 6.57048 8.49378 6.57048H17.3036C17.8063 5.74372 18.7129 5.18941 19.7497 5.18941H22.8299C22.5212 2.48968 24.6237 0 27.4677 0C30.3131 0 32.4149 2.49102 32.1069 5.18941H35.1871C36.2232 5.18941 37.1285 5.74372 37.6325 6.57048H45.7357C50.4191 6.57048 54.2295 10.3802 54.2295 15.0636V27.8918L60.7946 13.3758C61.3986 12.0391 62.9763 11.4438 64.311 12.0478L65.3653 12.5249C66.7001 13.1282 67.2946 14.7072 66.6913 16.042ZM14.6576 26.7134L16.9171 22.3615L19.178 26.7134H14.6576ZM37.3104 22.3615L39.5712 26.7134H35.0509L37.3104 22.3615ZM39.8417 28.9488C38.6559 30.7734 35.9763 30.7815 34.7804 28.9488H39.8417ZM19.4477 28.9488C18.2599 30.7761 15.5803 30.7794 14.3858 28.9488H19.4477ZM11.8257 27.3167H11.825L15.9259 19.4215C16.1185 19.0524 16.4997 18.8196 16.9171 18.8196H37.3104C37.7278 18.8196 38.111 19.0524 38.3036 19.4215L42.4032 27.3167H42.4025C42.5058 27.516 42.5488 27.7455 42.5206 27.971C42.1897 30.5862 39.9504 32.5578 37.3104 32.5578C34.6724 32.5578 32.4323 30.5862 32.1015 27.971C32.0733 27.7455 32.1163 27.516 32.2203 27.3167H32.2189L35.471 21.0549H28.2321V35.842H30.9338C31.5512 35.842 32.0518 36.342 32.0518 36.9587C32.0518 37.5761 31.5512 38.0774 30.9338 38.0774H23.2957C22.6783 38.0774 22.177 37.5761 22.177 36.9587C22.177 36.342 22.6783 35.842 23.2957 35.842H25.9974V21.0549H18.7579L22.0085 27.3167C22.1126 27.516 22.1548 27.7455 22.1267 27.971C21.7958 30.5862 19.5558 32.5578 16.9171 32.5578C14.2778 32.5578 12.0397 30.5862 11.7076 27.971C11.6787 27.7449 11.7223 27.516 11.8257 27.3167ZM27.1154 58.0834C27.7315 58.0834 28.2328 58.584 28.2328 59.2014C28.2328 59.8181 27.7315 60.3187 27.1154 60.3187H14.4046C13.7879 60.3187 13.2866 59.8181 13.2866 59.2014C13.2866 58.584 13.7879 58.0834 14.4046 58.0834H27.1154ZM39.8235 50.6694C40.4416 50.6694 40.9409 51.17 40.9409 51.7867C40.9409 52.4041 40.4416 52.9047 39.8235 52.9047H14.4046C13.7879 52.9047 13.2866 52.4041 13.2866 51.7867C13.2866 51.17 13.7879 50.6694 14.4046 50.6694H39.8235ZM40.9409 44.3734C40.9409 44.9901 40.4416 45.4907 39.8235 45.4907H14.4046C13.7879 45.4907 13.2866 44.9901 13.2866 44.3734C13.2866 43.756 13.7879 43.2554 14.4046 43.2554H39.8235C40.4416 43.2554 40.9409 43.756 40.9409 44.3734Z" fill="black"/>
</svg>
