<svg width="67" height="67" viewBox="0 0 67 67" fill="none" xmlns="http://www.w3.org/2000/svg">
<mask id="mask0_287_503" style="mask-type:luminance" maskUnits="userSpaceOnUse" x="0" y="0" width="67" height="67">
<path d="M0 0H66.93V66.5162H0V0Z" fill="white"/>
</mask>
<g mask="url(#mask0_287_503)">
<path d="M33.3619 47.3272C32.8039 47.3272 32.3551 46.8735 32.3551 46.3196C32.3551 45.7657 32.8039 45.3121 33.3619 45.3121H46.9381C47.4936 45.3121 47.9457 45.7657 47.9457 46.3196C47.9457 46.8751 47.492 47.3272 46.9381 47.3272H33.3619ZM33.3619 52.1531C32.8039 52.1531 32.3551 51.7003 32.3551 51.1456C32.3551 50.5917 32.8039 50.1389 33.3619 50.1389H46.9381C47.4936 50.1389 47.9457 50.5917 47.9457 51.1456C47.9457 51.7003 47.492 52.1531 46.9381 52.1531H33.3619ZM13.2679 21.7914C12.7091 21.7914 12.2603 21.3377 12.2603 20.7839C12.2603 20.2259 12.7091 19.7763 13.2679 19.7763H15.8784C16.4363 19.7763 16.8851 20.2259 16.8851 20.7839C16.8851 21.3394 16.4363 21.7914 15.8784 21.7914H13.2679ZM13.2679 30.4309C12.7091 30.4309 12.2603 29.9822 12.2603 29.4242C12.2603 28.8687 12.7091 28.4167 13.2679 28.4167H15.8784C16.4363 28.4167 16.8851 28.8695 16.8851 29.4242C16.8851 29.9822 16.4363 30.4309 15.8784 30.4309H13.2679ZM19.3058 30.4309C18.7471 30.4309 18.2983 29.9822 18.2983 29.4242C18.2983 28.8687 18.7471 28.4167 19.3058 28.4167H29.4628C30.0183 28.4167 30.4695 28.8695 30.4695 29.4242C30.4695 29.9822 30.0167 30.4309 29.4628 30.4309H19.3058ZM29.4628 24.0965C30.0183 24.0965 30.4695 24.5453 30.4695 25.104C30.4695 25.6595 30.0167 26.1108 29.4628 26.1108H26.8474C26.2919 26.1108 25.8407 25.6579 25.8407 25.104C25.8407 24.5453 26.2935 24.0965 26.8474 24.0965H29.4628ZM23.4256 24.0965C23.9811 24.0965 24.4332 24.5453 24.4332 25.104C24.4332 25.6595 23.9795 26.1108 23.4256 26.1108H13.2687C12.7107 26.1108 12.2619 25.6579 12.2619 25.104C12.2619 24.5453 12.7107 24.0965 13.2687 24.0965H23.4256ZM19.3058 21.7914C18.7471 21.7914 18.2983 21.3377 18.2983 20.7839C18.2983 20.2259 18.7471 19.7763 19.3058 19.7763H29.4628C30.0183 19.7763 30.4695 20.2259 30.4695 20.7839C30.4695 21.3394 30.0167 21.7914 29.4628 21.7914H19.3058ZM14.2681 5.41813H30.2292C31.3345 5.41813 32.2329 6.31898 32.2329 7.42508V14.5806C32.2329 15.685 31.3345 16.5875 30.2292 16.5875H14.2681C13.1669 16.5875 12.2603 15.6826 12.2603 14.5806V7.42508C12.2603 6.32305 13.1669 5.41813 14.2681 5.41813ZM30.2211 7.43241H14.2762V14.5716H30.2219V7.43241H30.2211ZM10.4122 49.8073C10.0815 49.3626 10.1768 48.7338 10.6215 48.4048C11.0703 48.0733 11.6975 48.1645 12.029 48.6133L13.8234 51.0405L18.6233 45.7625C18.9996 45.3552 19.6308 45.3218 20.0422 45.6981C20.4543 46.0736 20.4828 46.7098 20.1114 47.117L14.4864 53.2959C14.0661 53.7561 13.3119 53.7243 12.9364 53.2185L10.4122 49.8073ZM14.9441 62.2726C10.0815 60.4612 6.79088 57.2227 5.08122 53.3725C3.37563 49.5255 3.28685 45.1207 4.8165 41.0082C4.97126 40.592 5.372 40.3387 5.79066 40.3549C9.00065 40.4323 12.2188 39.1316 14.6257 36.9772C15.0134 36.6302 15.5933 36.6391 15.9688 36.9812C18.3879 39.1649 21.5783 40.4038 24.816 40.3549C25.2721 40.346 25.6313 40.6278 25.7828 41.04C27.3084 45.1394 27.2058 49.5369 25.5051 53.3708C23.7954 57.217 20.5048 60.4612 15.6422 62.271C15.41 62.359 15.1616 62.3549 14.9441 62.2726ZM6.91713 52.5604C8.3694 55.8315 11.1681 58.6301 15.2952 60.2575C19.4191 58.6301 22.2169 55.8315 23.67 52.5604C25.0734 49.3993 25.229 45.7853 24.1196 42.3546C20.8844 42.2438 17.8291 41.0701 15.2968 39.0379C12.7596 41.0701 9.70438 42.2438 6.47403 42.3546C5.35897 45.7853 5.51373 49.3993 6.91713 52.5604ZM14.9441 66.4258C8.46714 64.0108 4.08507 59.7037 1.81259 54.5796C-0.459084 49.4677 -0.581261 43.6024 1.45746 38.133C1.61303 37.7167 2.01296 37.4634 2.43162 37.4797C4.02643 37.5042 5.60902 37.3038 7.13867 36.8965V3.53742C7.13867 1.58748 8.73023 0 10.6761 0H51.0897C53.0347 0 54.6271 1.58748 54.6271 3.53742V16.2283C59.5297 19.7649 61.7525 25.9886 60.1829 31.8425C59.4849 34.4416 58.0733 36.8477 56.0297 38.7447L56.8784 40.2092C57.3679 39.92 57.9886 40.0829 58.2663 40.5675L66.172 54.257C66.7927 55.2442 66.9189 56.5165 66.6322 57.577C66.0164 59.869 63.6706 61.2276 61.3745 60.6159C60.3181 60.3316 59.3554 59.6377 58.764 58.6171L54.6279 51.447V53.1566C54.6279 55.1017 53.0364 56.6932 51.0913 56.6932H27.688C25.22 60.8863 21.2069 64.3537 15.6422 66.4258C15.41 66.5162 15.1616 66.5073 14.9441 66.4258ZM9.15622 36.2278C11.1306 35.4402 12.9828 34.2934 14.6257 32.8215C15.0134 32.4746 15.5933 32.4876 15.9688 32.8297C19.3058 35.845 23.7018 37.5498 28.1734 37.4797C28.6377 37.4708 28.9887 37.7575 29.1443 38.1729C31.1839 43.6602 31.0324 49.5663 28.733 54.6773H51.0897C51.9213 54.6773 52.6104 53.9923 52.6104 53.1566V47.96L50.8233 44.8673V44.8633C50.5456 44.3941 50.7052 43.7735 51.2062 43.4843L50.3615 42.0198C43.9358 43.9942 36.8838 41.3144 33.4458 35.3628C29.4147 28.3792 31.8021 19.4627 38.7857 15.4277C43.1392 12.9108 48.3195 12.866 52.6104 15.0074V3.53742C52.6104 2.70092 51.9213 2.01591 51.0897 2.01591H10.6777C9.84122 2.01591 9.15622 2.70092 9.15622 3.53742V36.2278ZM3.64442 53.7675C5.65952 58.3084 9.55207 62.1879 15.2952 64.414C20.3867 62.4396 24.0202 59.1645 26.186 55.2849C26.2105 55.2271 26.239 55.1709 26.2748 55.118C26.5151 54.6773 26.7358 54.2244 26.9394 53.7675C28.9057 49.3414 29.0938 44.2719 27.4778 39.4826C23.0029 39.3889 18.765 37.7485 15.2936 34.8937C11.8189 37.7485 7.58095 39.3889 3.10522 39.4826C1.49167 44.2719 1.67901 49.3431 3.64442 53.7675ZM40.5703 18.5163C45.8483 15.4692 52.5835 17.2709 55.6338 22.5497C58.6801 27.8237 56.8817 34.554 51.6004 37.6133C46.3264 40.6645 39.5301 38.8253 36.5368 33.5758C33.493 28.2367 35.3118 21.5511 40.5703 18.5163ZM48.4189 19.356C43.6092 18.0667 38.6651 20.9191 37.3774 25.7288C36.088 30.5417 38.9445 35.485 43.7534 36.7744C48.5671 38.0637 53.5072 35.2072 54.7949 30.3984C55.3952 28.1658 55.1419 25.7109 53.8973 23.5573V23.5524C52.612 21.3842 50.6898 19.9653 48.4189 19.356ZM54.4512 40.021C53.7377 40.5187 53.0437 40.9186 52.2569 41.29L52.946 42.4816L55.1403 41.2126L54.4512 40.021ZM49.3442 15.9098C46.2311 15.0782 42.8004 15.4293 39.7949 17.1658V17.1617C36.7641 18.9561 34.7807 21.6375 33.9336 24.8059C33.0971 27.919 33.4531 31.3448 35.1855 34.3553C38.714 40.4006 46.3737 42.4287 52.375 38.9605L52.3791 38.9646C55.405 37.1816 57.3924 34.4823 58.2403 31.3204C60.0314 24.639 56.0949 17.7205 49.3442 15.9098ZM63.6291 58.4477C64.7099 57.823 65.0895 56.4081 64.4656 55.3232V55.3281L57.0258 42.4409L53.0657 44.7297L60.5054 57.6112C61.1326 58.6994 62.536 59.0749 63.6291 58.4477Z" fill="black"/>
</g>
</svg>
