<svg width="67" height="77" viewBox="0 0 67 77" fill="none" xmlns="http://www.w3.org/2000/svg">
<path fill-rule="evenodd" clip-rule="evenodd" d="M44.6503 45.4807H43.0738C42.1281 45.4807 41.3613 44.714 41.3613 43.7683C41.3613 43.2733 41.7668 42.8679 42.2629 42.8679C42.7136 42.8679 43.1191 43.228 43.1633 43.6788H44.5156V42.2823H43.0738C42.1281 42.2823 41.3613 41.5609 41.3613 40.6152V39.0386C41.3613 38.0929 42.1281 37.3262 43.0738 37.3262H44.6503C45.5507 37.3262 46.3175 38.0929 46.3175 39.0386C46.3175 39.5336 45.912 39.939 45.416 39.939C44.9652 39.939 44.605 39.5789 44.5597 39.1281H43.1633V40.4804H44.6503C45.596 40.4804 46.3617 41.246 46.3617 42.1917V43.7683C46.3175 44.714 45.596 45.4807 44.6503 45.4807Z" fill="black"/>
<path fill-rule="evenodd" clip-rule="evenodd" d="M43.7949 46.5616C43.3 46.5616 42.8945 46.1562 42.8945 45.6612V44.5796C42.8945 44.0847 43.3 43.6792 43.7949 43.6792C44.291 43.6792 44.6965 44.0847 44.6965 44.5796V45.6612C44.6965 46.1562 44.291 46.5616 43.7949 46.5616ZM43.7949 39.1285C43.3 39.1285 42.8945 38.723 42.8945 38.2281V37.1465C42.8945 36.6516 43.3 36.2461 43.7949 36.2461C44.291 36.2461 44.6965 36.6516 44.6965 37.1465V38.2281C44.6965 38.723 44.291 39.1285 43.7949 39.1285Z" fill="black"/>
<path fill-rule="evenodd" clip-rule="evenodd" d="M43.8405 49.5345C39.3805 49.5345 35.7324 45.8865 35.7324 41.4264C35.7324 36.921 39.3805 33.2729 43.8405 33.2729C48.3448 33.2729 51.994 36.921 51.994 41.4264C51.994 45.8865 48.3448 49.5345 43.8405 49.5345ZM43.8405 35.0749C40.3715 35.0749 37.5344 37.912 37.5344 41.3811C37.5344 44.8943 40.3715 47.7326 43.8405 47.7326C47.3538 47.7326 50.192 44.8943 50.192 41.3811C50.192 37.912 47.3538 35.0749 43.8405 35.0749Z" fill="black"/>
<path fill-rule="evenodd" clip-rule="evenodd" d="M43.8401 52.7783C37.5781 52.7783 32.4883 47.6873 32.4883 41.3811C32.4883 35.1191 37.5781 30.0293 43.8401 30.0293C50.1021 30.0293 55.2373 35.1191 55.2373 41.3811C55.2373 47.6873 50.1463 52.7783 43.8401 52.7783ZM43.8401 31.8312C38.5691 31.8312 34.2902 36.1101 34.2902 41.3811C34.2902 46.6963 38.5691 50.9763 43.8401 50.9763C49.1111 50.9763 53.4353 46.6963 53.4353 41.3811C53.4353 36.1101 49.1111 31.8312 43.8401 31.8312Z" fill="black"/>
<mask id="mask0_287_456" style="mask-type:luminance" maskUnits="userSpaceOnUse" x="0" y="46" width="18" height="31">
<path d="M0 46.6294H17.35V76.2033H0V46.6294Z" fill="white"/>
</mask>
<g mask="url(#mask0_287_456)">
<path fill-rule="evenodd" clip-rule="evenodd" d="M9.01993 76.0235C8.47855 76.0235 7.93831 75.8422 7.48755 75.5727C6.76723 75.1672 6.22699 74.4911 6.04577 73.7255L0.235649 52.0581C0.0102656 51.2913 0.145042 50.4362 0.550505 49.7148C0.955968 48.9945 1.63212 48.4984 2.39774 48.2742L7.62346 46.8777C9.24418 46.4722 10.9566 47.4179 11.4074 49.0839L17.1734 70.7524C17.623 72.3743 16.632 74.0856 15.0113 74.5364L9.82972 75.9329C9.56017 75.9782 9.28948 76.0235 9.01993 76.0235ZM8.07309 48.6343L2.89268 50.0308C2.53252 50.1203 2.26183 50.3003 2.08175 50.6163C1.94697 50.9312 1.90167 51.2472 1.99228 51.6073L7.75823 73.2294C7.93831 73.9508 8.65863 74.3563 9.33478 74.1762L14.5605 72.7798C15.2355 72.5997 15.641 71.8782 15.4609 71.2032L9.64964 49.5347C9.46956 48.8597 8.74924 48.4542 8.07309 48.6343Z" fill="black"/>
</g>
<mask id="mask1_287_456" style="mask-type:luminance" maskUnits="userSpaceOnUse" x="10" y="49" width="57" height="28">
<path d="M10.6816 49.8188H66.93V76.8784H10.6816V49.8188Z" fill="white"/>
</mask>
<g mask="url(#mask1_287_456)">
<path fill-rule="evenodd" clip-rule="evenodd" d="M43.0743 76.8781C39.9212 76.8781 37.0377 75.5723 31.4518 72.9594C28.7937 71.6977 25.4605 70.1665 21.2258 68.3645C21.0004 68.2739 20.7761 68.1844 20.5961 68.0938C19.9199 67.779 19.4238 67.5536 18.7488 67.5536C18.7488 67.5536 18.7488 67.5536 18.7035 67.5536C17.7125 67.5536 16.4508 67.8685 15.5957 68.0938C15.0997 68.2298 14.6942 67.9591 14.5594 67.463C14.4235 66.9681 14.6047 66.5173 15.0544 66.3825C16.0454 66.0665 17.4871 65.7517 18.7035 65.7064C19.7851 65.7064 20.5961 66.0665 21.3164 66.4278C21.4965 66.5173 21.7218 66.6079 21.9019 66.6974C26.1819 68.5446 29.5151 70.0759 32.1733 71.2922C42.9396 76.2926 42.9396 76.2926 55.7773 71.0669C57.3992 70.3918 59.2464 69.6262 61.2737 68.8153L62.2648 68.4098C63.8413 67.8243 65.3272 66.2024 64.787 64.2646C64.5616 63.3642 63.9761 62.6439 63.2105 62.1931C62.3995 61.7423 61.4991 61.6076 60.6429 61.8329L43.9747 66.2919C43.84 66.3372 43.6146 66.3372 43.4798 66.2919L36.9482 63.995L30.5514 61.6076C30.1007 61.4275 29.8753 60.9314 30.0101 60.4806C30.1901 59.9857 30.7315 59.7603 31.1811 59.9404L37.5338 62.2826C39.5158 62.824 41.2271 61.4275 41.7232 59.8056C41.9033 59.0842 42.3529 56.7873 39.1998 55.7057C37.8939 55.3002 36.7228 54.8506 35.5959 54.4451C28.7937 52.0124 24.2894 50.3905 15.9559 52.778L11.7665 53.9038C11.2704 54.0397 10.865 53.7237 10.7302 53.2287C10.5954 52.7327 10.8208 52.2819 11.2704 52.1471L15.5051 51.0214C24.38 48.5433 29.335 50.2999 36.2268 52.778C37.3084 53.1834 38.5248 53.5889 39.7853 54.0397C43.2544 55.2108 44.1107 58.049 43.4345 60.3006C43.029 61.6076 42.1286 62.7787 40.9564 63.499L43.7947 64.49L60.1468 60.1205C61.4991 59.7603 62.8956 59.9404 64.1109 60.6166C65.3272 61.3369 66.1835 62.4627 66.5436 63.7697C67.2198 66.3372 65.6885 68.9954 62.9398 70.1212L61.9488 70.5266C59.9214 71.3375 58.0753 72.0579 56.4988 72.734C49.6965 75.4816 46.2727 76.8781 43.0743 76.8781Z" fill="black"/>
</g>
<path fill-rule="evenodd" clip-rule="evenodd" d="M4.91844 66.9684C4.51297 66.9684 4.28759 66.6524 4.19812 66.2469C4.06221 65.752 4.19812 65.3465 4.69305 65.2118L14.1082 62.6884C14.6042 62.5536 14.739 62.9591 14.8285 63.4098C14.9644 63.9048 15.0539 64.3102 14.5589 64.4008L5.14382 66.9684C5.05321 66.9684 5.00904 66.9684 4.91844 66.9684Z" fill="black"/>
<path fill-rule="evenodd" clip-rule="evenodd" d="M59.1108 62.1935C58.8401 62.1935 58.5695 62.1029 58.3894 61.8334C58.0745 61.4721 58.164 60.8865 58.5695 60.617C61.4983 58.4549 64.6967 54.4897 63.4803 47.8234C62.1733 40.7957 57.9839 34.3989 53.8851 28.1369C53.3437 27.2818 52.7582 26.4256 52.218 25.5694C51.9473 25.1197 52.1727 24.7584 52.6234 24.4889C53.0289 24.2182 53.4344 24.1729 53.705 24.5783C54.2906 25.4346 54.8308 26.2908 55.4164 27.1459C59.5605 33.5427 63.8858 40.1196 65.237 47.4632C66.6334 55.0753 62.9843 59.5807 59.6058 62.0576C59.471 62.1482 59.2909 62.1935 59.1108 62.1935ZM23.0722 51.6073C22.5773 51.6073 22.1718 51.2472 22.1718 50.7511C22.1265 49.6706 22.216 48.589 22.396 47.5074C23.6577 40.2555 27.8924 33.7681 31.9912 27.5072C32.6674 26.5162 33.2982 25.5694 33.9291 24.5783C34.1986 24.1729 34.6041 24.2182 35.0096 24.4889C35.4603 24.7584 35.6857 25.1197 35.415 25.5694C34.7842 26.5162 34.1545 27.5072 33.5236 28.4982C29.5143 34.6243 25.3702 40.9305 24.198 47.7781C24.0179 48.7691 23.9284 49.7601 23.9737 50.7058C23.9737 51.1566 23.5683 51.6073 23.0722 51.6073Z" fill="black"/>
<path fill-rule="evenodd" clip-rule="evenodd" d="M53.5705 25.9748H34.1105C32.2633 25.9748 30.7773 24.4889 30.7773 22.6416V21.1999C30.7773 19.3526 32.2633 17.8667 34.1105 17.8667H53.5705C55.4177 17.8667 56.9048 19.3526 56.9048 21.1999V22.6416C56.9048 24.4889 55.3724 25.9748 53.5705 25.9748ZM34.1105 19.6686C33.2543 19.6686 32.5781 20.3448 32.5781 21.1999V22.6416C32.5781 23.4979 33.2543 24.1729 34.1105 24.1729H53.5705C54.4267 24.1729 55.1029 23.4979 55.1029 22.6416V21.1999C55.1029 20.3448 54.4267 19.6686 53.5705 19.6686H34.1105Z" fill="black"/>
<path fill-rule="evenodd" clip-rule="evenodd" d="M53.5705 19.6682H34.1105C32.2633 19.6682 30.7773 18.1811 30.7773 16.335V14.8932C30.7773 13.046 32.2633 11.5601 34.1105 11.5601H53.5705C55.4177 11.5601 56.9048 13.046 56.9048 14.8932V16.335C56.9048 18.1811 55.3724 19.6682 53.5705 19.6682ZM34.1105 13.3609C33.2543 13.3609 32.5781 14.037 32.5781 14.8932V16.335C32.5781 17.1901 33.2543 17.8663 34.1105 17.8663H53.5705C54.4267 17.8663 55.1029 17.1901 55.1029 16.335V14.8932C55.1029 14.037 54.4267 13.3609 53.5705 13.3609H34.1105Z" fill="black"/>
<path fill-rule="evenodd" clip-rule="evenodd" d="M34.019 13.361C33.6588 13.361 33.2987 13.1367 33.1639 12.7313L30.6405 4.44192C30.551 4.17236 30.5952 3.85637 30.7764 3.63099C30.9112 3.40561 31.1807 3.27083 31.4967 3.27083H41.1372C43.3888 2.68529 45.6868 2.14505 47.8942 1.60368C49.9657 1.06344 52.1289 0.568499 54.2457 0.0271262C54.6512 -0.0623473 55.0113 0.0724292 55.2367 0.388419C55.4621 0.703275 55.4168 1.10874 55.1914 1.4236L53.7496 3.31613L57.3093 3.99115C57.6242 4.03645 57.8496 4.21653 57.9843 4.48722C58.0749 4.75791 58.0749 5.07276 57.8949 5.34345L53.3442 12.9113C53.1199 13.361 52.5332 13.4969 52.1289 13.2262C51.6781 13.0008 51.5422 12.4153 51.8129 12.0098L55.6875 5.52353L51.993 4.75791C51.6781 4.7126 51.4528 4.48722 51.318 4.21653C51.2274 3.90168 51.2727 3.58569 51.4528 3.36144L52.1731 2.37043C50.8672 2.73059 49.5602 3.04545 48.2997 3.31613C46.047 3.90168 43.749 4.44192 41.4521 5.02746C41.4068 5.07276 41.3173 5.07276 41.2267 5.07276H32.7131L34.8752 12.1899C35.0553 12.686 34.7846 13.1809 34.2897 13.3168C34.1991 13.361 34.1096 13.361 34.019 13.361Z" fill="black"/>
</svg>
