<svg width="67" height="67" viewBox="0 0 67 67" fill="none" xmlns="http://www.w3.org/2000/svg">
<mask id="mask0_287_495" style="mask-type:luminance" maskUnits="userSpaceOnUse" x="0" y="0" width="67" height="67">
<path d="M0 0H66.93V66.93H0V0Z" fill="white"/>
</mask>
<g mask="url(#mask0_287_495)">
<path d="M61.6953 50.6542H49.4642C46.5772 50.6542 44.2295 53.0028 44.2295 55.8898V66.0968C44.2295 66.557 44.6025 66.93 45.0627 66.93H66.0968C66.5562 66.93 66.93 66.557 66.93 66.0968V55.8898C66.93 53.0028 64.5815 50.6542 61.6953 50.6542ZM65.2637 65.2637H45.8967V55.8898C45.8967 53.9215 47.4976 52.3206 49.4659 52.3206H61.6961C63.6635 52.3206 65.2653 53.9215 65.2653 55.8898V65.2637H65.2637ZM17.075 11.9517L20.5514 13.9579C20.683 14.0346 20.8259 14.0693 20.9663 14.0693C21.0568 14.0693 21.1439 14.0524 21.2287 14.0249L21.2731 14.0693C21.4047 14.1969 21.4782 14.3204 21.5282 14.4972L21.898 15.8107L21.856 15.8826C21.2634 16.9103 21.6162 18.2279 22.644 18.8213C22.9217 18.9811 23.2196 19.0707 23.5183 19.099C23.5877 19.7594 23.9599 20.3802 24.5791 20.7387C24.9166 20.9332 25.2864 21.0261 25.6513 21.0261C25.9597 21.0261 26.2648 20.9599 26.5442 20.8315C26.7177 21.1092 26.9551 21.3111 27.2078 21.4564C27.5453 21.6509 27.915 21.7438 28.2799 21.7438C28.5197 21.7438 28.7579 21.7034 28.9823 21.6259C29.1478 21.9343 29.3948 22.1927 29.7186 22.3784C30.0561 22.5729 30.425 22.6658 30.7907 22.6658C31.1476 22.6658 31.4987 22.577 31.8128 22.409L33.287 23.2608C33.6244 23.4545 33.9942 23.5482 34.3591 23.5482C35.1035 23.5482 35.8268 23.1615 36.2257 22.4728C36.3185 22.3122 36.3879 22.1426 36.4348 21.9707C37.3713 22.2548 38.4151 21.8705 38.9246 20.9889C39.0303 20.8065 39.1054 20.6151 39.1538 20.4206C40.0258 20.5829 40.9453 20.1929 41.4144 19.3824C41.5411 19.1644 41.6259 18.9311 41.6703 18.6937C41.8883 18.7042 42.1087 18.6792 42.3266 18.621C42.8821 18.4725 43.3463 18.1173 43.6337 17.62C43.9195 17.1243 43.9962 16.5438 43.8477 15.9883C43.8 15.8132 43.7306 15.6485 43.645 15.4926L45.3356 13.9636C45.476 14.0596 45.6415 14.1137 45.8111 14.1137C45.9467 14.1137 46.0856 14.0806 46.2131 14.0096L49.725 12.0671C49.918 11.9598 50.0617 11.7805 50.1222 11.5682C50.1836 11.3559 50.1569 11.1282 50.0504 10.9353L45.757 3.1728C45.5342 2.77075 45.0264 2.62463 44.6251 2.84664L41.1092 4.79069C40.9162 4.89807 40.7733 5.07648 40.712 5.28962C40.6991 5.33483 40.691 5.38085 40.6853 5.42687C39.815 5.57784 38.1754 5.84587 37.7709 5.7167L35.1551 4.75436C34.6732 4.57836 33.6148 4.38541 32.6112 4.46453L30.3895 4.27561C29.9196 4.23525 29.4699 4.33374 29.013 4.57513L27.6179 5.31303C27.4839 5.38408 27.3749 5.41395 27.2231 5.42283L26.683 5.45351C26.5054 5.4632 26.3633 5.43332 26.2124 5.35905C26.2107 5.35178 26.2091 5.34371 26.2083 5.33644C26.151 5.1225 26.0105 4.94085 25.8192 4.83106L22.3436 2.82484C21.9448 2.59395 21.4354 2.73119 21.2053 3.13001L16.7698 10.8118C16.6584 11.0031 16.6294 11.2308 16.6867 11.4439C16.7432 11.6586 16.8837 11.8403 17.075 11.9517ZM23.2987 16.7174L24.7269 14.2453C24.8585 14.0177 25.1612 13.9377 25.3889 14.0677C25.5003 14.1315 25.5794 14.2356 25.6125 14.3624C25.6456 14.4883 25.6287 14.6191 25.5649 14.7289L24.1391 17.201C24.0754 17.3116 23.9712 17.3907 23.8445 17.4238C23.7185 17.4585 23.5877 17.4407 23.4779 17.3769C23.2487 17.2478 23.1687 16.9434 23.2987 16.7174ZM25.4123 19.296C25.1846 19.1644 25.1039 18.8616 25.2347 18.634L27.3547 14.9638C27.4443 14.8096 27.6107 14.7233 27.7802 14.7233C27.8617 14.7233 27.9441 14.7442 28.0175 14.7862C28.2452 14.9178 28.3259 15.2206 28.1952 15.4482L27.3055 16.9894C27.2982 17.0023 27.2942 17.0161 27.2869 17.0298C27.2369 17.1113 27.186 17.1961 27.1359 17.2841C27.094 17.356 27.0536 17.4286 27.0165 17.498C27.0108 17.5077 27.0027 17.5142 26.9979 17.5239L26.0775 19.12C25.9427 19.346 25.64 19.4268 25.4123 19.296ZM28.041 20.0137C27.7899 19.8692 28.0046 19.1071 28.577 18.1173C29.1341 17.1517 29.52 16.8312 29.6992 16.7271C29.7711 16.6851 29.8187 16.6689 29.8542 16.6689C29.8905 16.6689 29.9188 16.6843 29.9519 16.7036C30.0625 16.7674 30.1416 16.8716 30.1755 16.9975C30.2086 17.1243 30.1917 17.255 30.1279 17.3648L29.5466 18.3708C29.5353 18.391 29.5264 18.4103 29.5168 18.4305C29.482 18.4862 29.4473 18.5419 29.4142 18.6001C29.3892 18.6445 29.3674 18.6864 29.3432 18.7292C29.3351 18.743 29.3238 18.7559 29.3173 18.7696L28.7005 19.8361C28.5714 20.0637 28.2686 20.1445 28.041 20.0137ZM30.5518 20.9357C30.4654 20.8856 30.4242 20.8388 30.4153 20.6999C30.4056 20.532 30.4492 20.1445 30.8602 19.4332C31.2711 18.7212 31.5843 18.4894 31.7345 18.4144C31.7926 18.3853 31.8378 18.3724 31.8774 18.3724C31.9218 18.3724 31.9613 18.3877 32.0066 18.4144C32.2342 18.546 32.315 18.8487 32.185 19.0764L31.2138 20.758C31.15 20.8695 31.0458 20.9486 30.9199 20.9833C30.7915 21.0164 30.6615 20.9994 30.5518 20.9357ZM34.7797 21.6396C34.6481 21.8673 34.3454 21.948 34.1177 21.8173L32.9237 21.1278L33.4081 20.289L34.6102 20.9833C34.6102 20.9833 34.6118 20.9833 34.6118 20.9841C34.8354 21.1189 34.9105 21.4136 34.7797 21.6396ZM44.6986 4.70996L48.1854 11.0144L46.1316 12.1503L42.6447 5.84587L44.6986 4.70996ZM37.1945 7.28211C37.9622 7.56387 39.4162 7.34185 41.2368 7.02215C41.2852 7.01407 41.3312 7.00519 41.3772 6.99712L44.4362 12.5281L42.3606 14.4044L33.065 9.03886C32.6557 8.80069 32.2245 8.68605 31.7514 8.68605C31.1137 8.68605 30.5332 8.73046 29.8639 9.27137L28.2258 10.6002C28.1257 10.681 28.0006 10.7173 27.8706 10.7044C27.7414 10.6907 27.6244 10.6285 27.5436 10.53C27.3789 10.3257 27.4104 10.0133 27.6147 9.8478L31.9581 6.32219C32.0776 6.22531 32.3125 6.16234 32.5983 6.13247C32.6371 6.13247 32.6758 6.12763 32.7138 6.12278C33.3233 6.07515 34.1177 6.15185 34.5747 6.31977L37.1945 7.28211ZM26.7775 7.11903L27.3176 7.08916C27.7075 7.06655 28.0506 6.97048 28.3954 6.78883L29.3981 6.25841L26.566 8.55527C25.6456 9.30204 25.5043 10.6592 26.2511 11.5811C26.612 12.0268 27.1263 12.3045 27.6978 12.3642C28.2702 12.424 28.8313 12.2569 29.2754 11.8976L30.9142 10.5687C31.1387 10.3871 31.2638 10.3548 31.7514 10.3548C31.9347 10.3548 32.0736 10.3919 32.2318 10.484L42.0086 16.1288C42.12 16.1926 42.1991 16.2967 42.2322 16.4227C42.2661 16.5494 42.2491 16.6802 42.1854 16.7892C42.053 17.0177 41.7502 17.0976 41.5225 16.9676L38.0389 14.955C37.6401 14.7265 37.1307 14.8621 36.9006 15.2609C36.6697 15.659 36.8069 16.1692 37.2058 16.3993L39.9402 17.9784C40.0467 18.0866 40.0831 18.3514 39.966 18.5532C39.9022 18.6638 39.7981 18.743 39.6721 18.7777C39.5454 18.8116 39.4146 18.7946 39.3056 18.7308L36.0933 16.8756C35.6952 16.6455 35.185 16.7828 34.9549 17.1808C34.724 17.5796 34.8621 18.089 35.2601 18.3199L37.3123 19.5043C37.3156 19.5059 37.3172 19.5067 37.3196 19.5083C37.536 19.6455 37.607 19.9378 37.4794 20.1598C37.3487 20.3875 37.0443 20.4682 36.8166 20.3374L34.1605 18.8043C34.0798 18.7583 33.995 18.7268 33.9094 18.7099C33.8997 18.5686 33.8771 18.4257 33.84 18.2836C33.6915 17.7281 33.3354 17.2647 32.8389 16.9773C32.5136 16.7892 32.1664 16.7053 31.8168 16.7174C31.8071 16.6689 31.7983 16.6205 31.7845 16.5712C31.636 16.0158 31.2808 15.5524 30.7851 15.265C30.5057 15.1035 30.2103 15.0187 29.9115 15.0091C29.8478 14.3398 29.474 13.7084 28.8475 13.3476C28.2283 12.9907 27.5049 12.9778 26.897 13.2483C26.7234 13.0028 26.4965 12.7889 26.2188 12.629C25.1919 12.0365 23.8735 12.3893 23.2809 13.417L23.0517 13.8142C22.9168 13.4598 22.7142 13.1514 22.4341 12.8793L22.2435 12.6944L25.5818 6.91235C25.9096 7.05686 26.2495 7.12952 26.612 7.12952C26.6677 7.12387 26.7218 7.12226 26.7775 7.11903ZM22.2314 4.68654L24.2643 5.85959L20.662 12.0986L18.6291 10.9256L22.2314 4.68654ZM17.4641 50.6542H5.23472C2.34771 50.6542 0 53.0028 0 55.8898V66.0968C0 66.557 0.372986 66.93 0.833164 66.93H21.8657C22.3259 66.93 22.6989 66.557 22.6989 66.0968V55.8898C22.6989 53.0028 20.3512 50.6542 17.4641 50.6542ZM21.0325 65.2637H1.66633V55.8898C1.66633 53.9215 3.26726 52.3206 5.23472 52.3206H17.4658C19.4332 52.3206 21.0342 53.9215 21.0342 55.8898V65.2637H21.0325ZM11.3502 48.8087C15.7938 48.8087 19.4098 45.1935 19.4098 40.7499C19.4098 36.3064 15.7938 32.6904 11.3502 32.6904C6.9067 32.6904 3.29067 36.3048 3.29067 40.7499C3.29067 45.1943 6.90509 48.8087 11.3502 48.8087ZM11.3502 34.3567C14.8758 34.3567 17.7435 37.2243 17.7435 40.7499C17.7435 44.2755 14.8758 47.1424 11.3502 47.1424C7.82463 47.1424 4.957 44.2739 4.957 40.7499C4.957 37.2251 7.82463 34.3567 11.3502 34.3567ZM47.5202 40.7499C47.5202 45.1935 51.1362 48.8087 55.5798 48.8087C60.0233 48.8087 63.6393 45.1935 63.6393 40.7499C63.6393 36.3064 60.0233 32.6904 55.5798 32.6904C51.1362 32.6904 47.5202 36.3048 47.5202 40.7499ZM61.973 40.7499C61.973 44.2755 59.1054 47.1424 55.5798 47.1424C52.0542 47.1424 49.1865 44.2755 49.1865 40.7499C49.1865 37.2243 52.0542 34.3567 55.5798 34.3567C59.1054 34.3567 61.973 37.2243 61.973 40.7499ZM41.1253 39.7012C40.909 39.2435 40.7217 38.8471 40.6119 38.6057C40.4771 38.3061 40.18 38.114 39.8522 38.114C39.8457 38.114 39.8385 38.1156 39.8312 38.1156C39.8215 38.1156 39.811 38.114 39.8013 38.114H27.1464C27.1327 38.114 27.119 38.1156 27.1053 38.1172C27.0956 38.1172 27.0859 38.114 27.0762 38.114C26.7484 38.114 26.4497 38.307 26.3165 38.6057C26.2083 38.8471 26.021 39.2435 25.8022 39.7012C24.3014 42.8684 23.5877 44.5016 23.5877 45.2137C23.5877 47.1375 25.1531 48.7021 27.0762 48.7021C28.9993 48.7021 30.5639 47.1375 30.5639 45.2137C30.5639 44.5089 29.8615 42.8966 28.3857 39.7803H32.6314V50.8876H29.9212C29.4619 50.8876 29.0881 51.2614 29.0881 51.7207C29.0881 52.1809 29.4619 52.5539 29.9212 52.5539H37.0088C37.4681 52.5539 37.8419 52.1809 37.8419 51.7207C37.8419 51.2614 37.4681 50.8876 37.0088 50.8876H34.2978V39.7803H38.5419C37.0669 42.8966 36.3645 44.5089 36.3645 45.2137C36.3645 47.1375 37.9291 48.7021 39.8522 48.7021C41.7752 48.7021 43.3407 47.1375 43.3407 45.2137C43.3407 44.5016 42.6254 42.87 41.1253 39.7012ZM41.4047 44.3805H38.2997C38.6807 43.4101 39.3775 41.9133 39.8522 40.9066C40.3269 41.9133 41.0244 43.4101 41.4047 44.3805ZM27.077 40.9066C27.5525 41.9133 28.2492 43.4101 28.6295 44.3805H25.5245C25.9056 43.4101 26.6023 41.9133 27.077 40.9066ZM27.077 47.0358C26.373 47.0358 25.7627 46.6329 25.4599 46.0468H28.6965C28.3921 46.6329 27.7826 47.0358 27.077 47.0358ZM39.8522 47.0358C39.1482 47.0358 38.537 46.6329 38.2343 46.0468H41.4717C41.1673 46.6329 40.5562 47.0358 39.8522 47.0358ZM33.4646 32.0808C26.1567 32.0808 20.2107 38.0268 20.2107 45.3348C20.2107 52.6427 26.1567 58.5887 33.4646 58.5887C40.7733 58.5887 46.7193 52.6427 46.7193 45.3348C46.7193 38.0268 40.7733 32.0808 33.4646 32.0808ZM33.4646 56.9215C27.0762 56.9215 21.877 51.7223 21.877 45.3331C21.877 38.9447 27.0762 33.7455 33.4646 33.7455C39.8538 33.7455 45.053 38.9447 45.053 45.3331C45.053 51.7223 39.8538 56.9215 33.4646 56.9215ZM9.6169 25.4026C11.0152 25.6222 11.4544 26.3948 12.1802 27.672C12.2456 27.7875 12.3142 27.9053 12.382 28.0248C12.5306 28.2832 12.805 28.4414 13.1038 28.4414C13.4025 28.4414 13.6762 28.2832 13.8263 28.0248L13.8941 27.9069C14.8532 26.243 15.3853 25.443 17.0007 25.443H49.809C51.4236 25.443 51.9557 26.243 52.9148 27.9069L52.9826 28.0248C53.1311 28.2832 53.4064 28.4414 53.7051 28.4414C54.0039 28.4414 54.2767 28.2832 54.4269 28.0248C54.4963 27.9053 54.5633 27.7875 54.6287 27.672C55.3545 26.3932 55.7937 25.6222 57.192 25.4026C58.805 25.1499 60.0217 23.7282 60.0217 22.095V3.34799C60.0217 1.50244 58.5192 0 56.6737 0H10.1368C8.28965 0 6.78883 1.50244 6.78883 3.34799V22.095C6.78883 23.7282 8.00547 25.1499 9.6169 25.4026ZM8.45516 3.34799C8.45516 2.42037 9.2092 1.66633 10.1368 1.66633H56.6737C57.6013 1.66633 58.3554 2.42037 58.3554 3.34799V22.095C58.3554 22.9144 57.7442 23.6297 56.9337 23.7565C55.2035 24.0285 54.3655 24.9182 53.6938 25.9766C52.8954 24.7753 51.8523 23.7766 49.809 23.7766H17.0015C14.9574 23.7766 13.9151 24.7753 13.1167 25.9766C12.4442 24.9182 11.6086 24.0285 9.87686 23.7565C9.0663 23.6281 8.45516 22.9144 8.45516 22.095V3.34799Z" fill="black"/>
</g>
</svg>
