<svg width="67" height="85" viewBox="0 0 67 85" fill="none" xmlns="http://www.w3.org/2000/svg">
<mask id="mask0_287_455" style="mask-type:luminance" maskUnits="userSpaceOnUse" x="0" y="0" width="67" height="85">
<path d="M0 0H66.93V84.0228H0V0Z" fill="white"/>
</mask>
<g mask="url(#mask0_287_455)">
<path d="M66.1215 5.06732H59.1429V0.667486C59.1429 0.29833 58.8435 0 58.4754 0H0.704596C0.336513 0 0.0371094 0.29833 0.0371094 0.667486V78.3706C0.0371094 78.7398 0.336513 79.0392 0.704596 79.0392H7.68423V83.439C7.68423 83.8071 7.98256 84.1065 8.35171 84.1065H66.1215C66.4896 84.1065 66.789 83.8071 66.789 83.439V5.7348C66.789 5.36672 66.4896 5.06732 66.1215 5.06732ZM1.37208 1.33497H57.8079V77.7031H1.37208V1.33497ZM65.454 82.7715H9.0192V79.0392H58.4754C58.8446 79.0392 59.1429 78.7398 59.1429 78.3706V6.40229H65.454V82.7715Z" fill="black"/>
</g>
<path d="M9.01935 12.491C9.01935 12.4749 9.01076 12.4621 9.00969 12.446C9.00647 12.4009 8.99574 12.359 8.98393 12.3161C8.97106 12.2721 8.95925 12.2292 8.93779 12.1895C8.93135 12.1755 8.93135 12.1605 8.92277 12.1466L6.79046 8.61275L10.7181 7.149C11.0197 7.54499 11.4414 7.83902 11.9318 7.9839V15.2576C10.3543 15.513 9.0172 16.6569 8.56005 18.2151C8.50103 18.4169 8.54073 18.6347 8.66629 18.8032C8.79184 18.9717 8.99037 19.0715 9.20071 19.0715H15.9968C16.2072 19.0715 16.4057 18.9727 16.5313 18.8032C16.6568 18.6347 16.6965 18.4169 16.6375 18.2151C16.1803 16.6569 14.8432 15.513 13.2668 15.2576V7.9839C13.7561 7.83902 14.179 7.54499 14.4805 7.149L18.4082 8.61275L16.2758 12.1466C16.2673 12.1605 16.2673 12.1755 16.2598 12.1895C16.2394 12.2292 16.2276 12.2721 16.2147 12.3161C16.2029 12.3601 16.1911 12.4009 16.1889 12.446C16.1879 12.4621 16.1793 12.4749 16.1793 12.491C16.1793 14.2574 17.6226 15.6922 19.3954 15.6922C21.1682 15.6922 22.6116 14.2574 22.6116 12.491C22.6116 12.4749 22.603 12.4621 22.6019 12.446C22.5998 12.4009 22.588 12.359 22.5762 12.3161C22.5644 12.2721 22.5515 12.2292 22.5311 12.1895C22.5236 12.1755 22.5236 12.1605 22.515 12.1466L19.9663 7.92273C19.9513 7.89697 19.9266 7.88195 19.9084 7.85941C19.8837 7.82829 19.8601 7.79932 19.8301 7.77249C19.7861 7.73386 19.7388 7.70488 19.6873 7.6802C19.6659 7.66947 19.6508 7.65015 19.6283 7.64157L14.9495 5.89773C14.9527 5.84193 14.9656 5.79042 14.9656 5.73354C14.9656 4.43399 13.9042 3.37695 12.5993 3.37695C11.2944 3.37695 10.2331 4.43399 10.2331 5.73354C10.2331 5.79042 10.2459 5.843 10.2502 5.89773L5.57031 7.64157C5.54777 7.65015 5.53275 7.6684 5.51236 7.67913C5.46085 7.70488 5.41256 7.73386 5.36749 7.77356C5.33851 7.79932 5.31383 7.82829 5.28915 7.85834C5.27091 7.88302 5.24622 7.89805 5.2312 7.9238L2.68252 12.1466C2.67393 12.1605 2.67393 12.1766 2.66642 12.1906C2.64603 12.2303 2.63423 12.2721 2.62135 12.3161C2.60955 12.3601 2.59774 12.402 2.5956 12.447C2.59452 12.4621 2.58594 12.4749 2.58594 12.491C2.58594 14.2574 4.02822 15.6922 5.80211 15.6922C7.57599 15.6922 9.01935 14.2574 9.01935 12.491ZM19.3954 9.56032L20.7615 11.8246H18.0293L19.3954 9.56032ZM19.3954 14.3572C18.5949 14.3572 17.9091 13.8593 17.6387 13.1585H21.1521C20.8817 13.8593 20.196 14.3572 19.3954 14.3572ZM14.9366 17.7365H10.261C10.79 17.0014 11.6571 16.5367 12.5993 16.5367C13.5404 16.5367 14.4075 17.0025 14.9366 17.7365ZM12.5993 4.713C13.1681 4.713 13.6306 5.17123 13.6306 5.73462C13.6306 6.29801 13.1681 6.75624 12.5993 6.75624C12.0305 6.75624 11.568 6.29801 11.568 5.73462C11.568 5.17123 12.0305 4.713 12.5993 4.713ZM7.1682 11.8236H4.43601L5.80318 9.55925L7.1682 11.8236ZM4.04647 13.1585H7.55882C7.28839 13.8593 6.60266 14.3572 5.80211 14.3572C5.00262 14.3572 4.31689 13.8593 4.04647 13.1585Z" fill="black"/>
<path d="M29.5913 8.93605H46.5822C46.9513 8.93605 47.2497 8.63772 47.2497 8.26856C47.2497 7.90048 46.9513 7.60107 46.5822 7.60107H29.5913C29.2232 7.60107 28.9238 7.90048 28.9238 8.26856C28.9238 8.63772 29.2232 8.93605 29.5913 8.93605Z" fill="black"/>
<path d="M27.0425 14.8491H53.3792C53.7484 14.8491 54.0467 14.5497 54.0467 14.1816C54.0467 13.8125 53.7484 13.5142 53.3792 13.5142H27.0425C26.6744 13.5142 26.375 13.8125 26.375 14.1816C26.375 14.5497 26.6733 14.8491 27.0425 14.8491Z" fill="black"/>
<path d="M17.6962 23.6484H7.50147C7.13231 23.6484 6.83398 23.9478 6.83398 24.3159C6.83398 24.6851 7.13231 24.9834 7.50147 24.9834H17.6962C18.0643 24.9834 18.3637 24.6851 18.3637 24.3159C18.3637 23.9478 18.0643 23.6484 17.6962 23.6484Z" fill="black"/>
<path d="M11.082 29.3843C11.082 29.7524 11.3804 30.0518 11.7495 30.0518H51.6785C52.0466 30.0518 52.346 29.7524 52.346 29.3843C52.346 29.0162 52.0466 28.7168 51.6785 28.7168H11.7495C11.3804 28.7168 11.082 29.0151 11.082 29.3843Z" fill="black"/>
<path d="M7.50147 36.8086H51.679C52.0471 36.8086 52.3465 36.5092 52.3465 36.1411C52.3465 35.773 52.0471 35.4736 51.679 35.4736H7.50147C7.13231 35.4736 6.83398 35.773 6.83398 36.1411C6.83398 36.5092 7.13231 36.8086 7.50147 36.8086Z" fill="black"/>
<path d="M7.50147 44.4102H51.679C52.0471 44.4102 52.3465 44.1108 52.3465 43.7427C52.3465 43.3735 52.0471 43.0752 51.679 43.0752H7.50147C7.13231 43.0752 6.83398 43.3735 6.83398 43.7427C6.83398 44.1108 7.13231 44.4102 7.50147 44.4102Z" fill="black"/>
<path d="M25.3433 51.167H51.68C52.0481 51.167 52.3475 50.8676 52.3475 50.4995C52.3475 50.1304 52.0481 49.832 51.68 49.832H25.3433C24.9741 49.832 24.6758 50.1304 24.6758 50.4995C24.6758 50.8676 24.9741 51.167 25.3433 51.167Z" fill="black"/>
<path d="M26.0115 64.0132C26.0115 58.0562 21.1385 53.21 15.1483 53.21C9.15912 53.21 4.28711 58.0562 4.28711 64.0132C4.28711 69.9701 9.16019 74.8163 15.1483 74.8163C21.1385 74.8163 26.0115 69.9701 26.0115 64.0132ZM5.62208 64.0132C5.62208 58.7924 9.89636 54.5449 15.1483 54.5449C20.4023 54.5449 24.6766 58.7924 24.6766 64.0132C24.6766 69.2339 20.4023 73.4814 15.1483 73.4814C9.89636 73.4814 5.62208 69.2339 5.62208 64.0132Z" fill="black"/>
<path d="M22.6119 64.0134C22.6119 59.9194 19.2637 56.5884 15.1472 56.5884C11.0318 56.5884 7.68359 59.9194 7.68359 64.0134C7.68359 68.1073 11.0318 71.4383 15.1472 71.4383C19.2637 71.4383 22.6119 68.1073 22.6119 64.0134ZM9.01964 64.0134C9.01964 60.6555 11.769 57.9234 15.1483 57.9234C18.5276 57.9234 21.278 60.6545 21.278 64.0134C21.278 67.3712 18.5276 70.1023 15.1483 70.1023C11.769 70.1023 9.01964 67.3712 9.01964 64.0134Z" fill="black"/>
<path d="M18.1253 60.9666C17.8431 60.7305 17.4224 60.767 17.1852 61.0503L13.5087 65.4361L12.3046 63.6408C12.0986 63.335 11.6844 63.2523 11.3775 63.4584C11.0716 63.6644 10.9901 64.0786 11.195 64.3855L12.8938 66.9192C13.0108 67.0931 13.2029 67.2025 13.4132 67.2132C13.425 67.2143 13.4368 67.2143 13.4486 67.2143C13.645 67.2143 13.8328 67.1274 13.9605 66.9761L18.2079 61.9077C18.4451 61.6255 18.4075 61.2037 18.1253 60.9666Z" fill="black"/>
<path d="M53.1373 64.1066C52.3636 64.406 51.563 64.6732 50.7582 64.8997C49.8975 65.1411 49.0208 65.3407 48.1365 65.4942C48.2138 65.2989 48.2793 65.0993 48.3319 64.8954C48.5025 64.2354 48.7364 63.3318 48.2031 62.6794C47.6601 62.0151 46.5934 61.9443 45.0331 62.469C43.8698 62.8596 42.8954 63.5153 42.1141 64.2C42.1453 63.6098 42.0444 63.0399 41.6602 62.6396C40.821 61.764 39.2564 62.2222 36.8386 63.3071C34.3146 64.4382 31.8185 65.8247 29.4212 67.428C29.1153 67.6329 29.0327 68.0471 29.2377 68.3541C29.3664 68.5472 29.5778 68.6502 29.7935 68.6502C29.9202 68.6502 30.05 68.6138 30.1638 68.5376C32.4989 66.9762 34.9295 65.6262 37.3859 64.5251C40.1321 63.2932 40.6139 63.4799 40.6976 63.5647C40.7094 63.5765 40.9702 63.8705 40.5377 65.3557C40.3682 65.9374 40.0741 66.3752 39.9153 66.6102C39.529 67.1844 39.7254 67.5192 39.9582 67.6995C40.0999 67.8078 40.2834 67.8561 40.4626 67.8314C40.7674 67.7896 40.8994 67.6115 41.1612 67.2584C41.7214 66.5018 43.212 64.4908 45.458 63.7342C46.6417 63.3372 47.1149 63.4713 47.1675 63.525C47.2695 63.6666 47.0956 64.3406 47.0387 64.5627C46.91 65.0596 46.6771 65.5242 46.3476 65.9417C46.1802 66.1541 46.1577 66.4471 46.2897 66.6821C46.4217 66.9182 46.6825 67.0502 46.9518 67.018C48.3576 66.8474 49.7591 66.5673 51.1198 66.1842C51.9655 65.947 52.8068 65.6659 53.6202 65.3504C53.9636 65.2173 54.1343 64.831 54.0012 64.4865C53.8681 64.1442 53.4818 63.9735 53.1373 64.1066Z" fill="black"/>
<path d="M50.7629 69.2609L33.772 70.95C33.405 70.9876 33.1368 71.3138 33.1732 71.6808C33.2076 72.0253 33.4984 72.2818 33.8375 72.2818C33.859 72.2818 33.8815 72.2818 33.904 72.2785L50.8949 70.5894C51.2619 70.5529 51.5302 70.2267 51.4937 69.8586C51.4572 69.4916 51.1321 69.2201 50.7629 69.2609Z" fill="black"/>
</svg>
