<svg width="67" height="71" viewBox="0 0 67 71" fill="none" xmlns="http://www.w3.org/2000/svg">
<mask id="mask0_287_510" style="mask-type:luminance" maskUnits="userSpaceOnUse" x="0" y="0" width="67" height="71">
<path d="M0 0H66.93V70.4341H0V0Z" fill="white"/>
</mask>
<g mask="url(#mask0_287_510)">
<path fill-rule="evenodd" clip-rule="evenodd" d="M20.7965 64.716H46.0664C49.4627 64.716 52.4089 66.2244 53.2085 68.1942H13.6544C14.4549 66.2244 17.401 64.716 20.7965 64.716ZM25.6711 60.2882H41.1926C42.6742 60.2882 43.9344 61.2516 44.3813 62.5848H22.4824C22.9293 61.2516 24.1895 60.2882 25.6711 60.2882ZM62.7712 68.1942H55.4369C55.115 66.7483 54.1386 65.4313 52.6059 64.4111C50.9621 63.3171 48.8399 62.6789 46.583 62.5962C46.09 60.0693 43.8607 58.1571 41.1926 58.1571H25.6711C23.0031 58.1571 20.7738 60.0693 20.2807 62.5962C18.023 62.6797 15.9008 63.3171 14.2578 64.4111C12.7251 65.4313 11.7487 66.7483 11.4268 68.1942H4.09255C3.5038 68.1942 3.02697 68.671 3.02697 69.259C3.02697 69.8477 3.5038 70.3253 4.09255 70.3253H62.7712C63.3591 70.3253 63.8367 69.8469 63.8367 69.259C63.8367 68.671 63.3591 68.1942 62.7712 68.1942ZM64.2836 31.3998C63.6705 32.0064 62.6341 32.0064 62.021 31.3998L37.4809 7.1476C35.2484 4.94101 31.6145 4.94182 29.382 7.1476L4.84187 31.3998C3.87684 32.3535 2.13168 31.7226 2.13168 30.3253C2.13168 29.9198 2.29144 29.5371 2.58013 29.2516L27.6474 4.47877C30.8149 1.34445 35.9717 1.34445 39.1434 4.47147L64.286 29.2541C64.8837 29.8428 64.8804 30.8095 64.2836 31.3998ZM52.4137 48.54V24.9017L35.9831 8.66408C34.5761 7.27249 32.2868 7.27249 30.8798 8.66408L14.4492 24.9017V50.7231C14.4492 52.4829 15.9048 53.9166 17.6938 53.9166H47.321L37.0892 43.6841L35.6368 45.1357L36.4234 45.9231C37.3601 46.8589 37.3601 48.3835 36.4234 49.321L34.5875 51.1578C33.6508 52.0936 32.1254 52.0944 31.1888 51.1578L18.7894 38.7576C17.8519 37.8209 17.8519 36.2963 18.7886 35.3589L20.6254 33.5237C21.0779 33.0696 21.6812 32.8206 22.3243 32.8206C23.5075 32.8206 24.0386 33.5383 24.8099 34.3087L32.9485 26.17L32.1627 25.385C31.2253 24.4476 31.2253 22.923 32.1619 21.9847L33.9987 20.1495C34.9345 19.2129 36.4607 19.2129 37.3974 20.1495L49.7968 32.5489C50.7334 33.4864 50.7334 35.011 49.7968 35.9468L47.9608 37.7844C47.4921 38.2531 46.8766 38.4867 46.2611 38.4867C45.0787 38.4867 44.5402 37.7625 43.7755 36.9986L42.3239 38.4502L52.4137 48.54ZM53.8718 57.454C48.7799 52.362 43.6879 47.2701 38.596 42.1781L40.818 39.9561L56.0938 55.2214L53.8718 57.454ZM33.6687 23.8775L46.0689 36.2769C46.1735 36.3815 46.3495 36.3815 46.4541 36.2769L48.2901 34.4409C48.3939 34.3371 48.3947 34.1611 48.2901 34.0565L35.8907 21.6571C35.786 21.5525 35.6101 21.5525 35.5055 21.6571L33.6695 23.4923C33.5649 23.5969 33.5649 23.7745 33.6687 23.8775ZM26.3166 35.8162L34.1309 43.6297L42.2688 35.4911L34.4553 27.6776L26.3166 35.8162ZM34.9167 47.4282C35.0213 47.5336 35.0213 47.7104 34.9167 47.8134L33.0799 49.6502C32.9761 49.7548 32.8001 49.7548 32.6955 49.6502L20.2961 37.2508C20.1915 37.1462 20.1915 36.9702 20.2961 36.8656L22.1321 35.0288C22.2359 34.9258 22.4135 34.9258 22.5173 35.0288L34.9167 47.4282ZM65.7814 27.736C66.4788 28.4236 66.8624 29.3416 66.8632 30.3213C66.8656 33.6032 62.8425 35.2097 60.5232 32.9155L54.5449 27.0069V50.6704L57.5997 53.7244C58.4277 54.5532 58.4285 55.8994 57.5997 56.7266L55.3664 58.9599C54.5384 59.7887 53.193 59.7887 52.3651 58.9599L49.4448 56.0405C49.354 56.0445 49.2624 56.047 49.1699 56.047H17.6938C14.7298 56.047 12.3188 53.6587 12.3188 50.7231V27.0069L6.33969 32.9155C4.89053 34.3492 2.53148 34.3492 1.08231 32.9155C-0.361176 31.4882 -0.360365 29.1616 1.08231 27.736L26.1495 2.96068C30.1418 -0.980534 36.6416 -0.990265 40.6396 2.95175L65.7814 27.736Z" fill="black"/>
</g>
</svg>
