<svg width="68" height="66" viewBox="0 0 68 66" fill="none" xmlns="http://www.w3.org/2000/svg">
<mask id="mask0_287_575" style="mask-type:luminance" maskUnits="userSpaceOnUse" x="0" y="0" width="68" height="66">
<path d="M0.848633 0H67.7486V65.8074H0.848633V0Z" fill="white"/>
</mask>
<g mask="url(#mask0_287_575)">
<path fill-rule="evenodd" clip-rule="evenodd" d="M22.4713 46.5654C22.0485 46.5654 21.7055 46.2224 21.7055 45.7996C21.7055 45.3759 22.0485 45.033 22.4713 45.033H30.1722C30.5951 45.033 30.938 45.3759 30.938 45.7996C30.938 46.2224 30.5951 46.5654 30.1722 46.5654H22.4713ZM22.4713 51.3547C22.0485 51.3547 21.7055 51.0118 21.7055 50.5889C21.7055 50.1661 22.0485 49.8231 22.4713 49.8231H31.2834C31.7063 49.8231 32.0492 50.1661 32.0492 50.5889C32.0492 51.0118 31.7063 51.3547 31.2834 51.3547H22.4713ZM22.4713 32.8276C22.0485 32.8276 21.7055 32.4846 21.7055 32.0618C21.7055 31.6389 22.0485 31.296 22.4713 31.296H39.9906C40.4134 31.296 40.7564 31.6389 40.7564 32.0618C40.7564 32.4846 40.4134 32.8276 39.9906 32.8276H22.4713ZM22.4713 37.6169C22.0485 37.6169 21.7055 37.274 21.7055 36.8511C21.7055 36.4283 22.0485 36.0853 22.4713 36.0853H37.8731C38.2959 36.0853 38.6389 36.4283 38.6389 36.8511C38.6389 37.274 38.2959 37.6169 37.8731 37.6169H22.4713ZM53.308 30.9603C53.8285 31.1709 54.3635 31.3581 54.9106 31.5187C55.0599 31.5631 55.2124 31.559 55.3512 31.5155C59.0132 30.4374 62.1087 28.1956 64.2892 25.2711C66.4777 22.3362 67.7478 18.7121 67.7478 14.8855V7.09825C67.7478 6.7222 67.4775 6.4099 67.1208 6.34454L55.3351 2.94802C55.189 2.90686 55.0413 2.91009 54.9058 2.95124L49.027 4.64507V2.54776C49.027 1.85215 48.7429 1.21949 48.2846 0.761941C47.827 0.304391 47.1952 0.0195312 46.4996 0.0195312H8.60036V0.0227591C8.38006 0.0227591 8.16218 0.117981 8.01127 0.301163L1.06732 8.7146L1.06087 8.72106L1.06006 8.72267C1.04715 8.73558 1.03504 8.7493 1.02294 8.76383C1.01567 8.7727 1.00922 8.78077 1.00276 8.79046L1.00034 8.79288L0.991466 8.80498L0.989852 8.8074L0.989045 8.80821L0.980975 8.81951L0.979361 8.82274L0.978555 8.82354L0.971292 8.83484L0.968871 8.83807L0.968064 8.83888L0.961608 8.85017L0.959187 8.8534L0.956766 8.85824L0.951925 8.86551L0.949504 8.86954L0.948697 8.87115L0.940627 8.88568C0.934978 8.89617 0.930137 8.90666 0.925295 8.91715L0.923681 8.91877L0.922067 8.9228L0.915611 8.93571L0.909155 8.95104L0.906734 8.95589L0.901893 8.9688L0.901086 8.97122L0.895437 8.98574L0.89463 8.98736L0.893823 8.99059C0.888174 9.00673 0.882525 9.02367 0.877684 9.03981V9.04142L0.876877 9.04385L0.872842 9.05918V9.05998L0.872035 9.0616L0.868 9.07855L0.867193 9.08016L0.863965 9.09549V9.0963L0.863158 9.09872L0.85993 9.11486V9.11567V9.11728L0.856702 9.13423V9.13584L0.854282 9.15359V9.1544L0.852668 9.17054L0.851861 9.17296V9.17377V9.17457L0.850247 9.19233V9.19313L0.84944 9.21169L0.848633 9.23106V58.0356C0.848633 58.732 1.13269 59.3639 1.59024 59.8214C2.04779 60.2798 2.68045 60.5639 3.37605 60.5639H5.12879V63.247C5.12879 63.9426 5.41365 64.5753 5.8712 65.0328C6.32875 65.4904 6.96141 65.7744 7.65702 65.7744H50.7805C51.4761 65.7744 52.1088 65.4904 52.5664 65.0328C53.0239 64.5753 53.308 63.9426 53.308 63.247V55.668L56.8739 58.6013C57.0063 58.7103 57.1144 58.8321 57.1992 58.9709C57.2847 59.1089 57.3452 59.2606 57.3831 59.4309C57.4703 59.8158 57.6204 60.1886 57.8326 60.534C58.036 60.8649 58.2974 61.1675 58.6138 61.4281C59.3909 62.0672 60.356 62.3279 61.2872 62.2327C62.2153 62.1366 63.1118 61.6872 63.755 60.9044C64.3973 60.1233 64.666 59.1581 64.5805 58.2293C64.4949 57.2956 64.0535 56.3983 63.2764 55.7592C62.9601 55.4993 62.6115 55.3016 62.2467 55.1652C61.8691 55.024 61.4745 54.949 61.0799 54.9377C60.9007 54.9328 60.7393 54.903 60.5916 54.8481C60.444 54.7932 60.3036 54.7093 60.1672 54.5971L53.308 48.9548V44.3817L55.1317 42.1642C55.3343 41.9181 55.4182 41.613 55.3899 41.3201C55.3609 41.0248 55.2197 40.7399 54.9735 40.5374L53.308 39.1671V30.9603ZM9.5784 1.55196V7.48963C9.5784 8.18523 9.29435 8.81789 8.83599 9.27545C8.37844 9.733 7.74659 10.017 7.05018 10.017H2.38026V58.0356C2.38026 58.3092 2.49243 58.5577 2.67319 58.7385C2.85475 58.9193 3.1033 59.0314 3.37605 59.0314H46.4996C46.7723 59.0314 47.0217 58.9193 47.2024 58.7385C47.3832 58.5577 47.4954 58.3092 47.4954 58.0356V50.9327C47.4647 50.9174 47.434 50.9028 47.4034 50.8899C47.2718 50.8359 47.1314 50.8012 46.9773 50.7858C46.8006 50.7673 46.6255 50.7406 46.452 50.7043L46.4366 50.7011L45.7951 51.4806L46.0864 51.7195C46.3325 51.9229 46.4738 52.2077 46.5028 52.5031C46.531 52.796 46.4471 53.101 46.2446 53.3472L44.0496 56.0158C43.8471 56.2619 43.5622 56.4031 43.2669 56.4322C42.9739 56.4604 42.6689 56.3765 42.422 56.174L32.6867 48.1656C32.4398 47.9631 32.2986 47.6782 32.2703 47.3821C32.2421 47.0891 32.3252 46.7841 32.5277 46.538L34.7227 43.8693C34.9252 43.6232 35.2101 43.482 35.5063 43.4537C35.7992 43.4247 36.1042 43.5086 36.3503 43.7112L36.6409 43.9508L42.05 37.3749L41.573 36.9827C41.3269 36.7801 41.1857 36.4953 41.1575 36.1999C41.1284 35.907 41.2123 35.6011 41.4149 35.355L43.651 32.6363L43.6574 32.6299L43.659 32.6315C43.8568 32.4193 44.1206 32.2974 44.3926 32.2708C44.6855 32.2417 44.9905 32.3257 45.2375 32.5282L47.4946 34.3858V27.0602C46.9442 26.4985 46.4318 25.9006 45.9621 25.2711C43.7736 22.3354 42.5035 18.7121 42.5035 14.8855V7.09825H42.5067C42.5067 6.76578 42.7246 6.46074 43.0595 6.36471L47.4946 5.08648V2.54776C47.4946 2.275 47.3824 2.02565 47.2016 1.84489C47.0209 1.66413 46.7723 1.55196 46.4996 1.55196H9.5784ZM50.4061 18.0125C50.0736 17.7518 50.0163 17.2709 50.277 16.9384C50.5384 16.6059 51.0194 16.5486 51.3511 16.8101L54.2457 19.0857L58.7953 13.83C59.0713 13.5112 59.5539 13.4765 59.8726 13.7525C60.1922 14.0285 60.2269 14.511 59.9509 14.8298L54.9517 20.6037L54.9469 20.6101C54.6855 20.9426 54.2045 20.9999 53.8728 20.7392L50.4061 18.0125ZM33.9424 47.2215L35.6668 45.125L44.8308 52.6637L43.1063 54.7602L33.9424 47.2215ZM50.026 43.9355L44.6169 50.5107L37.8206 44.92L43.2289 38.3448L50.026 43.9355ZM22.4713 19.0906C22.0485 19.0906 21.7055 18.7476 21.7055 18.324C21.7055 17.9011 22.0485 17.5582 22.4713 17.5582H39.9906C40.4134 17.5582 40.7564 17.9011 40.7564 18.324C40.7564 18.7476 40.4134 19.0906 39.9906 19.0906H22.4713ZM22.4713 23.8799C22.0485 23.8799 21.7055 23.537 21.7055 23.1141C21.7055 22.6905 22.0485 22.3475 22.4713 22.3475H41.6069C42.0298 22.3475 42.3727 22.6905 42.3727 23.1141C42.3727 23.537 42.0298 23.8799 41.6069 23.8799H22.4713ZM17.2736 16.4276V17.5307L13.4696 21.2387L10.7985 19.1382C10.408 18.8316 9.84148 18.8993 9.53483 19.2899C9.22737 19.6805 9.29516 20.2462 9.68654 20.5536L12.9757 23.1408C13.3486 23.4329 13.8803 23.3853 14.1951 23.0415L17.2736 20.0404V25.0105H8.69155V16.4276H17.2736ZM52.108 49.945L59.1972 55.7761C59.4651 55.9964 59.75 56.1627 60.0582 56.2781C60.3657 56.3926 60.6901 56.454 61.0371 56.4637C61.2663 56.4701 61.4954 56.5137 61.7133 56.5952C61.9231 56.6735 62.1233 56.7873 62.3064 56.9382C62.7559 57.3077 63.0109 57.8266 63.061 58.3665C63.111 58.9112 62.9528 59.4769 62.576 59.9352C62.1991 60.3928 61.6746 60.6567 61.1315 60.7123C60.59 60.768 60.0316 60.6179 59.5829 60.2491C59.3998 60.0982 59.2488 59.9231 59.131 59.7319C59.01 59.535 58.9236 59.3195 58.8728 59.0952C58.7953 58.7522 58.6735 58.4448 58.504 58.1688C58.3346 57.8928 58.1151 57.6459 57.8431 57.4223L53.0772 53.5021C53.0457 53.4714 53.0118 53.4432 52.9755 53.4182L48.797 49.9805C48.7631 49.9482 48.7268 49.9183 48.6881 49.8917C48.4653 49.7166 48.2354 49.5794 47.99 49.4777C47.8512 49.4196 47.7076 49.3736 47.5583 49.3381L49.282 47.2424C49.3466 47.3821 49.42 47.5144 49.5039 47.6403C49.6653 47.8824 49.8622 48.097 50.1011 48.2931L52.0071 49.8611C52.0386 49.8917 52.0725 49.92 52.1088 49.945H52.108ZM52.1088 40.1573L53.7179 41.4807L51.9942 43.5764L51.9934 43.5772L42.8295 36.0385L44.554 33.942L47.7593 36.5792C47.7697 36.5881 47.7802 36.5969 47.7907 36.605L52.0063 40.0733C52.0378 40.104 52.0725 40.1323 52.1088 40.1573ZM55.1261 29.9871C54.3619 29.7506 53.6259 29.4577 52.9206 29.1147C52.8932 29.0986 52.8649 29.0849 52.8359 29.0728C51.3406 28.3336 49.9889 27.3644 48.8188 26.2193C48.8051 26.2048 48.7906 26.1911 48.776 26.1774C48.2015 25.6109 47.6713 25.0016 47.1895 24.356C45.1939 21.6793 44.0359 18.3748 44.0359 14.8855V7.67119L48.4 6.41313C48.4508 6.40426 48.4992 6.38973 48.5452 6.37117L55.1261 4.4748L66.2162 7.67119V14.8855C66.2162 18.3748 65.0582 21.6793 63.0626 24.356C61.1138 26.969 58.3684 28.9832 55.1261 29.9871ZM17.2736 30.1654V31.2685L13.4696 34.9765L10.7985 32.876C10.408 32.5686 9.84148 32.6363 9.53483 33.0277C9.22737 33.4183 9.29516 33.984 9.68654 34.2914L12.9757 36.8778C13.3486 37.1707 13.8803 37.1231 14.1951 36.7793L17.2736 33.7782V38.7475H8.69155V30.1654H17.2736ZM17.2736 43.9032V45.0055L13.4696 48.7135L10.7985 46.6138C10.408 46.3064 9.84148 46.3741 9.53483 46.7647C9.22737 47.1553 9.29516 47.7218 9.68654 48.0284L12.9757 50.6156C13.3486 50.9085 13.8803 50.8601 14.1951 50.5171L17.2736 47.516V52.4853H8.69155V43.9032H17.2736Z" fill="black"/>
</g>
</svg>
