<svg width="67" height="88" viewBox="0 0 67 88" fill="none" xmlns="http://www.w3.org/2000/svg">
<path d="M18.4411 52.5166H59.3633C60.1139 52.5166 60.7272 51.9025 60.7272 51.1527C60.7272 50.4021 60.1139 49.7888 59.3633 49.7888H18.4411C17.6913 49.7888 17.0771 50.4021 17.0771 51.1527C17.0771 51.9025 17.6913 52.5166 18.4411 52.5166Z" fill="#002B5A"/>
<path d="M17.0771 40.2399C17.0771 40.9905 17.6913 41.6038 18.4411 41.6038H59.3633C60.1139 41.6038 60.7272 40.9905 60.7272 40.2399C60.7272 39.4901 60.1139 38.876 59.3633 38.876H18.4411C17.6913 38.876 17.0771 39.4901 17.0771 40.2399Z" fill="#002B5A"/>
<path d="M18.4411 47.0603H59.3633C60.1139 47.0603 60.7272 46.447 60.7272 45.6964C60.7272 44.9458 60.1139 44.3325 59.3633 44.3325H18.4411C17.6913 44.3325 17.0771 44.9458 17.0771 45.6964C17.0771 46.447 17.6913 47.0603 18.4411 47.0603Z" fill="#002B5A"/>
<path d="M58.682 35.4659C59.4318 35.4659 60.0459 34.8517 60.0459 34.102V18.4149C60.0459 17.6643 59.4318 17.051 58.682 17.051H19.1237C18.3731 17.051 17.7598 17.6643 17.7598 18.4149V34.102C17.7598 34.8517 18.3731 35.4659 19.1237 35.4659H58.682ZM20.4876 19.7788H57.3173V32.7381H20.4876V19.7788Z" fill="#002B5A"/>
<mask id="mask0_196_1217" style="mask-type:luminance" maskUnits="userSpaceOnUse" x="10" y="0" width="57" height="88">
<path d="M10.7285 0H66.9301V87.301H10.7285V0Z" fill="white"/>
</mask>
<g mask="url(#mask0_196_1217)">
<path d="M11.62 81.8445C11.4153 81.8445 11.1423 81.8445 10.9385 81.7763V83.2084C10.9385 85.4594 12.78 87.301 15.0302 87.301H62.7728C65.0238 87.301 66.8654 85.4594 66.8654 83.2084V15.0047C66.8654 12.7537 65.0238 10.9121 62.7728 10.9121H55.2709V6.82038C55.2709 6.06976 54.6568 5.45647 53.9062 5.45647H45.5854C44.9721 2.31839 42.1752 0 38.9015 0C35.6278 0 32.8317 2.31839 32.2176 5.45647H23.8969C23.1462 5.45647 22.5329 6.06976 22.5329 6.82038V10.9121H15.0302C12.78 10.9121 10.9385 12.7537 10.9385 15.0047V53.2673C11.1423 53.2673 11.4153 53.1991 11.62 53.1991C12.3024 53.1991 12.9839 53.2673 13.6663 53.3347V15.0047C13.6663 14.254 14.2804 13.6408 15.0302 13.6408H62.7728C63.5234 13.6408 64.1367 14.254 64.1367 15.0047V83.2084C64.1367 83.959 63.5234 84.5723 62.7728 84.5723H15.0302C14.2804 84.5723 13.6663 83.959 13.6663 83.2084V81.708C12.9839 81.7763 12.3024 81.8445 11.62 81.8445ZM52.5423 10.9121H25.2608V8.18428H33.445C34.1957 8.18428 34.8098 7.57015 34.8098 6.82038C34.8098 4.56938 36.6514 2.72781 38.9015 2.72781C41.1525 2.72781 42.9941 4.56938 42.9941 6.82038C42.9941 7.57015 43.6074 8.18428 44.358 8.18428H52.5423V10.9121Z" fill="#002B5A"/>
</g>
<path d="M40.948 63.4296C41.6986 63.4296 42.3119 62.8154 42.3119 62.0648C42.3119 61.3151 41.6986 60.7009 40.948 60.7009H24.2383C24.7159 61.588 25.0563 62.4743 25.3975 63.4296H40.948Z" fill="#002B5A"/>
<path d="M22.26 57.9733H59.3627C60.1133 57.9733 60.7266 57.3591 60.7266 56.6094C60.7266 55.8588 60.1133 55.2446 59.3627 55.2446H18.9863C20.2138 55.9952 21.3056 56.8815 22.26 57.9733Z" fill="#002B5A"/>
<mask id="mask1_196_1217" style="mask-type:luminance" maskUnits="userSpaceOnUse" x="0" y="55" width="24" height="25">
<path d="M0 55.8655H23.237V79.1572H0V55.8655Z" fill="white"/>
</mask>
<g mask="url(#mask1_196_1217)">
<path d="M11.6199 79.1157C18.0308 79.1157 23.2143 73.9322 23.2143 67.5212C23.2143 61.1103 18.0308 55.9268 11.6199 55.9268C5.20891 55.9268 0.0253906 61.1103 0.0253906 67.5212C0.0253906 73.9322 5.20891 79.1157 11.6199 79.1157ZM11.6199 58.6546C16.5304 58.6546 20.4865 62.6107 20.4865 67.5212C20.4865 72.4318 16.5304 76.3879 11.6199 76.3879C6.70929 76.3879 2.7532 72.4318 2.7532 67.5212C2.7532 62.6107 6.70929 58.6546 11.6199 58.6546Z" fill="#002B5A"/>
</g>
<path d="M6.02755 69.1582L8.96092 71.3409C9.23387 71.5456 9.50598 71.6139 9.77893 71.6139C10.1201 71.6139 10.5295 71.4774 10.7343 71.2045L15.986 65.748C16.5311 65.2029 16.4628 64.3158 15.9178 63.8382C15.3719 63.2931 14.4856 63.3614 14.008 63.9064L9.57421 68.4766L7.59701 67.0437C6.98287 66.5668 6.16403 66.7033 5.68721 67.3166C5.27778 67.8625 5.41426 68.6805 6.02755 69.1582Z" fill="#002B5A"/>
<path d="M53.9072 66.8398C49.7472 66.8398 46.4053 70.1818 46.4053 74.3418C46.4053 78.5026 49.7472 81.8445 53.9072 81.8445C58.068 81.8445 61.4099 78.5026 61.4099 74.3418C61.4099 70.1818 58.068 66.8398 53.9072 66.8398ZM53.9072 79.1158C51.2476 79.1158 49.1331 77.0022 49.1331 74.3418C49.1331 71.6822 51.2476 69.5677 53.9072 69.5677C56.5676 69.5677 58.6821 71.6822 58.6821 74.3418C58.6821 77.0022 56.5676 79.1158 53.9072 79.1158Z" fill="#002B5A"/>
<mask id="mask2_196_1217" style="mask-type:luminance" maskUnits="userSpaceOnUse" x="33" y="20" width="13" height="14">
<path d="M33.4463 20.8755H45.895V33.1624H33.4463V20.8755Z" fill="white"/>
</mask>
<g mask="url(#mask2_196_1217)">
<path d="M37.7469 26.344H40.7856C40.88 26.344 40.9558 26.2681 40.9558 26.1738V25.2404C40.9558 25.146 40.88 25.0694 40.7856 25.0694H37.7469C37.6534 25.0694 37.5768 25.146 37.5768 25.2404V26.1738C37.5768 26.2681 37.6534 26.344 37.7469 26.344ZM37.9179 25.4105H40.6154V26.0036H37.9179V25.4105ZM37.7469 28.1594H40.7856C40.88 28.1594 40.9558 28.0827 40.9558 27.9892V27.055C40.9558 26.9606 40.88 26.8848 40.7856 26.8848H37.7469C37.6534 26.8848 37.5768 26.9606 37.5768 27.055V27.9892C37.5768 28.0827 37.6534 28.1594 37.7469 28.1594ZM37.9179 27.226H40.6154V27.8182H37.9179V27.226ZM34.7849 26.4627C34.7849 26.3692 34.8607 26.2926 34.9551 26.2926H36.2904C36.3847 26.2926 36.4605 26.3692 36.4605 26.4627C36.4605 26.5571 36.3847 26.6338 36.2904 26.6338H34.9551C34.8607 26.6338 34.7849 26.5571 34.7849 26.4627ZM36.4605 27.3835C36.4605 27.4779 36.3847 27.5537 36.2904 27.5537H34.9551C34.8607 27.5537 34.7849 27.4779 34.7849 27.3835C34.7849 27.2892 34.8607 27.2134 34.9551 27.2134H36.2904C36.3847 27.2134 36.4605 27.2892 36.4605 27.3835ZM36.4605 28.3043C36.4605 28.3987 36.3847 28.4745 36.2904 28.4745H34.9551C34.8607 28.4745 34.7849 28.3987 34.7849 28.3043C34.7849 28.21 34.8607 28.1341 34.9551 28.1341H36.2904C36.3847 28.1341 36.4605 28.21 36.4605 28.3043ZM36.4605 29.2251C36.4605 29.3186 36.3847 29.3953 36.2904 29.3953H34.9551C34.8607 29.3953 34.7849 29.3186 34.7849 29.2251C34.7849 29.1307 34.8607 29.0541 34.9551 29.0541H36.2904C36.3847 29.0541 36.4605 29.1307 36.4605 29.2251ZM42.0712 27.3835C42.0712 27.2892 42.1478 27.2134 42.2422 27.2134H43.5774C43.671 27.2134 43.7476 27.2892 43.7476 27.3835C43.7476 27.4779 43.671 27.5537 43.5774 27.5537H42.2422C42.1478 27.5537 42.0712 27.4779 42.0712 27.3835ZM43.7476 28.3043C43.7476 28.3987 43.671 28.4745 43.5774 28.4745H42.2422C42.1478 28.4745 42.0712 28.3987 42.0712 28.3043C42.0712 28.21 42.1478 28.1341 42.2422 28.1341H43.5774C43.671 28.1341 43.7476 28.21 43.7476 28.3043ZM43.7476 29.2251C43.7476 29.3186 43.671 29.3953 43.5774 29.3953H42.2422C42.1478 29.3953 42.0712 29.3186 42.0712 29.2251C42.0712 29.1307 42.1478 29.0541 42.2422 29.0541H43.5774C43.671 29.0541 43.7476 29.1307 43.7476 29.2251ZM45.2151 24.9143C45.7113 24.098 45.9439 23.1671 45.9076 22.1469C45.9059 22.1031 45.8883 22.0618 45.8571 22.0315C45.1553 21.3357 44.2177 20.949 43.0695 20.8816C43.0627 20.8816 43.056 20.8816 43.0501 20.8816C41.9018 20.949 40.9634 21.3357 40.2616 22.0315C40.2313 22.0618 40.2136 22.1031 40.2119 22.1469C40.1993 22.4839 40.217 22.8116 40.2641 23.1292H37.7469C37.6534 23.1292 37.5768 23.2059 37.5768 23.2994V23.8722H36.9913C36.8969 23.8722 36.8203 23.9489 36.8203 24.0424V25.0828H34.255C34.1607 25.0828 34.084 25.1595 34.084 25.253V31.9748H33.6173C33.523 31.9748 33.4463 32.0515 33.4463 32.145V33.0068C33.4463 33.1003 33.523 33.177 33.6173 33.177H44.9152C45.0096 33.177 45.0854 33.1003 45.0854 33.0068V32.145C45.0854 32.0515 45.0096 31.9748 44.9152 31.9748H44.4477V25.8924C44.7501 25.5841 45.0045 25.2589 45.2151 24.9143ZM40.5506 22.227C41.1841 21.6221 42.0274 21.2851 43.0593 21.2228C44.0913 21.2851 44.9355 21.6221 45.569 22.227C45.6111 24.0062 44.7897 25.4341 43.0593 26.5866C41.3298 25.4341 40.5084 24.0062 40.5506 22.227ZM37.9179 23.4704H40.3265C40.356 23.606 40.3913 23.7408 40.4326 23.8722H37.9179V23.4704ZM37.1614 24.2134H40.5539C40.6508 24.4552 40.7679 24.6894 40.9044 24.9143C41.0409 25.1384 41.1959 25.3541 41.3711 25.5622V31.9748H40.9566V29.7179C40.9566 29.6244 40.88 29.5477 40.7856 29.5477H37.7469C37.6534 29.5477 37.5768 29.6244 37.5768 29.7179V31.9748H37.1614V24.2134ZM37.9179 31.9748V29.8889H40.6154V31.9748H37.9179ZM34.4252 25.424H36.8203V31.9748H34.4252V25.424ZM44.7451 32.8358H33.7875V32.316H44.7451V32.8358ZM41.7114 31.9748V25.9337C42.0644 26.2875 42.4806 26.6186 42.9667 26.9337C42.9953 26.9522 43.0273 26.9615 43.0593 26.9615C43.0922 26.9615 43.1242 26.9522 43.152 26.9337C43.5067 26.7037 43.8243 26.4653 44.1073 26.2159V31.9748H41.7114ZM42.9608 26.1047C42.9903 26.1258 43.0248 26.1367 43.0593 26.1367C43.0947 26.1367 43.1293 26.1258 43.1588 26.1047C43.8824 25.5874 44.4199 25.002 44.756 24.3651C45.0526 23.8023 45.2067 23.173 45.2135 22.4957C45.2143 22.4452 45.1924 22.3971 45.1536 22.3643C44.6077 21.8976 43.9262 21.644 43.0703 21.5884C43.0636 21.5884 43.056 21.5884 43.0484 21.5884C42.1925 21.644 41.5109 21.8976 40.965 22.3643C40.9271 22.3971 40.9052 22.4452 40.9061 22.4957C40.9128 23.1747 41.0661 23.804 41.3627 24.3651C41.698 25.0011 42.2354 25.5866 42.9608 26.1047ZM41.2481 22.5724C41.7232 22.1891 42.3172 21.9793 43.0593 21.9296C43.8015 21.9793 44.3955 22.1899 44.8706 22.5724C44.8537 23.1646 44.7139 23.7139 44.4544 24.2059C44.1545 24.7745 43.6971 25.2825 43.0593 25.7551C42.4208 25.2816 41.9642 24.7745 41.6643 24.2059C41.4048 23.7147 41.265 23.1654 41.2481 22.5724ZM42.66 24.4763L41.9296 23.6086C41.869 23.537 41.8782 23.4291 41.9499 23.3685C42.0215 23.3078 42.1293 23.3171 42.19 23.3895L42.7898 24.1014L43.9287 22.7324C43.9886 22.66 44.0964 22.6499 44.1688 22.7105C44.2413 22.7703 44.2506 22.8782 44.1907 22.9506L42.9212 24.4754C42.8892 24.5142 42.8412 24.5369 42.7906 24.5369C42.7401 24.5369 42.6929 24.515 42.66 24.4763Z" fill="#002B5A"/>
</g>
<path d="M18.4411 52.5166H59.3633C60.1139 52.5166 60.7272 51.9025 60.7272 51.1527C60.7272 50.4021 60.1139 49.7888 59.3633 49.7888H18.4411C17.6913 49.7888 17.0771 50.4021 17.0771 51.1527C17.0771 51.9025 17.6913 52.5166 18.4411 52.5166Z" fill="#002B5A"/>
<path d="M17.0771 40.2399C17.0771 40.9905 17.6913 41.6038 18.4411 41.6038H59.3633C60.1139 41.6038 60.7272 40.9905 60.7272 40.2399C60.7272 39.4901 60.1139 38.876 59.3633 38.876H18.4411C17.6913 38.876 17.0771 39.4901 17.0771 40.2399Z" fill="#002B5A"/>
<path d="M18.4411 47.0603H59.3633C60.1139 47.0603 60.7272 46.447 60.7272 45.6964C60.7272 44.9458 60.1139 44.3325 59.3633 44.3325H18.4411C17.6913 44.3325 17.0771 44.9458 17.0771 45.6964C17.0771 46.447 17.6913 47.0603 18.4411 47.0603Z" fill="#002B5A"/>
<path d="M58.682 35.4659C59.4318 35.4659 60.0459 34.8517 60.0459 34.102V18.4149C60.0459 17.6643 59.4318 17.051 58.682 17.051H19.1237C18.3731 17.051 17.7598 17.6643 17.7598 18.4149V34.102C17.7598 34.8517 18.3731 35.4659 19.1237 35.4659H58.682ZM20.4876 19.7788H57.3173V32.7381H20.4876V19.7788Z" fill="#002B5A"/>
<mask id="mask3_196_1217" style="mask-type:luminance" maskUnits="userSpaceOnUse" x="10" y="0" width="57" height="88">
<path d="M10.7285 0H66.9301V87.301H10.7285V0Z" fill="white"/>
</mask>
<g mask="url(#mask3_196_1217)">
<path d="M11.62 81.8445C11.4153 81.8445 11.1423 81.8445 10.9385 81.7763V83.2084C10.9385 85.4594 12.78 87.301 15.0302 87.301H62.7728C65.0238 87.301 66.8654 85.4594 66.8654 83.2084V15.0047C66.8654 12.7537 65.0238 10.9121 62.7728 10.9121H55.2709V6.82038C55.2709 6.06976 54.6568 5.45647 53.9062 5.45647H45.5854C44.9721 2.31839 42.1752 0 38.9015 0C35.6278 0 32.8317 2.31839 32.2176 5.45647H23.8969C23.1462 5.45647 22.5329 6.06976 22.5329 6.82038V10.9121H15.0302C12.78 10.9121 10.9385 12.7537 10.9385 15.0047V53.2673C11.1423 53.2673 11.4153 53.1991 11.62 53.1991C12.3024 53.1991 12.9839 53.2673 13.6663 53.3347V15.0047C13.6663 14.254 14.2804 13.6408 15.0302 13.6408H62.7728C63.5234 13.6408 64.1367 14.254 64.1367 15.0047V83.2084C64.1367 83.959 63.5234 84.5723 62.7728 84.5723H15.0302C14.2804 84.5723 13.6663 83.959 13.6663 83.2084V81.708C12.9839 81.7763 12.3024 81.8445 11.62 81.8445ZM52.5423 10.9121H25.2608V8.18428H33.445C34.1957 8.18428 34.8098 7.57015 34.8098 6.82038C34.8098 4.56938 36.6514 2.72781 38.9015 2.72781C41.1525 2.72781 42.9941 4.56938 42.9941 6.82038C42.9941 7.57015 43.6074 8.18428 44.358 8.18428H52.5423V10.9121Z" fill="#002B5A"/>
</g>
<path d="M40.948 63.4296C41.6986 63.4296 42.3119 62.8154 42.3119 62.0648C42.3119 61.3151 41.6986 60.7009 40.948 60.7009H24.2383C24.7159 61.588 25.0563 62.4743 25.3975 63.4296H40.948Z" fill="#002B5A"/>
<path d="M22.26 57.9733H59.3627C60.1133 57.9733 60.7266 57.3591 60.7266 56.6094C60.7266 55.8588 60.1133 55.2446 59.3627 55.2446H18.9863C20.2138 55.9952 21.3056 56.8815 22.26 57.9733Z" fill="#002B5A"/>
<mask id="mask4_196_1217" style="mask-type:luminance" maskUnits="userSpaceOnUse" x="0" y="55" width="24" height="25">
<path d="M0 55.8655H23.237V79.1572H0V55.8655Z" fill="white"/>
</mask>
<g mask="url(#mask4_196_1217)">
<path d="M11.6199 79.1157C18.0308 79.1157 23.2143 73.9322 23.2143 67.5212C23.2143 61.1103 18.0308 55.9268 11.6199 55.9268C5.20891 55.9268 0.0253906 61.1103 0.0253906 67.5212C0.0253906 73.9322 5.20891 79.1157 11.6199 79.1157ZM11.6199 58.6546C16.5304 58.6546 20.4865 62.6107 20.4865 67.5212C20.4865 72.4318 16.5304 76.3879 11.6199 76.3879C6.70929 76.3879 2.7532 72.4318 2.7532 67.5212C2.7532 62.6107 6.70929 58.6546 11.6199 58.6546Z" fill="#002B5A"/>
</g>
<path d="M6.02755 69.1582L8.96092 71.3409C9.23387 71.5456 9.50598 71.6139 9.77893 71.6139C10.1201 71.6139 10.5295 71.4774 10.7343 71.2045L15.986 65.748C16.5311 65.2029 16.4628 64.3158 15.9178 63.8382C15.3719 63.2931 14.4856 63.3614 14.008 63.9064L9.57421 68.4766L7.59701 67.0437C6.98287 66.5668 6.16403 66.7033 5.68721 67.3166C5.27778 67.8625 5.41426 68.6805 6.02755 69.1582Z" fill="#002B5A"/>
<path d="M53.9072 66.8398C49.7472 66.8398 46.4053 70.1818 46.4053 74.3418C46.4053 78.5026 49.7472 81.8445 53.9072 81.8445C58.068 81.8445 61.4099 78.5026 61.4099 74.3418C61.4099 70.1818 58.068 66.8398 53.9072 66.8398ZM53.9072 79.1158C51.2476 79.1158 49.1331 77.0022 49.1331 74.3418C49.1331 71.6822 51.2476 69.5677 53.9072 69.5677C56.5676 69.5677 58.6821 71.6822 58.6821 74.3418C58.6821 77.0022 56.5676 79.1158 53.9072 79.1158Z" fill="#002B5A"/>
<mask id="mask5_196_1217" style="mask-type:luminance" maskUnits="userSpaceOnUse" x="33" y="20" width="13" height="14">
<path d="M33.4463 20.8755H45.895V33.1624H33.4463V20.8755Z" fill="white"/>
</mask>
<g mask="url(#mask5_196_1217)">
<path d="M37.7469 26.344H40.7856C40.88 26.344 40.9558 26.2681 40.9558 26.1738V25.2404C40.9558 25.146 40.88 25.0694 40.7856 25.0694H37.7469C37.6534 25.0694 37.5768 25.146 37.5768 25.2404V26.1738C37.5768 26.2681 37.6534 26.344 37.7469 26.344ZM37.9179 25.4105H40.6154V26.0036H37.9179V25.4105ZM37.7469 28.1594H40.7856C40.88 28.1594 40.9558 28.0827 40.9558 27.9892V27.055C40.9558 26.9606 40.88 26.8848 40.7856 26.8848H37.7469C37.6534 26.8848 37.5768 26.9606 37.5768 27.055V27.9892C37.5768 28.0827 37.6534 28.1594 37.7469 28.1594ZM37.9179 27.226H40.6154V27.8182H37.9179V27.226ZM34.7849 26.4627C34.7849 26.3692 34.8607 26.2926 34.9551 26.2926H36.2904C36.3847 26.2926 36.4605 26.3692 36.4605 26.4627C36.4605 26.5571 36.3847 26.6338 36.2904 26.6338H34.9551C34.8607 26.6338 34.7849 26.5571 34.7849 26.4627ZM36.4605 27.3835C36.4605 27.4779 36.3847 27.5537 36.2904 27.5537H34.9551C34.8607 27.5537 34.7849 27.4779 34.7849 27.3835C34.7849 27.2892 34.8607 27.2134 34.9551 27.2134H36.2904C36.3847 27.2134 36.4605 27.2892 36.4605 27.3835ZM36.4605 28.3043C36.4605 28.3987 36.3847 28.4745 36.2904 28.4745H34.9551C34.8607 28.4745 34.7849 28.3987 34.7849 28.3043C34.7849 28.21 34.8607 28.1341 34.9551 28.1341H36.2904C36.3847 28.1341 36.4605 28.21 36.4605 28.3043ZM36.4605 29.2251C36.4605 29.3186 36.3847 29.3953 36.2904 29.3953H34.9551C34.8607 29.3953 34.7849 29.3186 34.7849 29.2251C34.7849 29.1307 34.8607 29.0541 34.9551 29.0541H36.2904C36.3847 29.0541 36.4605 29.1307 36.4605 29.2251ZM42.0712 27.3835C42.0712 27.2892 42.1478 27.2134 42.2422 27.2134H43.5774C43.671 27.2134 43.7476 27.2892 43.7476 27.3835C43.7476 27.4779 43.671 27.5537 43.5774 27.5537H42.2422C42.1478 27.5537 42.0712 27.4779 42.0712 27.3835ZM43.7476 28.3043C43.7476 28.3987 43.671 28.4745 43.5774 28.4745H42.2422C42.1478 28.4745 42.0712 28.3987 42.0712 28.3043C42.0712 28.21 42.1478 28.1341 42.2422 28.1341H43.5774C43.671 28.1341 43.7476 28.21 43.7476 28.3043ZM43.7476 29.2251C43.7476 29.3186 43.671 29.3953 43.5774 29.3953H42.2422C42.1478 29.3953 42.0712 29.3186 42.0712 29.2251C42.0712 29.1307 42.1478 29.0541 42.2422 29.0541H43.5774C43.671 29.0541 43.7476 29.1307 43.7476 29.2251ZM45.2151 24.9143C45.7113 24.098 45.9439 23.1671 45.9076 22.1469C45.9059 22.1031 45.8883 22.0618 45.8571 22.0315C45.1553 21.3357 44.2177 20.949 43.0695 20.8816C43.0627 20.8816 43.056 20.8816 43.0501 20.8816C41.9018 20.949 40.9634 21.3357 40.2616 22.0315C40.2313 22.0618 40.2136 22.1031 40.2119 22.1469C40.1993 22.4839 40.217 22.8116 40.2641 23.1292H37.7469C37.6534 23.1292 37.5768 23.2059 37.5768 23.2994V23.8722H36.9913C36.8969 23.8722 36.8203 23.9489 36.8203 24.0424V25.0828H34.255C34.1607 25.0828 34.084 25.1595 34.084 25.253V31.9748H33.6173C33.523 31.9748 33.4463 32.0515 33.4463 32.145V33.0068C33.4463 33.1003 33.523 33.177 33.6173 33.177H44.9152C45.0096 33.177 45.0854 33.1003 45.0854 33.0068V32.145C45.0854 32.0515 45.0096 31.9748 44.9152 31.9748H44.4477V25.8924C44.7501 25.5841 45.0045 25.2589 45.2151 24.9143ZM40.5506 22.227C41.1841 21.6221 42.0274 21.2851 43.0593 21.2228C44.0913 21.2851 44.9355 21.6221 45.569 22.227C45.6111 24.0062 44.7897 25.4341 43.0593 26.5866C41.3298 25.4341 40.5084 24.0062 40.5506 22.227ZM37.9179 23.4704H40.3265C40.356 23.606 40.3913 23.7408 40.4326 23.8722H37.9179V23.4704ZM37.1614 24.2134H40.5539C40.6508 24.4552 40.7679 24.6894 40.9044 24.9143C41.0409 25.1384 41.1959 25.3541 41.3711 25.5622V31.9748H40.9566V29.7179C40.9566 29.6244 40.88 29.5477 40.7856 29.5477H37.7469C37.6534 29.5477 37.5768 29.6244 37.5768 29.7179V31.9748H37.1614V24.2134ZM37.9179 31.9748V29.8889H40.6154V31.9748H37.9179ZM34.4252 25.424H36.8203V31.9748H34.4252V25.424ZM44.7451 32.8358H33.7875V32.316H44.7451V32.8358ZM41.7114 31.9748V25.9337C42.0644 26.2875 42.4806 26.6186 42.9667 26.9337C42.9953 26.9522 43.0273 26.9615 43.0593 26.9615C43.0922 26.9615 43.1242 26.9522 43.152 26.9337C43.5067 26.7037 43.8243 26.4653 44.1073 26.2159V31.9748H41.7114ZM42.9608 26.1047C42.9903 26.1258 43.0248 26.1367 43.0593 26.1367C43.0947 26.1367 43.1293 26.1258 43.1588 26.1047C43.8824 25.5874 44.4199 25.002 44.756 24.3651C45.0526 23.8023 45.2067 23.173 45.2135 22.4957C45.2143 22.4452 45.1924 22.3971 45.1536 22.3643C44.6077 21.8976 43.9262 21.644 43.0703 21.5884C43.0636 21.5884 43.056 21.5884 43.0484 21.5884C42.1925 21.644 41.5109 21.8976 40.965 22.3643C40.9271 22.3971 40.9052 22.4452 40.9061 22.4957C40.9128 23.1747 41.0661 23.804 41.3627 24.3651C41.698 25.0011 42.2354 25.5866 42.9608 26.1047ZM41.2481 22.5724C41.7232 22.1891 42.3172 21.9793 43.0593 21.9296C43.8015 21.9793 44.3955 22.1899 44.8706 22.5724C44.8537 23.1646 44.7139 23.7139 44.4544 24.2059C44.1545 24.7745 43.6971 25.2825 43.0593 25.7551C42.4208 25.2816 41.9642 24.7745 41.6643 24.2059C41.4048 23.7147 41.265 23.1654 41.2481 22.5724ZM42.66 24.4763L41.9296 23.6086C41.869 23.537 41.8782 23.4291 41.9499 23.3685C42.0215 23.3078 42.1293 23.3171 42.19 23.3895L42.7898 24.1014L43.9287 22.7324C43.9886 22.66 44.0964 22.6499 44.1688 22.7105C44.2413 22.7703 44.2506 22.8782 44.1907 22.9506L42.9212 24.4754C42.8892 24.5142 42.8412 24.5369 42.7906 24.5369C42.7401 24.5369 42.6929 24.515 42.66 24.4763Z" fill="#002B5A"/>
</g>
</svg>
