<svg width="67" height="67" viewBox="0 0 67 67" fill="none" xmlns="http://www.w3.org/2000/svg">
<path d="M33.3482 47.3272C32.7902 47.3272 32.3414 46.8735 32.3414 46.3196C32.3414 45.7657 32.7902 45.3121 33.3482 45.3121H46.9245C47.48 45.3121 47.932 45.7657 47.932 46.3196C47.932 46.8751 47.4783 47.3272 46.9245 47.3272H33.3482ZM33.3482 52.1531C32.7902 52.1531 32.3414 51.7003 32.3414 51.1456C32.3414 50.5917 32.7902 50.1389 33.3482 50.1389H46.9245C47.48 50.1389 47.932 50.5917 47.932 51.1456C47.932 51.7003 47.4783 52.1531 46.9245 52.1531H33.3482ZM13.2542 21.7914C12.6954 21.7914 12.2466 21.3377 12.2466 20.7839C12.2466 20.2259 12.6954 19.7763 13.2542 19.7763H15.8647C16.4226 19.7763 16.8714 20.2259 16.8714 20.7839C16.8714 21.3394 16.4226 21.7914 15.8647 21.7914H13.2542ZM13.2542 30.4309C12.6954 30.4309 12.2466 29.9822 12.2466 29.4242C12.2466 28.8687 12.6954 28.4167 13.2542 28.4167H15.8647C16.4226 28.4167 16.8714 28.8695 16.8714 29.4242C16.8714 29.9822 16.4226 30.4309 15.8647 30.4309H13.2542ZM19.2922 30.4309C18.7334 30.4309 18.2846 29.9822 18.2846 29.4242C18.2846 28.8687 18.7334 28.4167 19.2922 28.4167H29.4491C30.0046 28.4167 30.4559 28.8695 30.4559 29.4242C30.4559 29.9822 30.003 30.4309 29.4491 30.4309H19.2922ZM29.4491 24.0965C30.0046 24.0965 30.4559 24.5453 30.4559 25.104C30.4559 25.6595 30.003 26.1108 29.4491 26.1108H26.8337C26.2782 26.1108 25.827 25.6579 25.827 25.104C25.827 24.5453 26.2799 24.0965 26.8337 24.0965H29.4491ZM23.412 24.0965C23.9675 24.0965 24.4195 24.5453 24.4195 25.104C24.4195 25.6595 23.9658 26.1108 23.412 26.1108H13.255C12.6971 26.1108 12.2483 25.6579 12.2483 25.104C12.2483 24.5453 12.6971 24.0965 13.255 24.0965H23.412ZM19.2922 21.7914C18.7334 21.7914 18.2846 21.3377 18.2846 20.7839C18.2846 20.2259 18.7334 19.7763 19.2922 19.7763H29.4491C30.0046 19.7763 30.4559 20.2259 30.4559 20.7839C30.4559 21.3394 30.003 21.7914 29.4491 21.7914H19.2922ZM14.2544 5.41813H30.2156C31.3209 5.41813 32.2193 6.31898 32.2193 7.42508V14.5806C32.2193 15.685 31.3209 16.5875 30.2156 16.5875H14.2544C13.1532 16.5875 12.2466 15.6826 12.2466 14.5806V7.42508C12.2466 6.32305 13.1532 5.41813 14.2544 5.41813ZM30.2074 7.43241H14.2626V14.5716H30.2082V7.43241H30.2074ZM10.3985 49.8073C10.0678 49.3626 10.1631 48.7338 10.6079 48.4048C11.0566 48.0733 11.6838 48.1645 12.0153 48.6133L13.8097 51.0405L18.6096 45.7625C18.9859 45.3552 19.6172 45.3218 20.0285 45.6981C20.4406 46.0736 20.4691 46.7098 20.0977 47.117L14.4727 53.2959C14.0524 53.7561 13.2982 53.7243 12.9227 53.2185L10.3985 49.8073ZM14.9305 62.2726C10.0678 60.4612 6.77721 57.2227 5.06755 53.3725C3.36196 49.5255 3.27318 45.1207 4.80283 41.0082C4.95759 40.592 5.35833 40.3387 5.77699 40.3549C8.98698 40.4323 12.2051 39.1316 14.612 36.9772C14.9997 36.6302 15.5796 36.6391 15.9551 36.9812C18.3742 39.1649 21.5647 40.4038 24.8023 40.3549C25.2585 40.346 25.6177 40.6278 25.7692 41.04C27.2947 45.1394 27.1921 49.5369 25.4914 53.3708C23.7818 57.217 20.4911 60.4612 15.6285 62.271C15.3964 62.359 15.1479 62.3549 14.9305 62.2726ZM6.90346 52.5604C8.35573 55.8315 11.1544 58.6301 15.2815 60.2575C19.4054 58.6301 22.2032 55.8315 23.6563 52.5604C25.0597 49.3993 25.2153 45.7853 24.1059 42.3546C20.8707 42.2438 17.8155 41.0701 15.2831 39.0379C12.7459 41.0701 9.69071 42.2438 6.46036 42.3546C5.3453 45.7853 5.50005 49.3993 6.90346 52.5604ZM14.9305 66.4258C8.45347 64.0108 4.0714 59.7037 1.79892 54.5796C-0.472756 49.4677 -0.594933 43.6024 1.44379 38.133C1.59936 37.7167 1.99929 37.4634 2.41794 37.4797C4.01276 37.5042 5.59535 37.3038 7.125 36.8965V3.53742C7.125 1.58748 8.71656 0 10.6624 0H51.076C53.0211 0 54.6134 1.58748 54.6134 3.53742V16.2283C59.516 19.7649 61.7388 25.9886 60.1692 31.8425C59.4712 34.4416 58.0596 36.8477 56.016 38.7447L56.8648 40.2092C57.3543 39.92 57.9749 40.0829 58.2527 40.5675L66.1583 54.257C66.779 55.2442 66.9052 56.5165 66.6185 57.577C66.0027 59.869 63.657 61.2276 61.3609 60.6159C60.3044 60.3316 59.3417 59.6377 58.7503 58.6171L54.6143 51.447V53.1566C54.6143 55.1017 53.0227 56.6932 51.0776 56.6932H27.6743C25.2063 60.8863 21.1932 64.3537 15.6285 66.4258C15.3964 66.5162 15.1479 66.5073 14.9305 66.4258ZM9.14255 36.2278C11.1169 35.4402 12.9691 34.2934 14.612 32.8215C14.9997 32.4746 15.5796 32.4876 15.9551 32.8297C19.2922 35.845 23.6881 37.5498 28.1597 37.4797C28.624 37.4708 28.9751 37.7575 29.1306 38.1729C31.1702 43.6602 31.0187 49.5663 28.7193 54.6773H51.076C51.9076 54.6773 52.5967 53.9923 52.5967 53.1566V47.96L50.8097 44.8673V44.8633C50.5319 44.3941 50.6916 43.7735 51.1925 43.4843L50.3478 42.0198C43.9222 43.9942 36.8701 41.3144 33.4321 35.3628C29.4011 28.3792 31.7884 19.4627 38.772 15.4277C43.1256 12.9108 48.3059 12.866 52.5967 15.0074V3.53742C52.5967 2.70092 51.9076 2.01591 51.076 2.01591H10.6641C9.82755 2.01591 9.14255 2.70092 9.14255 3.53742V36.2278ZM3.63075 53.7675C5.64585 58.3084 9.5384 62.1879 15.2815 64.414C20.373 62.4396 24.0066 59.1645 26.1723 55.2849C26.1968 55.2271 26.2253 55.1709 26.2611 55.118C26.5014 54.6773 26.7221 54.2244 26.9258 53.7675C28.892 49.3414 29.0801 44.2719 27.4642 39.4826C22.9892 39.3889 18.7513 37.7485 15.2799 34.8937C11.8052 37.7485 7.56728 39.3889 3.09154 39.4826C1.478 44.2719 1.66534 49.3431 3.63075 53.7675ZM40.5566 18.5163C45.8346 15.4692 52.5698 17.2709 55.6202 22.5497C58.6664 27.8237 56.868 34.554 51.5867 37.6133C46.3128 40.6645 39.5165 38.8253 36.5231 33.5758C33.4793 28.2367 35.2981 21.5511 40.5566 18.5163ZM48.4052 19.356C43.5955 18.0667 38.6515 20.9191 37.3637 25.7288C36.0744 30.5417 38.9308 35.485 43.7397 36.7744C48.5535 38.0637 53.4935 35.2072 54.7812 30.3984C55.3815 28.1658 55.1282 25.7109 53.8836 23.5573V23.5524C52.5983 21.3842 50.6761 19.9653 48.4052 19.356ZM54.4375 40.021C53.724 40.5187 53.03 40.9186 52.2432 41.29L52.9323 42.4816L55.1266 41.2126L54.4375 40.021ZM49.3305 15.9098C46.2175 15.0782 42.7867 15.4293 39.7812 17.1658V17.1617C36.7504 18.9561 34.7671 21.6375 33.92 24.8059C33.0835 27.919 33.4394 31.3448 35.1719 34.3553C38.7003 40.4006 46.36 42.4287 52.3613 38.9605L52.3654 38.9646C55.3913 37.1816 57.3787 34.4823 58.2266 31.3204C60.0177 24.639 56.0812 17.7205 49.3305 15.9098ZM63.6154 58.4477C64.6963 57.823 65.0758 56.4081 64.4519 55.3232V55.3281L57.0122 42.4409L53.052 44.7297L60.4918 57.6112C61.1189 58.6994 62.5223 59.0749 63.6154 58.4477Z" fill="#002B5A"/>
</svg>
