<svg width="67" height="77" viewBox="0 0 67 77" fill="none" xmlns="http://www.w3.org/2000/svg">
<path fill-rule="evenodd" clip-rule="evenodd" d="M44.6503 45.481H43.0738C42.1281 45.481 41.3613 44.7142 41.3613 43.7685C41.3613 43.2736 41.7668 42.8681 42.2629 42.8681C42.7136 42.8681 43.1191 43.2283 43.1633 43.679H44.5156V42.2826H43.0738C42.1281 42.2826 41.3613 41.5611 41.3613 40.6154V39.0389C41.3613 38.0932 42.1281 37.3264 43.0738 37.3264H44.6503C45.5507 37.3264 46.3175 38.0932 46.3175 39.0389C46.3175 39.5338 45.912 39.9393 45.416 39.9393C44.9652 39.9393 44.605 39.5791 44.5597 39.1283H43.1633V40.4806H44.6503C45.596 40.4806 46.3617 41.2463 46.3617 42.192V43.7685C46.3175 44.7142 45.596 45.481 44.6503 45.481Z" fill="#002B5A"/>
<path fill-rule="evenodd" clip-rule="evenodd" d="M43.7949 46.5614C43.3 46.5614 42.8945 46.1559 42.8945 45.661V44.5794C42.8945 44.0844 43.3 43.679 43.7949 43.679C44.291 43.679 44.6965 44.0844 44.6965 44.5794V45.661C44.6965 46.1559 44.291 46.5614 43.7949 46.5614ZM43.7949 39.1283C43.3 39.1283 42.8945 38.7228 42.8945 38.2279V37.1462C42.8945 36.6513 43.3 36.2458 43.7949 36.2458C44.291 36.2458 44.6965 36.6513 44.6965 37.1462V38.2279C44.6965 38.7228 44.291 39.1283 43.7949 39.1283Z" fill="#002B5A"/>
<path fill-rule="evenodd" clip-rule="evenodd" d="M43.8405 49.5345C39.3805 49.5345 35.7324 45.8865 35.7324 41.4264C35.7324 36.921 39.3805 33.2729 43.8405 33.2729C48.3448 33.2729 51.994 36.921 51.994 41.4264C51.994 45.8865 48.3448 49.5345 43.8405 49.5345ZM43.8405 35.0749C40.3715 35.0749 37.5344 37.912 37.5344 41.3811C37.5344 44.8943 40.3715 47.7326 43.8405 47.7326C47.3538 47.7326 50.192 44.8943 50.192 41.3811C50.192 37.912 47.3538 35.0749 43.8405 35.0749Z" fill="#002B5A"/>
<path fill-rule="evenodd" clip-rule="evenodd" d="M43.8401 52.778C37.5781 52.778 32.4883 47.6871 32.4883 41.3809C32.4883 35.1189 37.5781 30.0291 43.8401 30.0291C50.1021 30.0291 55.2373 35.1189 55.2373 41.3809C55.2373 47.6871 50.1463 52.778 43.8401 52.778ZM43.8401 31.831C38.5691 31.831 34.2902 36.1099 34.2902 41.3809C34.2902 46.6961 38.5691 50.9761 43.8401 50.9761C49.1111 50.9761 53.4353 46.6961 53.4353 41.3809C53.4353 36.1099 49.1111 31.831 43.8401 31.831Z" fill="#002B5A"/>
<mask id="mask0_196_1261" style="mask-type:luminance" maskUnits="userSpaceOnUse" x="0" y="46" width="18" height="31">
<path d="M0 46.6294H17.35V76.2033H0V46.6294Z" fill="white"/>
</mask>
<g mask="url(#mask0_196_1261)">
<path fill-rule="evenodd" clip-rule="evenodd" d="M9.01993 76.0232C8.47855 76.0232 7.93831 75.842 7.48755 75.5724C6.76723 75.167 6.22699 74.4908 6.04577 73.7252L0.235649 52.0579C0.0102656 51.2911 0.145042 50.436 0.550505 49.7146C0.955968 48.9942 1.63212 48.4982 2.39774 48.2739L7.62346 46.8774C9.24418 46.472 10.9566 47.4177 11.4074 49.0837L17.1734 70.7522C17.623 72.374 16.632 74.0854 15.0113 74.5361L9.82972 75.9326C9.56017 75.9779 9.28948 76.0232 9.01993 76.0232ZM8.07309 48.6341L2.89268 50.0305C2.53252 50.12 2.26183 50.3001 2.08175 50.6161C1.94697 50.9309 1.90167 51.2469 1.99228 51.6071L7.75823 73.2291C7.93831 73.9506 8.65863 74.3561 9.33478 74.176L14.5605 72.7795C15.2355 72.5994 15.641 71.878 15.4609 71.203L9.64964 49.5345C9.46956 48.8595 8.74924 48.454 8.07309 48.6341Z" fill="#002B5A"/>
</g>
<mask id="mask1_196_1261" style="mask-type:luminance" maskUnits="userSpaceOnUse" x="10" y="49" width="57" height="28">
<path d="M10.6816 49.8186H66.93V76.8782H10.6816V49.8186Z" fill="white"/>
</mask>
<g mask="url(#mask1_196_1261)">
<path fill-rule="evenodd" clip-rule="evenodd" d="M43.0743 76.8781C39.9212 76.8781 37.0377 75.5723 31.4518 72.9594C28.7937 71.6977 25.4605 70.1665 21.2258 68.3645C21.0004 68.2739 20.7761 68.1844 20.5961 68.0938C19.9199 67.779 19.4238 67.5536 18.7488 67.5536C18.7488 67.5536 18.7488 67.5536 18.7035 67.5536C17.7125 67.5536 16.4508 67.8685 15.5957 68.0938C15.0997 68.2298 14.6942 67.9591 14.5594 67.463C14.4235 66.9681 14.6047 66.5173 15.0544 66.3825C16.0454 66.0665 17.4871 65.7517 18.7035 65.7064C19.7851 65.7064 20.5961 66.0665 21.3164 66.4278C21.4965 66.5173 21.7218 66.6079 21.9019 66.6974C26.1819 68.5446 29.5151 70.0759 32.1733 71.2922C42.9396 76.2926 42.9396 76.2926 55.7773 71.0669C57.3992 70.3918 59.2464 69.6262 61.2737 68.8153L62.2648 68.4098C63.8413 67.8243 65.3272 66.2024 64.787 64.2646C64.5616 63.3642 63.9761 62.6439 63.2105 62.1931C62.3995 61.7423 61.4991 61.6076 60.6429 61.8329L43.9747 66.2919C43.84 66.3372 43.6146 66.3372 43.4798 66.2919L36.9482 63.995L30.5514 61.6076C30.1007 61.4275 29.8753 60.9314 30.0101 60.4806C30.1901 59.9857 30.7315 59.7603 31.1811 59.9404L37.5338 62.2826C39.5158 62.824 41.2271 61.4275 41.7232 59.8056C41.9033 59.0842 42.3529 56.7873 39.1998 55.7057C37.8939 55.3002 36.7228 54.8506 35.5959 54.4451C28.7937 52.0124 24.2894 50.3905 15.9559 52.778L11.7665 53.9038C11.2704 54.0397 10.865 53.7237 10.7302 53.2287C10.5954 52.7327 10.8208 52.2819 11.2704 52.1471L15.5051 51.0214C24.38 48.5433 29.335 50.2999 36.2268 52.778C37.3084 53.1834 38.5248 53.5889 39.7853 54.0397C43.2544 55.2108 44.1107 58.049 43.4345 60.3006C43.029 61.6076 42.1286 62.7787 40.9564 63.499L43.7947 64.49L60.1468 60.1205C61.4991 59.7603 62.8956 59.9404 64.1109 60.6166C65.3272 61.3369 66.1835 62.4627 66.5436 63.7697C67.2198 66.3372 65.6885 68.9954 62.9398 70.1212L61.9488 70.5266C59.9214 71.3375 58.0753 72.0579 56.4988 72.734C49.6965 75.4816 46.2727 76.8781 43.0743 76.8781Z" fill="#002B5A"/>
</g>
<path fill-rule="evenodd" clip-rule="evenodd" d="M4.91844 66.9682C4.51297 66.9682 4.28759 66.6522 4.19812 66.2467C4.06221 65.7518 4.19812 65.3463 4.69305 65.2115L14.1082 62.6881C14.6042 62.5534 14.739 62.9588 14.8285 63.4096C14.9644 63.9045 15.0539 64.31 14.5589 64.4006L5.14382 66.9682C5.05321 66.9682 5.00904 66.9682 4.91844 66.9682Z" fill="#002B5A"/>
<path fill-rule="evenodd" clip-rule="evenodd" d="M59.1108 62.1933C58.8401 62.1933 58.5695 62.1027 58.3894 61.8331C58.0745 61.4718 58.164 60.8863 58.5695 60.6167C61.4983 58.4547 64.6967 54.4895 63.4803 47.8231C62.1733 40.7955 57.9839 34.3987 53.8851 28.1367C53.3437 27.2816 52.7582 26.4253 52.218 25.5691C51.9473 25.1195 52.1727 24.7582 52.6234 24.4886C53.0289 24.2179 53.4344 24.1726 53.705 24.5781C54.2906 25.4343 54.8308 26.2906 55.4164 27.1457C59.5605 33.5425 63.8858 40.1193 65.237 47.463C66.6334 55.075 62.9843 59.5804 59.6058 62.0574C59.471 62.148 59.2909 62.1933 59.1108 62.1933ZM23.0722 51.6071C22.5773 51.6071 22.1718 51.2469 22.1718 50.7509C22.1265 49.6704 22.216 48.5888 22.396 47.5072C23.6577 40.2553 27.8924 33.7678 31.9912 27.507C32.6674 26.5159 33.2982 25.5691 33.9291 24.5781C34.1986 24.1726 34.6041 24.2179 35.0096 24.4886C35.4603 24.7582 35.6857 25.1195 35.415 25.5691C34.7842 26.5159 34.1545 27.507 33.5236 28.498C29.5143 34.6241 25.3702 40.9303 24.198 47.7778C24.0179 48.7688 23.9284 49.7599 23.9737 50.7056C23.9737 51.1563 23.5683 51.6071 23.0722 51.6071Z" fill="#002B5A"/>
<path fill-rule="evenodd" clip-rule="evenodd" d="M53.5705 25.9746H34.1105C32.2633 25.9746 30.7773 24.4886 30.7773 22.6414V21.1996C30.7773 19.3524 32.2633 17.8665 34.1105 17.8665H53.5705C55.4177 17.8665 56.9048 19.3524 56.9048 21.1996V22.6414C56.9048 24.4886 55.3724 25.9746 53.5705 25.9746ZM34.1105 19.6684C33.2543 19.6684 32.5781 20.3445 32.5781 21.1996V22.6414C32.5781 23.4976 33.2543 24.1727 34.1105 24.1727H53.5705C54.4267 24.1727 55.1029 23.4976 55.1029 22.6414V21.1996C55.1029 20.3445 54.4267 19.6684 53.5705 19.6684H34.1105Z" fill="#002B5A"/>
<path fill-rule="evenodd" clip-rule="evenodd" d="M53.5705 19.6682H34.1105C32.2633 19.6682 30.7773 18.1811 30.7773 16.335V14.8932C30.7773 13.046 32.2633 11.5601 34.1105 11.5601H53.5705C55.4177 11.5601 56.9048 13.046 56.9048 14.8932V16.335C56.9048 18.1811 55.3724 19.6682 53.5705 19.6682ZM34.1105 13.3609C33.2543 13.3609 32.5781 14.037 32.5781 14.8932V16.335C32.5781 17.1901 33.2543 17.8663 34.1105 17.8663H53.5705C54.4267 17.8663 55.1029 17.1901 55.1029 16.335V14.8932C55.1029 14.037 54.4267 13.3609 53.5705 13.3609H34.1105Z" fill="#002B5A"/>
<path fill-rule="evenodd" clip-rule="evenodd" d="M34.019 13.361C33.6588 13.361 33.2987 13.1367 33.1639 12.7313L30.6405 4.44192C30.551 4.17236 30.5952 3.85637 30.7764 3.63099C30.9112 3.40561 31.1807 3.27083 31.4967 3.27083H41.1372C43.3888 2.68529 45.6868 2.14505 47.8942 1.60368C49.9657 1.06344 52.1289 0.568499 54.2457 0.0271262C54.6512 -0.0623473 55.0113 0.0724292 55.2367 0.388419C55.4621 0.703275 55.4168 1.10874 55.1914 1.4236L53.7496 3.31613L57.3093 3.99115C57.6242 4.03645 57.8496 4.21653 57.9843 4.48722C58.0749 4.75791 58.0749 5.07276 57.8949 5.34345L53.3442 12.9113C53.1199 13.361 52.5332 13.4969 52.1289 13.2262C51.6781 13.0008 51.5422 12.4153 51.8129 12.0098L55.6875 5.52353L51.993 4.75791C51.6781 4.7126 51.4528 4.48722 51.318 4.21653C51.2274 3.90168 51.2727 3.58569 51.4528 3.36144L52.1731 2.37043C50.8672 2.73059 49.5602 3.04545 48.2997 3.31613C46.047 3.90168 43.749 4.44192 41.4521 5.02746C41.4068 5.07276 41.3173 5.07276 41.2267 5.07276H32.7131L34.8752 12.1899C35.0553 12.686 34.7846 13.1809 34.2897 13.3168C34.1991 13.361 34.1096 13.361 34.019 13.361Z" fill="#002B5A"/>
</svg>
