<svg width="294" height="139" viewBox="0 0 294 139" fill="none" xmlns="http://www.w3.org/2000/svg">
<rect x="179" y="59" width="66.2637" height="67" rx="23" fill="#EEE3C6"/>
<g clip-path="url(#clip0_196_1741)">
<line x1="48.5" y1="40" x2="48.5" y2="25" stroke="#E8178A"/>
<line x1="48" y1="32.5" x2="138" y2="32.5" stroke="#E8178A"/>
<line x1="137.5" y1="40" x2="137.5" y2="25" stroke="#E8178A"/>
</g>
<path d="M87.5475 16.6533C88.1126 16.6533 88.5934 16.5895 88.9899 16.4619C89.3864 16.3343 89.7123 16.152 89.9675 15.915C90.2409 15.6553 90.4414 15.359 90.569 15.0264C90.6966 14.6891 90.7787 14.3268 90.8151 13.9395V13.9053C90.7149 14.0192 90.5986 14.1263 90.4665 14.2266C90.3389 14.3223 90.1976 14.4066 90.0427 14.4795C89.8786 14.557 89.6963 14.6185 89.4958 14.6641C89.2998 14.7096 89.0833 14.7324 88.8464 14.7324C88.3633 14.7324 87.9417 14.6413 87.5817 14.459C87.2262 14.2767 86.93 14.0329 86.693 13.7275C86.4515 13.4176 86.2715 13.0622 86.153 12.6611C86.0345 12.2601 85.9753 11.8385 85.9753 11.3965C85.9753 10.918 86.0459 10.4691 86.1872 10.0498C86.333 9.62598 86.5427 9.25456 86.8161 8.93555C87.0895 8.62109 87.4245 8.37272 87.821 8.19043C88.222 8.00358 88.6777 7.91016 89.1882 7.91016C89.7031 7.91016 90.1589 8.00814 90.5554 8.2041C90.9564 8.40007 91.2959 8.66667 91.5739 9.00391C91.8656 9.36849 92.0866 9.81055 92.237 10.3301C92.3874 10.8451 92.4626 11.3874 92.4626 11.957V12.5312C92.4626 13.3151 92.3714 14.0625 92.1891 14.7734C92.0068 15.4844 91.6856 16.1064 91.2253 16.6396C90.8516 17.0771 90.3594 17.4212 89.7487 17.6719C89.1426 17.9225 88.4111 18.0479 87.5544 18.0479H87.4177V16.6533H87.5475ZM89.195 13.4404C89.3864 13.4404 89.5664 13.4108 89.735 13.3516C89.9082 13.2923 90.0654 13.208 90.2067 13.0986C90.348 12.9938 90.471 12.8708 90.5759 12.7295C90.6852 12.5837 90.7741 12.4264 90.8425 12.2578V11.6904C90.8425 11.2939 90.7969 10.943 90.7057 10.6377C90.6192 10.3324 90.5029 10.0771 90.3571 9.87207C90.2067 9.66699 90.0313 9.51204 89.8307 9.40723C89.6302 9.29785 89.416 9.24316 89.1882 9.24316C88.933 9.24316 88.7051 9.30013 88.5046 9.41406C88.3086 9.52344 88.1445 9.67383 88.0124 9.86523C87.8757 10.0566 87.7708 10.2822 87.6979 10.542C87.6296 10.7972 87.5954 11.0661 87.5954 11.3486C87.5954 11.6221 87.6273 11.8841 87.6911 12.1348C87.7549 12.3854 87.8552 12.6087 87.9919 12.8047C88.124 12.9961 88.2881 13.151 88.4841 13.2695C88.6846 13.3835 88.9216 13.4404 89.195 13.4404ZM100.874 14.2061C100.874 14.8441 100.799 15.4092 100.649 15.9014C100.503 16.389 100.291 16.7969 100.013 17.125C99.7396 17.4622 99.4023 17.7174 99.0013 17.8906C98.6048 18.0592 98.1536 18.1436 97.6478 18.1436C97.1465 18.1436 96.6953 18.0592 96.2943 17.8906C95.8932 17.7174 95.5537 17.4622 95.2757 17.125C94.9932 16.7969 94.7767 16.389 94.6263 15.9014C94.4805 15.4092 94.4075 14.8441 94.4075 14.2061V11.8477C94.4075 11.2096 94.4805 10.6468 94.6263 10.1592C94.7767 9.66699 94.9909 9.25228 95.2689 8.91504C95.5469 8.58236 95.8841 8.33171 96.2806 8.16309C96.6816 7.98991 97.1328 7.90332 97.6341 7.90332C98.14 7.90332 98.5911 7.98991 98.9876 8.16309C99.3887 8.33171 99.7305 8.58236 100.013 8.91504C100.286 9.25228 100.498 9.66699 100.649 10.1592C100.799 10.6468 100.874 11.2096 100.874 11.8477V14.2061ZM96.0482 13.625L99.2132 11.2256C99.195 10.8701 99.1448 10.5625 99.0628 10.3027C98.9853 10.043 98.8737 9.83105 98.7279 9.66699C98.6002 9.52116 98.443 9.41178 98.2562 9.33887C98.0739 9.26595 97.8665 9.22949 97.6341 9.22949C97.3834 9.22949 97.1624 9.27279 96.971 9.35938C96.7796 9.44596 96.6201 9.57357 96.4925 9.74219C96.3421 9.93359 96.2305 10.182 96.1575 10.4873C96.0846 10.7881 96.0482 11.1436 96.0482 11.5537V12.8936C96.0482 13.0667 96.0482 13.1989 96.0482 13.29C96.0482 13.3812 96.0482 13.4928 96.0482 13.625ZM99.2269 14.4795V13.2217C99.2269 13.1077 99.2269 12.9893 99.2269 12.8662C99.2269 12.7432 99.2269 12.6156 99.2269 12.4834L96.0618 14.8691C96.0846 15.1836 96.1325 15.4616 96.2054 15.7031C96.2829 15.9447 96.3854 16.1452 96.513 16.3047C96.6406 16.4779 96.7978 16.6077 96.9847 16.6943C97.1761 16.7809 97.3971 16.8242 97.6478 16.8242C97.8939 16.8242 98.1103 16.7832 98.2972 16.7012C98.484 16.6146 98.6435 16.4893 98.7757 16.3252C98.9261 16.1338 99.0377 15.8831 99.1107 15.5732C99.1881 15.2633 99.2269 14.8988 99.2269 14.4795Z" fill="#E8178A"/>
<g clip-path="url(#clip1_196_1741)">
<line x1="25" y1="48.5" x2="40" y2="48.5" stroke="#E8178A"/>
<line x1="32.5" y1="140" x2="32.5" y2="49" stroke="#E8178A"/>
<line x1="25" y1="138.5" x2="40" y2="138.5" stroke="#E8178A"/>
</g>
<path d="M6.70934 97.1533C7.27444 97.1533 7.75523 97.0895 8.15172 96.9619C8.5482 96.8343 8.87405 96.652 9.12926 96.415C9.40269 96.1553 9.60322 95.859 9.73082 95.5264C9.85842 95.1891 9.94046 94.8268 9.97691 94.4395V94.4053C9.87665 94.5192 9.76044 94.6263 9.62828 94.7266C9.50068 94.8223 9.3594 94.9066 9.20445 94.9795C9.04039 95.057 8.8581 95.1185 8.65758 95.1641C8.46161 95.2096 8.24514 95.2324 8.00816 95.2324C7.52509 95.2324 7.10354 95.1413 6.74352 94.959C6.38805 94.7767 6.09182 94.5329 5.85484 94.2275C5.61331 93.9176 5.43329 93.5622 5.3148 93.1611C5.19631 92.7601 5.13707 92.3385 5.13707 91.8965C5.13707 91.418 5.20771 90.9691 5.34898 90.5498C5.49482 90.126 5.70445 89.7546 5.97789 89.4355C6.25133 89.1211 6.58629 88.8727 6.98277 88.6904C7.38381 88.5036 7.83954 88.4102 8.34996 88.4102C8.86493 88.4102 9.32066 88.5081 9.71715 88.7041C10.1182 88.9001 10.4577 89.1667 10.7357 89.5039C11.0274 89.8685 11.2484 90.3105 11.3988 90.8301C11.5492 91.3451 11.6244 91.8874 11.6244 92.457V93.0312C11.6244 93.8151 11.5332 94.5625 11.3509 95.2734C11.1686 95.9844 10.8474 96.6064 10.3871 97.1396C10.0134 97.5771 9.52118 97.9212 8.91051 98.1719C8.30439 98.4225 7.57294 98.5479 6.71617 98.5479H6.57945V97.1533H6.70934ZM8.3568 93.9404C8.5482 93.9404 8.72822 93.9108 8.89684 93.8516C9.07001 93.7923 9.22724 93.708 9.36852 93.5986C9.50979 93.4938 9.63284 93.3708 9.73766 93.2295C9.84703 93.0837 9.9359 92.9264 10.0043 92.7578V92.1904C10.0043 91.7939 9.95868 91.443 9.86754 91.1377C9.78095 90.8324 9.66474 90.5771 9.51891 90.3721C9.36852 90.167 9.19306 90.012 8.99254 89.9072C8.79202 89.7979 8.57782 89.7432 8.34996 89.7432C8.09475 89.7432 7.86689 89.8001 7.66637 89.9141C7.4704 90.0234 7.30634 90.1738 7.17418 90.3652C7.03746 90.5566 6.93264 90.7822 6.85973 91.042C6.79137 91.2972 6.75719 91.5661 6.75719 91.8486C6.75719 92.1221 6.78909 92.3841 6.85289 92.6348C6.91669 92.8854 7.01695 93.1087 7.15367 93.3047C7.28583 93.4961 7.4499 93.651 7.64586 93.7695C7.84638 93.8835 8.08336 93.9404 8.3568 93.9404ZM18.0742 98.5H16.4268V90.5703L13.877 91.5068V90.0645L17.9717 88.5469H18.0742V98.5Z" fill="#E8178A"/>
<g clip-path="url(#clip2_196_1741)">
<line x1="179.5" y1="51" x2="179.5" y2="36" stroke="#E8178A"/>
<line x1="179" y1="43.5" x2="245.264" y2="43.5" stroke="#E8178A"/>
<line x1="244.764" y1="51" x2="244.764" y2="36" stroke="#E8178A"/>
</g>
<path d="M210.102 18.999V20.3867H209.993C209.451 20.3867 208.979 20.4619 208.578 20.6123C208.181 20.7581 207.846 20.9632 207.573 21.2275C207.295 21.4919 207.078 21.8086 206.924 22.1777C206.773 22.5469 206.68 22.9434 206.643 23.3672C206.753 23.2441 206.88 23.1257 207.026 23.0117C207.172 22.8932 207.334 22.7884 207.511 22.6973C207.68 22.6107 207.867 22.5423 208.072 22.4922C208.277 22.4375 208.494 22.4102 208.721 22.4102C209.204 22.4102 209.624 22.5013 209.979 22.6836C210.339 22.8659 210.635 23.112 210.868 23.4219C211.105 23.7318 211.278 24.0872 211.387 24.4883C211.501 24.8893 211.558 25.3063 211.558 25.7393C211.558 26.2132 211.485 26.6576 211.34 27.0723C211.198 27.4824 210.991 27.8402 210.717 28.1455C210.439 28.4554 210.1 28.6992 209.699 28.877C209.302 29.0501 208.849 29.1367 208.339 29.1367C207.814 29.1367 207.347 29.0365 206.937 28.8359C206.527 28.6354 206.181 28.3643 205.898 28.0225C205.597 27.667 205.369 27.25 205.215 26.7715C205.06 26.2884 204.982 25.7803 204.982 25.2471V24.5703C204.982 23.7682 205.085 23.0049 205.29 22.2803C205.499 21.5511 205.846 20.9245 206.329 20.4004C206.739 19.9492 207.245 19.6029 207.846 19.3613C208.448 19.1198 209.136 18.999 209.911 18.999H210.102ZM208.318 23.7363C208.122 23.7363 207.935 23.766 207.757 23.8252C207.58 23.8844 207.416 23.9665 207.265 24.0713C207.129 24.1761 207.006 24.2969 206.896 24.4336C206.787 24.5703 206.696 24.723 206.623 24.8916V25.3975C206.623 25.7939 206.666 26.1426 206.753 26.4434C206.844 26.7441 206.967 26.9948 207.122 27.1953C207.277 27.3958 207.457 27.5485 207.662 27.6533C207.867 27.7581 208.086 27.8105 208.318 27.8105C208.573 27.8105 208.801 27.7604 209.002 27.6602C209.202 27.5553 209.373 27.4141 209.514 27.2363C209.656 27.054 209.763 26.8398 209.836 26.5938C209.909 26.3431 209.945 26.0719 209.945 25.7803C209.945 25.5023 209.909 25.2402 209.836 24.9941C209.767 24.7435 209.665 24.5247 209.528 24.3379C209.391 24.151 209.22 24.0052 209.015 23.9004C208.815 23.791 208.582 23.7363 208.318 23.7363ZM218.37 18.999V20.3867H218.261C217.719 20.3867 217.247 20.4619 216.846 20.6123C216.45 20.7581 216.115 20.9632 215.841 21.2275C215.563 21.4919 215.347 21.8086 215.192 22.1777C215.041 22.5469 214.948 22.9434 214.911 23.3672C215.021 23.2441 215.148 23.1257 215.294 23.0117C215.44 22.8932 215.602 22.7884 215.78 22.6973C215.948 22.6107 216.135 22.5423 216.34 22.4922C216.545 22.4375 216.762 22.4102 216.99 22.4102C217.473 22.4102 217.892 22.5013 218.247 22.6836C218.607 22.8659 218.904 23.112 219.136 23.4219C219.373 23.7318 219.546 24.0872 219.656 24.4883C219.77 24.8893 219.826 25.3063 219.826 25.7393C219.826 26.2132 219.754 26.6576 219.608 27.0723C219.466 27.4824 219.259 27.8402 218.986 28.1455C218.708 28.4554 218.368 28.6992 217.967 28.877C217.571 29.0501 217.117 29.1367 216.607 29.1367C216.083 29.1367 215.616 29.0365 215.205 28.8359C214.795 28.6354 214.449 28.3643 214.166 28.0225C213.866 27.667 213.638 27.25 213.483 26.7715C213.328 26.2884 213.25 25.7803 213.25 25.2471V24.5703C213.25 23.7682 213.353 23.0049 213.558 22.2803C213.768 21.5511 214.114 20.9245 214.597 20.4004C215.007 19.9492 215.513 19.6029 216.115 19.3613C216.716 19.1198 217.404 18.999 218.179 18.999H218.37ZM216.586 23.7363C216.39 23.7363 216.203 23.766 216.026 23.8252C215.848 23.8844 215.684 23.9665 215.534 24.0713C215.397 24.1761 215.274 24.2969 215.164 24.4336C215.055 24.5703 214.964 24.723 214.891 24.8916V25.3975C214.891 25.7939 214.934 26.1426 215.021 26.4434C215.112 26.7441 215.235 26.9948 215.39 27.1953C215.545 27.3958 215.725 27.5485 215.93 27.6533C216.135 27.7581 216.354 27.8105 216.586 27.8105C216.841 27.8105 217.069 27.7604 217.27 27.6602C217.47 27.5553 217.641 27.4141 217.783 27.2363C217.924 27.054 218.031 26.8398 218.104 26.5938C218.177 26.3431 218.213 26.0719 218.213 25.7803C218.213 25.5023 218.177 25.2402 218.104 24.9941C218.035 24.7435 217.933 24.5247 217.796 24.3379C217.659 24.151 217.489 24.0052 217.284 23.9004C217.083 23.791 216.851 23.7363 216.586 23.7363Z" fill="#E8178A"/>
<g clip-path="url(#clip3_196_1741)">
<line x1="253.264" y1="59.5" x2="268.264" y2="59.5" stroke="#E8178A"/>
<line x1="260.764" y1="127" x2="260.764" y2="60" stroke="#E8178A"/>
<line x1="253.264" y1="125.5" x2="268.264" y2="125.5" stroke="#E8178A"/>
</g>
<path d="M278.204 87.499V88.8867H278.095C277.552 88.8867 277.081 88.9619 276.68 89.1123C276.283 89.2581 275.948 89.4632 275.675 89.7275C275.397 89.9919 275.18 90.3086 275.025 90.6777C274.875 91.0469 274.782 91.4434 274.745 91.8672C274.854 91.7441 274.982 91.6257 275.128 91.5117C275.274 91.3932 275.436 91.2884 275.613 91.1973C275.782 91.1107 275.969 91.0423 276.174 90.9922C276.379 90.9375 276.595 90.9102 276.823 90.9102C277.306 90.9102 277.726 91.0013 278.081 91.1836C278.441 91.3659 278.737 91.612 278.97 91.9219C279.207 92.2318 279.38 92.5872 279.489 92.9883C279.603 93.3893 279.66 93.8063 279.66 94.2393C279.66 94.7132 279.587 95.1576 279.441 95.5723C279.3 95.9824 279.093 96.3402 278.819 96.6455C278.541 96.9554 278.202 97.1992 277.801 97.377C277.404 97.5501 276.951 97.6367 276.44 97.6367C275.916 97.6367 275.449 97.5365 275.039 97.3359C274.629 97.1354 274.283 96.8643 274 96.5225C273.699 96.167 273.471 95.75 273.316 95.2715C273.161 94.7884 273.084 94.2803 273.084 93.7471V93.0703C273.084 92.2682 273.187 91.5049 273.392 90.7803C273.601 90.0511 273.948 89.4245 274.431 88.9004C274.841 88.4492 275.347 88.1029 275.948 87.8613C276.55 87.6198 277.238 87.499 278.013 87.499H278.204ZM276.42 92.2363C276.224 92.2363 276.037 92.266 275.859 92.3252C275.682 92.3844 275.518 92.4665 275.367 92.5713C275.23 92.6761 275.107 92.7969 274.998 92.9336C274.889 93.0703 274.798 93.223 274.725 93.3916V93.8975C274.725 94.2939 274.768 94.6426 274.854 94.9434C274.946 95.2441 275.069 95.4948 275.224 95.6953C275.379 95.8958 275.559 96.0485 275.764 96.1533C275.969 96.2581 276.188 96.3105 276.42 96.3105C276.675 96.3105 276.903 96.2604 277.104 96.1602C277.304 96.0553 277.475 95.9141 277.616 95.7363C277.757 95.554 277.865 95.3398 277.938 95.0938C278.01 94.8431 278.047 94.5719 278.047 94.2803C278.047 94.0023 278.01 93.7402 277.938 93.4941C277.869 93.2435 277.767 93.0247 277.63 92.8379C277.493 92.651 277.322 92.5052 277.117 92.4004C276.917 92.291 276.684 92.2363 276.42 92.2363ZM288.01 88.4629L284.032 97.5H282.309L286.288 88.9141H281.127V87.5469H288.01V88.4629Z" fill="#E8178A"/>
<defs>
<clipPath id="clip0_196_1741">
<rect width="90" height="15" fill="white" transform="translate(48 25)"/>
</clipPath>
<clipPath id="clip1_196_1741">
<rect width="15" height="91" fill="white" transform="translate(25 48)"/>
</clipPath>
<clipPath id="clip2_196_1741">
<rect width="66.2637" height="15" fill="white" transform="translate(179 36)"/>
</clipPath>
<clipPath id="clip3_196_1741">
<rect width="15" height="67" fill="white" transform="translate(253.264 59)"/>
</clipPath>
</defs>
</svg>
