<svg width="67" height="67" viewBox="0 0 67 67" fill="none" xmlns="http://www.w3.org/2000/svg">
<path fill-rule="evenodd" clip-rule="evenodd" d="M61.6711 5.74623H33.3397C31.5743 2.33622 28.016 0 23.9192 0C18.0738 0 13.3168 4.75594 13.3168 10.6024C13.3168 16.4488 18.0738 21.2048 23.9192 21.2048C24.4792 21.2048 25.0294 21.1596 25.5658 21.0761V27.0561H5.25109C2.35587 27.0561 0 29.412 0 32.3072V53.2114C0 56.1066 2.35587 58.4624 5.25109 58.4624H7.70127V65.8788C7.70127 66.3199 7.96849 66.7158 8.37816 66.8809C8.50882 66.933 8.64538 66.9585 8.78096 66.9585C9.06881 66.9585 9.35175 66.8436 9.56002 66.6264L17.4028 58.4624H31.315C32.3082 63.3048 36.6034 66.9585 41.7356 66.9585C47.6007 66.9585 52.3733 62.1868 52.3733 56.3217C52.3733 50.4556 47.6007 45.684 41.7356 45.684C41.5057 45.684 41.2778 45.6938 41.0518 45.7085V37.41H49.4172L57.3317 45.6486C57.5399 45.8647 57.8229 45.9807 58.1107 45.9807C58.2463 45.9807 58.3838 45.9551 58.5145 45.9021C58.9232 45.738 59.1914 45.3411 59.1914 44.901V37.41H61.6711C64.5869 37.41 66.9595 35.0374 66.9595 32.1215V11.0337C66.9595 8.11782 64.5869 5.74623 61.6711 5.74623ZM15.4772 10.6024C15.4772 5.94665 19.2645 2.15938 23.9192 2.15938C28.575 2.15938 32.3622 5.94665 32.3622 10.6024C32.3622 15.2571 28.575 19.0444 23.9192 19.0444C19.2645 19.0444 15.4772 15.2571 15.4772 10.6024ZM50.213 56.3217C50.213 60.9961 46.41 64.7991 41.7356 64.7991C37.0612 64.7991 33.2582 60.9961 33.2582 56.3217C33.2582 51.6473 37.0612 47.8443 41.7356 47.8443C46.41 47.8443 50.213 51.6473 50.213 56.3217ZM31.0988 56.3021H16.943C16.6492 56.3021 16.3673 56.4219 16.1639 56.6341L9.86065 63.1958V57.3818C9.86065 56.7854 9.37729 56.3021 8.78096 56.3021H5.25109C3.54657 56.3021 2.16036 54.9159 2.16036 53.2114V32.3072C2.16036 30.6027 3.54657 29.2155 5.25109 29.2155H35.8007C37.5052 29.2155 38.8914 30.6027 38.8914 32.3072V46.073C34.4096 47.3187 31.1077 51.4302 31.0988 56.3021ZM64.7991 32.1215C64.7991 33.8467 63.3962 35.2496 61.6711 35.2496H58.1107C57.5144 35.2496 57.031 35.7329 57.031 36.3293V42.218L50.656 35.5816C50.4527 35.3694 50.1707 35.2496 49.877 35.2496H41.0518V32.3072C41.0518 29.412 38.6959 27.0561 35.8007 27.0561H27.7252V20.4955C31.6961 18.9619 34.5216 15.1068 34.5216 10.6024C34.5216 9.67006 34.3998 8.7672 34.1738 7.90561H61.672C63.3962 7.90561 64.7991 9.30852 64.7991 11.0337V32.1215ZM58.0498 14.5567C58.0498 15.153 57.5665 15.6373 56.9701 15.6373H35.5551C34.9588 15.6373 34.4744 15.153 34.4744 14.5567C34.4744 13.9603 34.9588 13.477 35.5551 13.477H56.9701C57.5665 13.477 58.0498 13.9603 58.0498 14.5567ZM58.0498 21.5751C58.0498 22.1715 57.5665 22.6548 56.9701 22.6548H35.5551C34.9588 22.6548 34.4744 22.1715 34.4744 21.5751C34.4744 20.9788 34.9588 20.4955 35.5551 20.4955H56.9701C57.5665 20.4955 58.0498 20.9788 58.0498 21.5751ZM58.0498 28.5936C58.0498 29.19 57.5665 29.6743 56.9701 29.6743H43.0609C42.4636 29.6743 41.9802 29.19 41.9802 28.5936C41.9802 27.9973 42.4636 27.5139 43.0609 27.5139H56.9701C57.5665 27.5139 58.0498 27.9973 58.0498 28.5936ZM35.3144 42.5648C35.3134 42.5589 35.3125 42.552 35.3125 42.5461C35.3105 42.5147 35.3075 42.4842 35.3026 42.4528C35.3017 42.4429 35.2997 42.4331 35.2977 42.4233C35.2928 42.3968 35.2869 42.3702 35.28 42.3437C35.2771 42.3309 35.2732 42.3192 35.2702 42.3074C35.2633 42.2838 35.2555 42.2612 35.2466 42.2376C35.2417 42.2239 35.2358 42.2101 35.2299 42.1963C35.2211 42.1757 35.2123 42.1561 35.2024 42.1364C35.1955 42.1207 35.1867 42.106 35.1788 42.0912C35.1739 42.0814 35.17 42.0726 35.1641 42.0637L31.2511 35.4608C31.2491 35.4579 31.2462 35.4539 31.2432 35.45C31.199 35.3763 31.146 35.3085 31.0851 35.2486C31.0772 35.2407 31.0684 35.2329 31.0595 35.225C31.0379 35.2044 31.0143 35.1838 30.9907 35.1651C30.9799 35.1572 30.9691 35.1484 30.9583 35.1405C30.9298 35.1199 30.9013 35.1003 30.8709 35.0826C30.865 35.0796 30.8601 35.0757 30.8542 35.0718C30.8188 35.0521 30.7825 35.0354 30.7461 35.0197C30.7334 35.0138 30.7206 35.0099 30.7068 35.004C30.6803 34.9942 30.6518 34.9843 30.6243 34.9765C30.6115 34.9725 30.5988 34.9686 30.586 34.9657C30.5457 34.9558 30.5064 34.947 30.4651 34.9421C30.4642 34.9411 30.4642 34.9411 30.4632 34.9411C30.4209 34.9362 30.3777 34.9332 30.3345 34.9332C30.3296 34.9332 30.3256 34.9323 30.3217 34.9323C30.3148 34.9323 30.308 34.9332 30.3011 34.9332C30.2687 34.9342 30.2362 34.9362 30.2028 34.9401C30.1911 34.9411 30.1783 34.9431 30.1655 34.9441C30.1311 34.9499 30.0967 34.9568 30.0624 34.9647C30.0545 34.9666 30.0466 34.9676 30.0398 34.9696C30.0378 34.9706 30.0358 34.9706 30.0339 34.9716C28.1781 35.4854 27.5434 35.2447 26.7408 34.9411C25.9352 34.6356 24.9596 34.2672 23.0842 34.5029C22.6087 33.5716 21.6419 32.932 20.5259 32.932C19.4099 32.932 18.4432 33.5716 17.9677 34.5029C16.0932 34.2672 15.1166 34.6356 14.3111 34.9411C13.5084 35.2457 12.8747 35.4854 11.018 34.9716C11.016 34.9706 11.014 34.9706 11.0121 34.9706C11.0052 34.9686 10.9963 34.9666 10.9885 34.9647C10.9551 34.9568 10.9207 34.9499 10.8873 34.945C10.8735 34.9431 10.8608 34.9411 10.847 34.9401C10.8156 34.9362 10.7851 34.9342 10.7547 34.9342C10.7458 34.9332 10.738 34.9323 10.7301 34.9323C10.7252 34.9323 10.7203 34.9332 10.7154 34.9332C10.6741 34.9332 10.6338 34.9362 10.5926 34.9411C10.5847 34.9421 10.5778 34.9441 10.57 34.945C10.5366 34.9499 10.5032 34.9568 10.4707 34.9647C10.454 34.9696 10.4373 34.9745 10.4216 34.9794C10.398 34.9863 10.3754 34.9942 10.3528 35.002C10.3361 35.0089 10.3185 35.0148 10.3018 35.0217C10.2752 35.0335 10.2497 35.0462 10.2241 35.06C10.2035 35.0708 10.1839 35.0826 10.1642 35.0944C10.1416 35.1081 10.119 35.1229 10.0974 35.1386C10.0837 35.1484 10.0699 35.1592 10.0562 35.17C10.0365 35.1857 10.0169 35.2034 9.99721 35.2211C9.9864 35.2309 9.97461 35.2407 9.96479 35.2516C9.93531 35.281 9.9078 35.3105 9.88226 35.3429C9.8803 35.3459 9.87833 35.3488 9.87538 35.3518C9.85181 35.3832 9.83019 35.4156 9.80956 35.449C9.80661 35.4539 9.80367 35.4569 9.80072 35.4618L5.8877 42.0637C5.88181 42.0726 5.87788 42.0814 5.87297 42.0912C5.86511 42.106 5.85725 42.1207 5.84939 42.1364C5.83956 42.1561 5.83072 42.1757 5.82188 42.1963C5.81598 42.2101 5.81009 42.2239 5.80518 42.2376C5.79634 42.2612 5.78946 42.2838 5.78258 42.3074C5.77865 42.3192 5.77472 42.3319 5.77178 42.3437C5.7649 42.3702 5.759 42.3968 5.75507 42.4233C5.75311 42.4331 5.75016 42.4429 5.74918 42.4528C5.74427 42.4842 5.74132 42.5147 5.73936 42.5461C5.73936 42.552 5.73837 42.5589 5.73837 42.5648C5.73444 42.6404 5.73936 42.7161 5.75114 42.7907C5.75213 42.7927 5.75213 42.7946 5.75213 42.7976C6.16966 45.2252 8.26322 46.9877 10.7301 46.9877C13.197 46.9877 15.2905 45.2252 15.7081 42.7976C15.7081 42.7946 15.7081 42.7917 15.7091 42.7888C15.714 42.7554 15.7179 42.721 15.7208 42.6866C15.7208 42.6836 15.7208 42.6817 15.7218 42.6787C15.7238 42.6414 15.7238 42.6031 15.7218 42.5657C15.7218 42.5579 15.7208 42.55 15.7199 42.5431C15.7179 42.5127 15.7149 42.4832 15.711 42.4537C15.7091 42.4429 15.7071 42.4321 15.7051 42.4223C15.7002 42.3958 15.6953 42.3702 15.6884 42.3437C15.6855 42.3319 15.6815 42.3192 15.6776 42.3074C15.6707 42.2838 15.6629 42.2612 15.655 42.2376C15.6491 42.2239 15.6432 42.2101 15.6383 42.1963C15.6295 42.1767 15.6206 42.1561 15.6108 42.1364C15.603 42.1207 15.5951 42.106 15.5872 42.0912C15.5813 42.0824 15.5774 42.0726 15.5725 42.0637L12.8266 37.4316C12.8345 37.4316 12.8433 37.4316 12.8521 37.4316C13.8346 37.4316 14.48 37.1869 15.0774 36.961C15.7768 36.6957 16.3958 36.4639 17.781 36.6564C18.0374 37.4797 18.6544 38.1438 19.4462 38.4661L19.4482 46.7627C16.9391 47.1242 14.7099 48.7207 13.587 51.0363C13.4249 51.3703 13.4465 51.7652 13.644 52.0806C13.8415 52.3959 14.1873 52.5875 14.5586 52.5875H26.4991C26.8714 52.5875 27.2172 52.3959 27.4147 52.0806C27.6122 51.7652 27.6328 51.3703 27.4707 51.0363C26.3488 48.7207 24.1177 47.1232 21.6085 46.7627L21.6066 38.4661C22.3974 38.1428 23.0144 37.4787 23.2708 36.6564C24.657 36.4639 25.276 36.6957 25.9754 36.961C26.5718 37.1869 27.2172 37.4316 28.2006 37.4316C28.2085 37.4316 28.2173 37.4316 28.2252 37.4316L25.4793 42.0637C25.4744 42.0726 25.4705 42.0824 25.4656 42.0912C25.4567 42.106 25.4489 42.1207 25.441 42.1364C25.4312 42.1561 25.4223 42.1767 25.4135 42.1963C25.4086 42.2101 25.4027 42.2239 25.3968 42.2376C25.3889 42.2612 25.3811 42.2848 25.3742 42.3074C25.3703 42.3201 25.3673 42.3319 25.3634 42.3437C25.3565 42.3702 25.3516 42.3968 25.3467 42.4233C25.3447 42.4331 25.3428 42.4429 25.3408 42.4528C25.3359 42.4842 25.3329 42.5156 25.332 42.5461C25.331 42.553 25.33 42.5589 25.33 42.5648C25.3261 42.6404 25.331 42.7161 25.3437 42.7907C25.3437 42.7927 25.3437 42.7956 25.3447 42.7976C25.7623 45.2262 27.8558 46.9877 30.3217 46.9877C32.7886 46.9877 34.8822 45.2262 35.2997 42.7976C35.2997 42.7956 35.2997 42.7927 35.3007 42.7907C35.3125 42.7161 35.3174 42.6404 35.3144 42.5648ZM10.7301 38.1301L12.748 41.5342H8.71219L10.7301 38.1301ZM10.7301 44.8273C9.79974 44.8273 8.96173 44.3901 8.43023 43.6946H13.03C12.4985 44.3901 11.6605 44.8273 10.7301 44.8273ZM20.5259 35.0914C20.9199 35.0914 21.2392 35.4117 21.2392 35.8047C21.2392 36.1976 20.9199 36.5179 20.5259 36.5179C20.1329 36.5179 19.8127 36.1976 19.8127 35.8047C19.8127 35.4117 20.1329 35.0914 20.5259 35.0914ZM16.6404 50.4271C17.6582 49.4251 19.0375 48.8454 20.5289 48.8454C22.0202 48.8454 23.4005 49.4251 24.4183 50.4271H16.6404ZM32.3396 41.5342H28.3038L30.3217 38.1301L32.3396 41.5342ZM30.3217 44.8273C29.3914 44.8273 28.5543 44.3901 28.0228 43.6946H32.6216C32.0901 44.3901 31.2521 44.8273 30.3217 44.8273ZM29.1958 6.99883C29.5967 7.43994 29.5643 8.12371 29.1222 8.52454L22.7796 14.2796C22.5733 14.4673 22.3139 14.5606 22.0546 14.5606C21.7775 14.5606 21.5005 14.4545 21.2902 14.2433L18.6789 11.632C18.2575 11.2105 18.2575 10.5267 18.6789 10.1053C19.1014 9.68381 19.7852 9.68381 20.2066 10.1053L22.0899 11.9886L27.6701 6.92515C28.1122 6.52432 28.795 6.55674 29.1958 6.99883ZM37.3873 53.2143C37.3873 50.8162 39.3385 48.8661 41.7356 48.8661C44.1337 48.8661 46.0838 50.8162 46.0838 53.2143C46.0838 54.9139 45.0837 56.4681 43.5364 57.1725C43.2819 57.2884 43.1414 57.5065 43.1414 57.7865V58.5774C43.1414 59.1737 42.6581 59.6571 42.0618 59.6571C41.4654 59.6571 40.9821 59.1737 40.9821 58.5774V57.7865C40.9821 56.6616 41.6177 55.6733 42.6414 55.2067C43.4205 54.852 43.9235 54.07 43.9235 53.2143C43.9235 52.0069 42.942 51.0254 41.7356 51.0254C40.5292 51.0254 39.5477 52.0069 39.5477 53.2143C39.5477 53.8106 39.0634 54.294 38.467 54.294C37.8707 54.294 37.3873 53.8106 37.3873 53.2143ZM43.4136 61.9334C43.4136 62.68 42.8084 63.2852 42.0618 63.2852C41.3151 63.2852 40.7099 62.68 40.7099 61.9334C40.7099 61.1867 41.3151 60.5815 42.0618 60.5815C42.8084 60.5815 43.4136 61.1867 43.4136 61.9334Z" fill="#002B5A"/>
</svg>
