<svg width="67" height="75" viewBox="0 0 67 75" fill="none" xmlns="http://www.w3.org/2000/svg">
<path d="M27.9799 30.1837L26.3164 32.0014L29.9617 35.3382L40.8269 23.4606L37.1833 20.1262L35.5149 21.9489L27.984 30.1788L27.9799 30.1837Z" fill="#002B5A"/>
<mask id="mask0_196_1279" style="mask-type:luminance" maskUnits="userSpaceOnUse" x="4" y="0" width="15" height="16">
<path d="M4.16406 0H18.9206V15.3119H4.16406V0Z" fill="white"/>
</mask>
<g mask="url(#mask0_196_1279)">
<path d="M9.68087 13.4316L17.2118 5.20167L18.8785 3.37902L15.2349 0.0422363L4.36719 11.9183L8.01248 15.2542L9.68087 13.4316Z" fill="#002B5A"/>
</g>
<path d="M12.3652 14.1962L16.9247 18.3676C16.9263 18.3708 16.9296 18.3717 16.9312 18.3733L22.4178 23.3955L26.9838 27.5726L32.8292 21.184L18.2107 7.80762L12.3652 14.1962Z" fill="#002B5A"/>
<path d="M29.7949 11.6746C30.2601 11.1656 30.226 10.3764 29.7169 9.9096C29.2079 9.4444 28.4187 9.48012 27.9535 9.98916L26.2852 11.8118L28.1289 13.4956L29.7949 11.6746Z" fill="#002B5A"/>
<path d="M16.1671 21.0591L0.617418 38.0531C-0.260213 39.0128 -0.194452 40.5074 0.765178 41.3867L0.929175 41.5361C1.39438 41.9607 1.99678 42.1791 2.62679 42.1523C3.25599 42.1247 3.8381 41.8527 4.26271 41.3883L19.8124 24.3942L16.1671 21.0591Z" fill="#002B5A"/>
<mask id="mask1_196_1279" style="mask-type:luminance" maskUnits="userSpaceOnUse" x="30" y="40" width="37" height="35">
<path d="M30.3516 40.876H66.9311V74.4736H30.3516V40.876Z" fill="white"/>
</mask>
<g mask="url(#mask1_196_1279)">
<path d="M66.5954 70.5001L51.0448 42.4362C50.5707 41.5829 49.7061 41.0723 48.7294 41.0723C47.7519 41.0723 46.8864 41.5829 46.4131 42.4362L43.764 47.2181L43.7339 47.2709L39.6454 54.6516L39.6145 54.7068L35.5211 62.0924L35.4918 62.1451L30.8634 70.5001C30.4031 71.329 30.4169 72.3122 30.8975 73.1281C31.3781 73.944 32.2314 74.4312 33.1788 74.4312H64.2799C65.2266 74.4312 66.0806 73.944 66.5613 73.1281C67.0419 72.3122 67.0541 71.329 66.5954 70.5001ZM48.7294 70.9653C47.3354 70.9653 46.2077 69.836 46.2077 68.442C46.2077 67.0496 47.3354 65.9203 48.7294 65.9203C50.1225 65.9203 51.251 67.0496 51.251 68.442C51.251 69.836 50.1225 70.9653 48.7294 70.9653ZM51.6976 53.204L50.7672 60.6537C50.6381 61.6808 49.7653 62.4528 48.7294 62.4528C47.6934 62.4528 46.819 61.6808 46.6916 60.6537L45.7596 53.204C45.5371 51.4187 46.9303 49.8413 48.7294 49.8413C50.401 49.8413 51.7211 51.202 51.7211 52.8257C51.7211 52.9491 51.713 53.0758 51.6976 53.204Z" fill="#002B5A"/>
</g>
<path d="M12.2324 52.8104H37.8104L40.5472 47.8718H12.2324V52.8104Z" fill="#002B5A"/>
<path d="M36.4282 55.3079H8.51367V60.2497H33.6897L36.4282 55.3079Z" fill="#002B5A"/>
</svg>
