<svg width="67" height="85" viewBox="0 0 67 85" fill="none" xmlns="http://www.w3.org/2000/svg">
<mask id="mask0_196_1239" style="mask-type:luminance" maskUnits="userSpaceOnUse" x="0" y="0" width="67" height="85">
<path d="M0 0H66.93V84.0228H0V0Z" fill="white"/>
</mask>
<g mask="url(#mask0_196_1239)">
<path d="M66.1215 5.06732H59.1429V0.667486C59.1429 0.29833 58.8435 0 58.4754 0H0.704596C0.336513 0 0.0371094 0.29833 0.0371094 0.667486V78.3706C0.0371094 78.7398 0.336513 79.0392 0.704596 79.0392H7.68423V83.439C7.68423 83.8071 7.98256 84.1065 8.35171 84.1065H66.1215C66.4896 84.1065 66.789 83.8071 66.789 83.439V5.7348C66.789 5.36672 66.4896 5.06732 66.1215 5.06732ZM1.37208 1.33497H57.8079V77.7031H1.37208V1.33497ZM65.454 82.7715H9.0192V79.0392H58.4754C58.8446 79.0392 59.1429 78.7398 59.1429 78.3706V6.40229H65.454V82.7715Z" fill="#002B5A"/>
</g>
<path d="M9.01935 12.4913C9.01935 12.4752 9.01076 12.4623 9.00969 12.4462C9.00647 12.4011 8.99574 12.3593 8.98393 12.3164C8.97106 12.2724 8.95925 12.2294 8.93779 12.1897C8.93135 12.1758 8.93135 12.1608 8.92277 12.1468L6.79046 8.61299L10.7181 7.14925C11.0197 7.54523 11.4414 7.83927 11.9318 7.98414V15.2578C10.3543 15.5132 9.0172 16.6572 8.56005 18.2154C8.50103 18.4171 8.54073 18.6349 8.66629 18.8034C8.79184 18.9719 8.99037 19.0717 9.20071 19.0717H15.9968C16.2072 19.0717 16.4057 18.973 16.5313 18.8034C16.6568 18.6349 16.6965 18.4171 16.6375 18.2154C16.1803 16.6572 14.8432 15.5132 13.2668 15.2578V7.98414C13.7561 7.83927 14.179 7.54523 14.4805 7.14925L18.4082 8.61299L16.2758 12.1468C16.2673 12.1608 16.2673 12.1758 16.2598 12.1897C16.2394 12.2294 16.2276 12.2724 16.2147 12.3164C16.2029 12.3604 16.1911 12.4011 16.1889 12.4462C16.1879 12.4623 16.1793 12.4752 16.1793 12.4913C16.1793 14.2577 17.6226 15.6924 19.3954 15.6924C21.1682 15.6924 22.6116 14.2577 22.6116 12.4913C22.6116 12.4752 22.603 12.4623 22.6019 12.4462C22.5998 12.4011 22.588 12.3593 22.5762 12.3164C22.5644 12.2724 22.5515 12.2294 22.5311 12.1897C22.5236 12.1758 22.5236 12.1608 22.515 12.1468L19.9663 7.92297C19.9513 7.89722 19.9266 7.88219 19.9084 7.85966C19.8837 7.82854 19.8601 7.79956 19.8301 7.77273C19.7861 7.7341 19.7388 7.70513 19.6873 7.68045C19.6659 7.66971 19.6508 7.6504 19.6283 7.64181L14.9495 5.89798C14.9527 5.84218 14.9656 5.79066 14.9656 5.73379C14.9656 4.43423 13.9042 3.3772 12.5993 3.3772C11.2944 3.3772 10.2331 4.43423 10.2331 5.73379C10.2331 5.79066 10.2459 5.84325 10.2502 5.89798L5.57031 7.64181C5.54777 7.6504 5.53275 7.66864 5.51236 7.67937C5.46085 7.70513 5.41256 7.7341 5.36749 7.77381C5.33851 7.79956 5.31383 7.82854 5.28915 7.85858C5.27091 7.88327 5.24622 7.89829 5.2312 7.92405L2.68252 12.1468C2.67393 12.1608 2.67393 12.1769 2.66642 12.1908C2.64603 12.2305 2.63423 12.2724 2.62135 12.3164C2.60955 12.3604 2.59774 12.4022 2.5956 12.4473C2.59452 12.4623 2.58594 12.4752 2.58594 12.4913C2.58594 14.2577 4.02822 15.6924 5.80211 15.6924C7.57599 15.6924 9.01935 14.2577 9.01935 12.4913ZM19.3954 9.56057L20.7615 11.8249H18.0293L19.3954 9.56057ZM19.3954 14.3575C18.5949 14.3575 17.9091 13.8595 17.6387 13.1588H21.1521C20.8817 13.8595 20.196 14.3575 19.3954 14.3575ZM14.9366 17.7367H10.261C10.79 17.0016 11.6571 16.537 12.5993 16.537C13.5404 16.537 14.4075 17.0027 14.9366 17.7367ZM12.5993 4.71324C13.1681 4.71324 13.6306 5.17147 13.6306 5.73486C13.6306 6.29825 13.1681 6.75648 12.5993 6.75648C12.0305 6.75648 11.568 6.29825 11.568 5.73486C11.568 5.17147 12.0305 4.71324 12.5993 4.71324ZM7.1682 11.8238H4.43601L5.80318 9.55949L7.1682 11.8238ZM4.04647 13.1588H7.55882C7.28839 13.8595 6.60266 14.3575 5.80211 14.3575C5.00262 14.3575 4.31689 13.8595 4.04647 13.1588Z" fill="#002B5A"/>
<path d="M29.5913 8.93605H46.5822C46.9513 8.93605 47.2497 8.63772 47.2497 8.26856C47.2497 7.90048 46.9513 7.60107 46.5822 7.60107H29.5913C29.2232 7.60107 28.9238 7.90048 28.9238 8.26856C28.9238 8.63772 29.2232 8.93605 29.5913 8.93605Z" fill="#002B5A"/>
<path d="M27.0425 14.8489H53.3792C53.7484 14.8489 54.0467 14.5495 54.0467 14.1814C54.0467 13.8122 53.7484 13.5139 53.3792 13.5139H27.0425C26.6744 13.5139 26.375 13.8122 26.375 14.1814C26.375 14.5495 26.6733 14.8489 27.0425 14.8489Z" fill="#002B5A"/>
<path d="M17.6962 23.6487H7.50147C7.13231 23.6487 6.83398 23.9481 6.83398 24.3162C6.83398 24.6853 7.13231 24.9837 7.50147 24.9837H17.6962C18.0643 24.9837 18.3637 24.6853 18.3637 24.3162C18.3637 23.9481 18.0643 23.6487 17.6962 23.6487Z" fill="#002B5A"/>
<path d="M11.082 29.3845C11.082 29.7526 11.3804 30.052 11.7495 30.052H51.6785C52.0466 30.052 52.346 29.7526 52.346 29.3845C52.346 29.0164 52.0466 28.717 51.6785 28.717H11.7495C11.3804 28.717 11.082 29.0154 11.082 29.3845Z" fill="#002B5A"/>
<path d="M7.50147 36.8084H51.679C52.0471 36.8084 52.3465 36.509 52.3465 36.1409C52.3465 35.7728 52.0471 35.4734 51.679 35.4734H7.50147C7.13231 35.4734 6.83398 35.7728 6.83398 36.1409C6.83398 36.509 7.13231 36.8084 7.50147 36.8084Z" fill="#002B5A"/>
<path d="M7.50147 44.4104H51.679C52.0471 44.4104 52.3465 44.111 52.3465 43.7429C52.3465 43.3738 52.0471 43.0754 51.679 43.0754H7.50147C7.13231 43.0754 6.83398 43.3738 6.83398 43.7429C6.83398 44.111 7.13231 44.4104 7.50147 44.4104Z" fill="#002B5A"/>
<path d="M25.3433 51.1668H51.68C52.0481 51.1668 52.3475 50.8674 52.3475 50.4993C52.3475 50.1301 52.0481 49.8318 51.68 49.8318H25.3433C24.9741 49.8318 24.6758 50.1301 24.6758 50.4993C24.6758 50.8674 24.9741 51.1668 25.3433 51.1668Z" fill="#002B5A"/>
<path d="M26.0115 64.0132C26.0115 58.0562 21.1385 53.21 15.1483 53.21C9.15912 53.21 4.28711 58.0562 4.28711 64.0132C4.28711 69.9701 9.16019 74.8163 15.1483 74.8163C21.1385 74.8163 26.0115 69.9701 26.0115 64.0132ZM5.62208 64.0132C5.62208 58.7924 9.89636 54.5449 15.1483 54.5449C20.4023 54.5449 24.6766 58.7924 24.6766 64.0132C24.6766 69.2339 20.4023 73.4814 15.1483 73.4814C9.89636 73.4814 5.62208 69.2339 5.62208 64.0132Z" fill="#002B5A"/>
<path d="M22.6119 64.0131C22.6119 59.9191 19.2637 56.5881 15.1472 56.5881C11.0318 56.5881 7.68359 59.9191 7.68359 64.0131C7.68359 68.1071 11.0318 71.4381 15.1472 71.4381C19.2637 71.4381 22.6119 68.1071 22.6119 64.0131ZM9.01964 64.0131C9.01964 60.6553 11.769 57.9231 15.1483 57.9231C18.5276 57.9231 21.278 60.6542 21.278 64.0131C21.278 67.3709 18.5276 70.1021 15.1483 70.1021C11.769 70.1021 9.01964 67.3709 9.01964 64.0131Z" fill="#002B5A"/>
<path d="M18.1253 60.9666C17.8431 60.7305 17.4224 60.767 17.1852 61.0503L13.5087 65.4361L12.3046 63.6408C12.0986 63.335 11.6844 63.2523 11.3775 63.4584C11.0716 63.6644 10.9901 64.0786 11.195 64.3855L12.8938 66.9192C13.0108 67.0931 13.2029 67.2025 13.4132 67.2132C13.425 67.2143 13.4368 67.2143 13.4486 67.2143C13.645 67.2143 13.8328 67.1274 13.9605 66.9761L18.2079 61.9077C18.4451 61.6255 18.4075 61.2037 18.1253 60.9666Z" fill="#002B5A"/>
<path d="M53.1373 64.1066C52.3636 64.406 51.563 64.6732 50.7582 64.8997C49.8975 65.1411 49.0208 65.3407 48.1365 65.4942C48.2138 65.2989 48.2793 65.0993 48.3319 64.8954C48.5025 64.2354 48.7364 63.3318 48.2031 62.6794C47.6601 62.0151 46.5934 61.9443 45.0331 62.469C43.8698 62.8596 42.8954 63.5153 42.1141 64.2C42.1453 63.6098 42.0444 63.0399 41.6602 62.6396C40.821 61.764 39.2564 62.2222 36.8386 63.3071C34.3146 64.4382 31.8185 65.8247 29.4212 67.428C29.1153 67.6329 29.0327 68.0471 29.2377 68.3541C29.3664 68.5472 29.5778 68.6502 29.7935 68.6502C29.9202 68.6502 30.05 68.6138 30.1638 68.5376C32.4989 66.9762 34.9295 65.6262 37.3859 64.5251C40.1321 63.2932 40.6139 63.4799 40.6976 63.5647C40.7094 63.5765 40.9702 63.8705 40.5377 65.3557C40.3682 65.9374 40.0741 66.3752 39.9153 66.6102C39.529 67.1844 39.7254 67.5192 39.9582 67.6995C40.0999 67.8078 40.2834 67.8561 40.4626 67.8314C40.7674 67.7896 40.8994 67.6115 41.1612 67.2584C41.7214 66.5018 43.212 64.4908 45.458 63.7342C46.6417 63.3372 47.1149 63.4713 47.1675 63.525C47.2695 63.6666 47.0956 64.3406 47.0387 64.5627C46.91 65.0596 46.6771 65.5242 46.3476 65.9417C46.1802 66.1541 46.1577 66.4471 46.2897 66.6821C46.4217 66.9182 46.6825 67.0502 46.9518 67.018C48.3576 66.8474 49.7591 66.5673 51.1198 66.1842C51.9655 65.947 52.8068 65.6659 53.6202 65.3504C53.9636 65.2173 54.1343 64.831 54.0012 64.4865C53.8681 64.1442 53.4818 63.9735 53.1373 64.1066Z" fill="#002B5A"/>
<path d="M50.7629 69.2609L33.772 70.95C33.405 70.9876 33.1368 71.3138 33.1732 71.6808C33.2076 72.0253 33.4984 72.2818 33.8375 72.2818C33.859 72.2818 33.8815 72.2818 33.904 72.2785L50.8949 70.5894C51.2619 70.5529 51.5302 70.2267 51.4937 69.8586C51.4572 69.4916 51.1321 69.2201 50.7629 69.2609Z" fill="#002B5A"/>
</svg>
