<svg width="67" height="66" viewBox="0 0 67 66" fill="none" xmlns="http://www.w3.org/2000/svg">
<mask id="mask0_196_1351" style="mask-type:luminance" maskUnits="userSpaceOnUse" x="0" y="0" width="67" height="66">
<path d="M0 0H66.93V65.8369H0V0Z" fill="white"/>
</mask>
<g mask="url(#mask0_196_1351)">
<path fill-rule="evenodd" clip-rule="evenodd" d="M21.6324 46.586C21.2093 46.586 20.8662 46.2429 20.8662 45.8199C20.8662 45.396 21.2093 45.0529 21.6324 45.0529H29.3367C29.7598 45.0529 30.1029 45.396 30.1029 45.8199C30.1029 46.2429 29.7598 46.586 29.3367 46.586H21.6324ZM21.6324 51.3775C21.2093 51.3775 20.8662 51.0344 20.8662 50.6114C20.8662 50.1883 21.2093 49.8452 21.6324 49.8452H30.4484C30.8715 49.8452 31.2146 50.1883 31.2146 50.6114C31.2146 51.0344 30.8715 51.3775 30.4484 51.3775H21.6324ZM21.6324 32.8421C21.2093 32.8421 20.8662 32.4989 20.8662 32.0759C20.8662 31.6529 21.2093 31.3097 21.6324 31.3097H39.1595C39.5825 31.3097 39.9256 31.6529 39.9256 32.0759C39.9256 32.4989 39.5825 32.8421 39.1595 32.8421H21.6324ZM21.6324 37.6336C21.2093 37.6336 20.8662 37.2904 20.8662 36.8674C20.8662 36.4444 21.2093 36.1012 21.6324 36.1012H37.0411C37.4641 36.1012 37.8072 36.4444 37.8072 36.8674C37.8072 37.2904 37.4641 37.6336 37.0411 37.6336H21.6324ZM52.4828 30.9739C53.0036 31.1846 53.5388 31.3719 54.0862 31.5326C54.2356 31.577 54.3881 31.5729 54.527 31.5293C58.1907 30.4507 61.2876 28.208 63.469 25.2822C65.6585 22.346 66.9292 18.7203 66.9292 14.8919V7.10118C66.9292 6.72496 66.6587 6.41253 66.3019 6.34713L54.5109 2.94908C54.3647 2.90791 54.217 2.91114 54.0814 2.95231L48.2 4.6469V2.54865C48.2 1.85273 47.9158 1.21979 47.4572 0.76203C46.9995 0.304274 46.3673 0.0192871 45.6714 0.0192871H7.7552V0.0225164C7.5348 0.0225164 7.31682 0.117781 7.16585 0.301045L0.218786 8.71826L0.212328 8.72472L0.21152 8.72633C0.198603 8.73925 0.186493 8.75297 0.174383 8.76751C0.167117 8.77639 0.160658 8.78446 0.1542 8.79415L0.151778 8.79657L0.142897 8.80868L0.141283 8.8111L0.140475 8.81191L0.132402 8.82321L0.130787 8.82644L0.12998 8.82725L0.122714 8.83855L0.120292 8.84178L0.119485 8.84259L0.113026 8.85389L0.110604 8.85712L0.108182 8.86196L0.103338 8.86923L0.100916 8.87327L0.100109 8.87488L0.0920355 8.88941C0.0863844 8.89991 0.0815403 8.9104 0.0766963 8.9209L0.0750816 8.92251L0.0734669 8.92655L0.0670083 8.93947L0.0605497 8.95481L0.0581277 8.95965L0.0532837 8.97257L0.0524764 8.97499L0.0468251 8.98952L0.0460178 8.99114L0.0452104 8.99436C0.0395591 9.01051 0.0339077 9.02747 0.0290638 9.04361V9.04523L0.0282565 9.04765L0.0242199 9.06299V9.06379L0.0234125 9.06541L0.0193759 9.08236L0.0185686 9.08398L0.0153393 9.09932V9.10012L0.0145319 9.10255L0.0113026 9.11869V9.1195V9.12112L0.00807329 9.13807V9.13968L0.0056513 9.15744V9.15825L0.00403665 9.1744L0.00322932 9.17682V9.17763V9.17844L0.00161466 9.1962V9.197L0.000807329 9.21557L0 9.23495V58.0614C0 58.7581 0.28418 59.3903 0.741935 59.848C1.19969 60.3066 1.83264 60.5908 2.52855 60.5908H4.28207V63.2751C4.28207 63.9711 4.56706 64.604 5.02482 65.0618C5.48257 65.5195 6.11552 65.8037 6.81143 65.8037H49.9543C50.6502 65.8037 51.2832 65.5195 51.7409 65.0618C52.1987 64.604 52.4828 63.9711 52.4828 63.2751V55.6927L56.0504 58.6273C56.1828 58.7363 56.291 58.8582 56.3758 58.9971C56.4614 59.1352 56.5219 59.2869 56.5599 59.4573C56.647 59.8424 56.7972 60.2154 57.0095 60.5609C57.213 60.8919 57.4746 61.1946 57.791 61.4554C58.5685 62.0948 59.5341 62.3556 60.4657 62.2603C61.3941 62.1643 62.2911 61.7146 62.9345 60.9315C63.5772 60.15 63.846 59.1844 63.7604 58.2552C63.6748 57.3211 63.2332 56.4233 62.4558 55.7839C62.1393 55.524 61.7905 55.3262 61.4256 55.1897C61.0478 55.0485 60.653 54.9734 60.2582 54.9621C60.079 54.9572 59.9175 54.9274 59.7698 54.8725C59.6221 54.8176 59.4816 54.7336 59.3451 54.6214L52.4828 48.9765V44.4014L54.3074 42.1829C54.51 41.9366 54.594 41.6314 54.5658 41.3384C54.5367 41.0429 54.3954 40.7579 54.1492 40.5553L52.4828 39.1844V30.9739ZM8.73369 1.55241V7.49273C8.73369 8.18865 8.44951 8.8216 7.99094 9.27935C7.53319 9.73711 6.90105 10.0213 6.20432 10.0213H1.53231V58.0614C1.53231 58.3351 1.64453 58.5837 1.82537 58.7646C2.00702 58.9454 2.25568 59.0576 2.52855 59.0576H45.6714C45.9443 59.0576 46.1938 58.9454 46.3746 58.7646C46.5554 58.5837 46.6677 58.3351 46.6677 58.0614V50.9553C46.637 50.94 46.6063 50.9254 46.5756 50.9125C46.444 50.8584 46.3035 50.8237 46.1493 50.8084C45.9725 50.7898 45.7974 50.7631 45.6238 50.7268L45.6084 50.7236L44.9666 51.5035L45.2581 51.7424C45.5043 51.9459 45.6456 52.2309 45.6746 52.5264C45.7029 52.8194 45.6189 53.1246 45.4163 53.3708L43.2204 56.0407C43.0177 56.2869 42.7327 56.4282 42.4373 56.4572C42.1442 56.4855 41.839 56.4015 41.592 56.1989L31.8524 48.187C31.6053 47.9843 31.464 47.6993 31.4358 47.403C31.4075 47.11 31.4907 46.8048 31.6933 46.5586L33.8893 43.8887C34.0919 43.6425 34.3769 43.5012 34.6732 43.473C34.9662 43.4439 35.2714 43.5279 35.5176 43.7305L35.8083 43.9703L41.2198 37.3914L40.7427 36.999C40.4964 36.7964 40.3551 36.5114 40.3269 36.2159C40.2978 35.9228 40.3818 35.6168 40.5844 35.3706L42.8215 32.6507L42.828 32.6443L42.8296 32.6459C43.0274 32.4335 43.2914 32.3116 43.5635 32.285C43.8565 32.2559 44.1617 32.3399 44.4087 32.5425L46.6668 34.401V27.0721C46.1162 26.5102 45.6036 25.9119 45.1337 25.2822C42.9443 22.3452 41.6735 18.7203 41.6735 14.8919V7.10118H41.6767C41.6767 6.76856 41.8947 6.46339 42.2298 6.36732L46.6668 5.08851V2.54865C46.6668 2.27577 46.5546 2.02631 46.3738 1.84547C46.1929 1.66462 45.9443 1.55241 45.6714 1.55241H8.73369ZM49.5797 18.0203C49.2471 17.7595 49.1897 17.2784 49.4505 16.9457C49.7121 16.6131 50.1933 16.5558 50.5251 16.8174L53.421 19.0941L57.9727 13.8359C58.2488 13.517 58.7316 13.4823 59.0505 13.7584C59.3702 14.0345 59.4049 14.5173 59.1288 14.8362L54.1274 20.6126L54.1225 20.6191C53.861 20.9517 53.3798 21.009 53.048 20.7483L49.5797 18.0203ZM33.1086 47.2424L34.8338 45.1449L44.0019 52.687L42.2766 54.7845L33.1086 47.2424ZM49.1994 43.9549L43.7879 50.5331L36.9886 44.9399L42.3993 38.3618L49.1994 43.9549ZM21.6324 19.0989C21.2093 19.0989 20.8662 18.7558 20.8662 18.3319C20.8662 17.9089 21.2093 17.5658 21.6324 17.5658H39.1595C39.5825 17.5658 39.9256 17.9089 39.9256 18.3319C39.9256 18.7558 39.5825 19.0989 39.1595 19.0989H21.6324ZM21.6324 23.8904C21.2093 23.8904 20.8662 23.5473 20.8662 23.1242C20.8662 22.7004 21.2093 22.3573 21.6324 22.3573H40.7766C41.1996 22.3573 41.5427 22.7004 41.5427 23.1242C41.5427 23.5473 41.1996 23.8904 40.7766 23.8904H21.6324ZM16.4324 16.4347V17.5383L12.6266 21.248L9.95437 19.1465C9.56362 18.8397 8.99687 18.9076 8.69009 19.2983C8.3825 19.6891 8.45031 20.255 8.84187 20.5626L12.1325 23.1509C12.5055 23.4431 13.0376 23.3955 13.3524 23.0516L16.4324 20.0491V25.0215H7.84643V16.4347H16.4324ZM51.2823 49.9671L58.3747 55.8009C58.6428 56.0213 58.9278 56.1876 59.2362 56.303C59.5437 56.4177 59.8683 56.479 60.2154 56.4887C60.4447 56.4952 60.674 56.5388 60.892 56.6203C61.1019 56.6986 61.3021 56.8125 61.4854 56.9634C61.9351 57.3332 62.1902 57.8523 62.2402 58.3924C62.2903 58.9374 62.132 59.5033 61.755 59.9619C61.378 60.4196 60.8532 60.6836 60.3099 60.7393C59.7682 60.795 59.2095 60.6449 58.7606 60.2759C58.5774 60.1249 58.4264 59.9497 58.3085 59.7584C58.1874 59.5614 58.101 59.3459 58.0502 59.1214C57.9727 58.7783 57.8508 58.4707 57.6812 58.1946C57.5117 57.9185 57.2921 57.6715 57.02 57.4478L52.2519 53.5258C52.2205 53.4952 52.1866 53.4669 52.1502 53.4419L47.9699 50.0026C47.936 49.9704 47.8996 49.9405 47.8609 49.9138C47.6381 49.7386 47.408 49.6014 47.1625 49.4997C47.0237 49.4416 46.88 49.3955 46.7306 49.36L48.4551 47.2634C48.5197 47.403 48.5931 47.5354 48.6771 47.6614C48.8386 47.9036 49.0356 48.1183 49.2745 48.3145L51.1814 49.8832C51.2129 49.9138 51.2468 49.9421 51.2832 49.9671H51.2823ZM51.2832 40.175L52.893 41.499L51.1685 43.5957L51.1677 43.5965L41.9997 36.0544L43.7249 33.957L46.9317 36.5953C46.9421 36.6042 46.9526 36.6131 46.9631 36.6212L51.1806 40.0911C51.2121 40.1217 51.2468 40.15 51.2832 40.175ZM54.3018 30.0003C53.5372 29.7637 52.8009 29.4707 52.0953 29.1275C52.0679 29.1114 52.0396 29.0977 52.0106 29.0856C50.5146 28.346 49.1623 27.3764 47.9917 26.2308C47.9779 26.2163 47.9634 26.2026 47.9489 26.1889C47.3741 25.6221 46.8437 25.0126 46.3617 24.3667C44.3652 21.6888 43.2066 18.3828 43.2066 14.8919V7.67438L47.5727 6.41576C47.6235 6.40687 47.672 6.39234 47.718 6.37377L54.3018 4.47655L65.3969 7.67438V14.8919C65.3969 18.3828 64.2384 21.6888 62.2418 24.3667C60.2921 26.9808 57.5456 28.9959 54.3018 30.0003ZM16.4324 30.1787V31.2823L12.6266 34.992L9.95437 32.8905C9.56362 32.5829 8.99687 32.6507 8.69009 33.0423C8.3825 33.433 8.45031 33.999 8.84187 34.3066L12.1325 36.894C12.5055 37.1871 13.0376 37.1395 13.3524 36.7955L16.4324 33.7931V38.7646H7.84643V30.1787H16.4324ZM16.4324 43.9226V45.0255L12.6266 48.7351L9.95437 46.6345C9.56362 46.3269 8.99687 46.3947 8.69009 46.7854C8.3825 47.1762 8.45031 47.7429 8.84187 48.0497L12.1325 50.638C12.5055 50.9311 13.0376 50.8826 13.3524 50.5395L16.4324 47.5371V52.5086H7.84643V43.9226H16.4324Z" fill="#002B5A"/>
</g>
</svg>
