<svg width="67" height="65" viewBox="0 0 67 65" fill="none" xmlns="http://www.w3.org/2000/svg">
<path d="M10.4434 20.3662C11.0199 20.3662 11.4879 19.8991 11.4879 19.3227V8.87779H15.1432C15.7196 8.87779 16.1877 8.40973 16.1877 7.8333C16.1877 7.25688 15.7196 6.78882 15.1432 6.78882H5.74371C5.16728 6.78882 4.69922 7.25688 4.69922 7.8333C4.69922 8.40973 5.16728 8.87779 5.74371 8.87779H9.39895V19.3227C9.39895 19.8991 9.86701 20.3662 10.4434 20.3662Z" fill="#002B5A"/>
<path d="M40.3501 7.02534C39.9039 6.65927 39.2455 6.72575 38.8804 7.17195L34.9884 11.9281L31.0973 7.17195C30.7321 6.72666 30.0746 6.66018 29.6275 7.02534C29.1813 7.3905 29.1157 8.04888 29.4809 8.49509L33.6388 13.5773L29.48 18.6604C29.1148 19.1066 29.1813 19.765 29.6266 20.1301C29.8215 20.2895 30.0555 20.366 30.2877 20.366C30.59 20.366 30.8896 20.2358 31.0973 19.9835L34.9884 15.2264L38.8804 19.9835C39.0871 20.2358 39.3867 20.366 39.689 20.366C39.9212 20.366 40.1552 20.2895 40.3501 20.1301C40.7963 19.765 40.8619 19.1075 40.4967 18.6613L36.3379 13.5773L40.4967 8.49509C40.8619 8.04888 40.7963 7.38959 40.3501 7.02534Z" fill="#002B5A"/>
<path d="M26.6335 20.3662C27.21 20.3662 27.678 19.8991 27.678 19.3227V11.7499C27.678 9.01439 25.4515 6.78882 22.7169 6.78882C19.9814 6.78882 17.7559 9.01439 17.7559 11.7499V19.3227C17.7559 19.8991 18.223 20.3662 18.8003 20.3662C19.3768 20.3662 19.8448 19.8991 19.8448 19.3227V16.711H25.5891V19.3227C25.5891 19.8991 26.0562 20.3662 26.6335 20.3662ZM19.8448 14.622V11.7499C19.8448 10.1663 21.1334 8.87779 22.7169 8.87779C24.2996 8.87779 25.5891 10.1663 25.5891 11.7499V14.622H19.8448Z" fill="#002B5A"/>
<mask id="mask0_196_1344" style="mask-type:luminance" maskUnits="userSpaceOnUse" x="0" y="0" width="47" height="65">
<path d="M0 0H46.6622V64.8337H0V0Z" fill="white"/>
</mask>
<g mask="url(#mask0_196_1344)">
<path d="M0.0209444 47.7277C0.0382463 47.8178 0.0719393 47.9025 0.111096 47.9826C0.121113 48.0018 0.13113 48.02 0.142057 48.0382C0.188499 48.1183 0.241315 48.1957 0.30597 48.2604L16.4941 64.4486C16.5424 64.4968 16.5961 64.5396 16.6535 64.5788C16.6726 64.5924 16.6954 64.6006 16.7154 64.6125C16.7537 64.6343 16.7919 64.6571 16.8329 64.6744C16.8611 64.6862 16.8912 64.6926 16.9203 64.7017C16.9558 64.7126 16.9904 64.7272 17.0278 64.7345C17.0952 64.7481 17.1635 64.7554 17.2336 64.7554H27.6775C28.254 64.7554 28.722 64.2874 28.722 63.7109C28.722 63.1345 28.254 62.6665 27.6775 62.6665H18.2771V49.6108C18.2771 47.8834 16.8721 46.4774 15.1437 46.4774H2.08897V3.13346C2.08897 2.55794 2.55703 2.08897 3.13346 2.08897H43.3439C43.9194 2.08897 44.3875 2.55794 44.3875 3.13346V18.2781C44.3875 18.8545 44.8555 19.3225 45.432 19.3225C46.0084 19.3225 46.4765 18.8545 46.4765 18.2781V3.13346C46.4765 1.40509 45.0714 0 43.3439 0H3.13346C1.40509 0 0 1.40509 0 3.13346V47.5219C0 47.5883 0.00728506 47.653 0.0191231 47.7158C0.0200337 47.7195 0.0200338 47.724 0.0209444 47.7277ZM15.1437 48.5663C15.7201 48.5663 16.1882 49.0344 16.1882 49.6108V61.1894L3.5651 48.5663H15.1437Z" fill="#002B5A"/>
</g>
<path d="M20.3653 30.2883H6.26519C5.68876 30.2883 5.2207 30.7564 5.2207 31.3328C5.2207 31.9092 5.68876 32.3773 6.26519 32.3773H20.3653C20.9417 32.3773 21.4098 31.9092 21.4098 31.3328C21.4098 30.7564 20.9417 30.2883 20.3653 30.2883Z" fill="#002B5A"/>
<path d="M20.3653 37.0769H6.26519C5.68876 37.0769 5.2207 37.545 5.2207 38.1214C5.2207 38.6978 5.68876 39.1659 6.26519 39.1659H20.3653C20.9417 39.1659 21.4098 38.6978 21.4098 38.1214C21.4098 37.545 20.9417 37.0769 20.3653 37.0769Z" fill="#002B5A"/>
<path d="M42.2999 35.3897C41.5086 35.2094 40.7946 34.8278 40.2109 34.3042V52.2216H42.2999V35.3897Z" fill="#002B5A"/>
<path d="M22.035 42.3714C21.9676 42.5116 21.933 42.6655 21.933 42.8221V43.8657H20.3668C19.7903 43.8657 19.3223 44.3338 19.3223 44.9102C19.3223 45.4875 19.7903 45.9547 20.3668 45.9547H22.0223C22.5277 49.2029 25.3351 51.6989 28.7217 51.6989C32.1093 51.6989 34.9167 49.2029 35.4221 45.9547H36.5549C37.1323 45.9547 37.5994 45.4875 37.5994 44.9102C37.5994 44.3338 37.1323 43.8657 36.5549 43.8657H35.5114V42.8221C35.5114 42.6655 35.4767 42.5116 35.4094 42.3714L30.38 31.8555H27.0644L22.035 42.3714ZM33.4224 44.9102C33.4224 47.5027 31.3143 49.6108 28.7217 49.6108C26.4898 49.6108 24.6203 48.0446 24.1431 45.9547H30.2889C30.8653 45.9547 31.3334 45.4875 31.3334 44.9102C31.3334 44.3338 30.8653 43.8657 30.2889 43.8657H24.022V43.0589L28.7217 33.2314L33.4224 43.0589V44.9102Z" fill="#002B5A"/>
<path d="M42.2999 24.0223C42.2999 23.7346 42.533 23.4996 42.8217 23.4996H43.8662C44.1549 23.4996 44.388 23.7346 44.388 24.0223V26.2324C45.1793 26.4118 45.8932 26.7933 46.4769 27.3179V24.0223C46.4769 22.5826 45.3059 21.4106 43.8662 21.4106H42.8217C41.382 21.4106 40.2109 22.5826 40.2109 24.0223V27.3179C40.7946 26.7933 41.5086 26.4127 42.2999 26.2324V24.0223Z" fill="#002B5A"/>
<path d="M44.3867 52.2216H46.4757V34.3042C45.892 34.8278 45.1781 35.2094 44.3867 35.3897V52.2216Z" fill="#002B5A"/>
<path d="M38.7647 29.7666H26.9758C26.6971 29.7666 26.4349 29.6582 26.2373 29.4606L24.4989 27.7222C24.0918 27.3143 23.4307 27.3143 23.0228 27.7222C22.6148 28.1302 22.6148 28.7913 23.0228 29.1993L24.7602 30.9376C25.3521 31.5296 26.1389 31.8556 26.9758 31.8556H38.7647C38.6882 31.5186 38.6436 31.1699 38.6436 30.8111C38.6436 30.4514 38.6882 30.1035 38.7647 29.7666Z" fill="#002B5A"/>
<path d="M59.7108 31.8556C60.5486 31.8556 61.3345 31.5296 61.9264 30.9376L63.6638 29.1993C64.0718 28.7913 64.0718 28.1302 63.6638 27.7222C63.2568 27.3143 62.5957 27.3143 62.1877 27.7222L60.4493 29.4606C60.2517 29.6582 59.9895 29.7666 59.7108 29.7666H47.9219C47.9984 30.1035 48.043 30.4514 48.043 30.8111C48.043 31.1699 47.9984 31.5186 47.9219 31.8556H59.7108Z" fill="#002B5A"/>
<path d="M47.9218 29.7666C47.7024 28.804 47.187 27.9553 46.4758 27.3179C45.8921 26.7934 45.1781 26.4127 44.3868 26.2324C44.0508 26.155 43.702 26.1113 43.3432 26.1113C42.9835 26.1113 42.6348 26.155 42.2987 26.2324C41.5074 26.4118 40.7935 26.7934 40.2098 27.3179C39.4995 27.9563 38.9832 28.805 38.7637 29.7666C38.6872 30.1035 38.6426 30.4514 38.6426 30.8111C38.6426 31.1698 38.6872 31.5186 38.7637 31.8555C38.9832 32.8181 39.4986 33.6659 40.2098 34.3042C40.7935 34.8278 41.5074 35.2094 42.2987 35.3897C42.6348 35.4662 42.9835 35.5108 43.3432 35.5108C43.702 35.5108 44.0508 35.4662 44.3868 35.3897C45.1781 35.2094 45.8921 34.8278 46.4758 34.3042C47.1861 33.6659 47.7024 32.8172 47.9218 31.8555C47.9983 31.5186 48.043 31.1698 48.043 30.8111C48.043 30.4514 47.9983 30.1035 47.9218 29.7666ZM40.7316 30.8111C40.7316 29.3714 41.9026 28.1994 43.3432 28.1994C44.7829 28.1994 45.954 29.3714 45.954 30.8111C45.954 32.2508 44.7829 33.4218 43.3432 33.4218C41.9026 33.4218 40.7316 32.2508 40.7316 30.8111Z" fill="#002B5A"/>
<mask id="mask1_196_1344" style="mask-type:luminance" maskUnits="userSpaceOnUse" x="30" y="52" width="26" height="13">
<path d="M30.8086 52.1216H55.9855V64.8339H30.8086V52.1216Z" fill="white"/>
</mask>
<g mask="url(#mask1_196_1344)">
<path d="M42.2979 52.2217H39.1645C37.4361 52.2217 36.031 53.6268 36.031 55.3551V57.9659H32.8976C31.7456 57.9659 30.8086 58.9029 30.8086 60.0549V63.7101C30.8086 64.2865 31.2767 64.7546 31.8531 64.7546H54.8309C55.4073 64.7546 55.8754 64.2865 55.8754 63.7101V60.0549C55.8754 58.9029 54.9383 57.9659 53.7864 57.9659H50.6529V55.3551C50.6529 53.6268 49.2478 52.2217 47.5195 52.2217H42.2979ZM53.7864 62.6656H32.8976V60.0549H53.7864V62.6656ZM47.5195 54.3107C48.0959 54.3107 48.564 54.7787 48.564 55.3551V57.9659H38.12V55.3551C38.12 54.7787 38.5881 54.3107 39.1645 54.3107H47.5195Z" fill="#002B5A"/>
</g>
<mask id="mask2_196_1344" style="mask-type:luminance" maskUnits="userSpaceOnUse" x="48" y="31" width="19" height="21">
<path d="M48.9922 31.8398H66.9288V51.8882H48.9922V31.8398Z" fill="white"/>
</mask>
<g mask="url(#mask2_196_1344)">
<path d="M65.7988 43.8657H64.7543V42.8221C64.7543 42.6655 64.7197 42.5116 64.6523 42.3714L59.6229 31.8555H56.3073L51.2779 42.3714C51.2106 42.5116 51.1769 42.6655 51.1769 42.8221V43.8657H50.1324C49.555 43.8657 49.0879 44.3338 49.0879 44.9102C49.0879 45.4875 49.555 45.9547 50.1324 45.9547H51.2652C51.7706 49.2029 54.578 51.6989 57.9656 51.6989C61.3522 51.6989 64.1596 49.2029 64.665 45.9547H65.7988C66.3752 45.9547 66.8433 45.4875 66.8433 44.9102C66.8433 44.3338 66.3752 43.8657 65.7988 43.8657ZM57.9656 49.6108C55.7336 49.6108 53.8632 48.0446 53.386 45.9547H59.5318C60.1083 45.9547 60.5763 45.4875 60.5763 44.9102C60.5763 44.3338 60.1083 43.8657 59.5318 43.8657H53.2649V43.0589L57.9656 33.2314L62.6653 43.0589V44.9102C62.6653 47.5027 60.5572 49.6108 57.9656 49.6108Z" fill="#002B5A"/>
</g>
<path d="M10.4434 20.3662C11.0199 20.3662 11.4879 19.8991 11.4879 19.3227V8.87779H15.1432C15.7196 8.87779 16.1877 8.40973 16.1877 7.8333C16.1877 7.25688 15.7196 6.78882 15.1432 6.78882H5.74371C5.16728 6.78882 4.69922 7.25688 4.69922 7.8333C4.69922 8.40973 5.16728 8.87779 5.74371 8.87779H9.39895V19.3227C9.39895 19.8991 9.86701 20.3662 10.4434 20.3662Z" fill="#002B5A"/>
<path d="M40.3501 7.02534C39.9039 6.65927 39.2455 6.72575 38.8804 7.17195L34.9884 11.9281L31.0973 7.17195C30.7321 6.72666 30.0746 6.66018 29.6275 7.02534C29.1813 7.3905 29.1157 8.04888 29.4809 8.49509L33.6388 13.5773L29.48 18.6604C29.1148 19.1066 29.1813 19.765 29.6266 20.1301C29.8215 20.2895 30.0555 20.366 30.2877 20.366C30.59 20.366 30.8896 20.2358 31.0973 19.9835L34.9884 15.2264L38.8804 19.9835C39.0871 20.2358 39.3867 20.366 39.689 20.366C39.9212 20.366 40.1552 20.2895 40.3501 20.1301C40.7963 19.765 40.8619 19.1075 40.4967 18.6613L36.3379 13.5773L40.4967 8.49509C40.8619 8.04888 40.7963 7.38959 40.3501 7.02534Z" fill="#002B5A"/>
<path d="M26.6335 20.3662C27.21 20.3662 27.678 19.8991 27.678 19.3227V11.7499C27.678 9.01439 25.4515 6.78882 22.7169 6.78882C19.9814 6.78882 17.7559 9.01439 17.7559 11.7499V19.3227C17.7559 19.8991 18.223 20.3662 18.8003 20.3662C19.3768 20.3662 19.8448 19.8991 19.8448 19.3227V16.711H25.5891V19.3227C25.5891 19.8991 26.0562 20.3662 26.6335 20.3662ZM19.8448 14.622V11.7499C19.8448 10.1663 21.1334 8.87779 22.7169 8.87779C24.2996 8.87779 25.5891 10.1663 25.5891 11.7499V14.622H19.8448Z" fill="#002B5A"/>
<mask id="mask3_196_1344" style="mask-type:luminance" maskUnits="userSpaceOnUse" x="0" y="0" width="47" height="65">
<path d="M0 0H46.6622V64.8337H0V0Z" fill="white"/>
</mask>
<g mask="url(#mask3_196_1344)">
<path d="M0.0209444 47.7277C0.0382463 47.8178 0.0719393 47.9025 0.111096 47.9826C0.121113 48.0018 0.13113 48.02 0.142057 48.0382C0.188499 48.1183 0.241315 48.1957 0.30597 48.2604L16.4941 64.4486C16.5424 64.4968 16.5961 64.5396 16.6535 64.5788C16.6726 64.5924 16.6954 64.6006 16.7154 64.6125C16.7537 64.6343 16.7919 64.6571 16.8329 64.6744C16.8611 64.6862 16.8912 64.6926 16.9203 64.7017C16.9558 64.7126 16.9904 64.7272 17.0278 64.7345C17.0952 64.7481 17.1635 64.7554 17.2336 64.7554H27.6775C28.254 64.7554 28.722 64.2874 28.722 63.7109C28.722 63.1345 28.254 62.6665 27.6775 62.6665H18.2771V49.6108C18.2771 47.8834 16.8721 46.4774 15.1437 46.4774H2.08897V3.13346C2.08897 2.55794 2.55703 2.08897 3.13346 2.08897H43.3439C43.9194 2.08897 44.3875 2.55794 44.3875 3.13346V18.2781C44.3875 18.8545 44.8555 19.3225 45.432 19.3225C46.0084 19.3225 46.4765 18.8545 46.4765 18.2781V3.13346C46.4765 1.40509 45.0714 0 43.3439 0H3.13346C1.40509 0 0 1.40509 0 3.13346V47.5219C0 47.5883 0.00728506 47.653 0.0191231 47.7158C0.0200337 47.7195 0.0200338 47.724 0.0209444 47.7277ZM15.1437 48.5663C15.7201 48.5663 16.1882 49.0344 16.1882 49.6108V61.1894L3.5651 48.5663H15.1437Z" fill="#002B5A"/>
</g>
<path d="M20.3653 30.2883H6.26519C5.68876 30.2883 5.2207 30.7564 5.2207 31.3328C5.2207 31.9092 5.68876 32.3773 6.26519 32.3773H20.3653C20.9417 32.3773 21.4098 31.9092 21.4098 31.3328C21.4098 30.7564 20.9417 30.2883 20.3653 30.2883Z" fill="#002B5A"/>
<path d="M20.3653 37.0769H6.26519C5.68876 37.0769 5.2207 37.545 5.2207 38.1214C5.2207 38.6978 5.68876 39.1659 6.26519 39.1659H20.3653C20.9417 39.1659 21.4098 38.6978 21.4098 38.1214C21.4098 37.545 20.9417 37.0769 20.3653 37.0769Z" fill="#002B5A"/>
<path d="M42.2999 35.3897C41.5086 35.2094 40.7946 34.8278 40.2109 34.3042V52.2216H42.2999V35.3897Z" fill="#002B5A"/>
<path d="M22.035 42.3714C21.9676 42.5116 21.933 42.6655 21.933 42.8221V43.8657H20.3668C19.7903 43.8657 19.3223 44.3338 19.3223 44.9102C19.3223 45.4875 19.7903 45.9547 20.3668 45.9547H22.0223C22.5277 49.2029 25.3351 51.6989 28.7217 51.6989C32.1093 51.6989 34.9167 49.2029 35.4221 45.9547H36.5549C37.1323 45.9547 37.5994 45.4875 37.5994 44.9102C37.5994 44.3338 37.1323 43.8657 36.5549 43.8657H35.5114V42.8221C35.5114 42.6655 35.4767 42.5116 35.4094 42.3714L30.38 31.8555H27.0644L22.035 42.3714ZM33.4224 44.9102C33.4224 47.5027 31.3143 49.6108 28.7217 49.6108C26.4898 49.6108 24.6203 48.0446 24.1431 45.9547H30.2889C30.8653 45.9547 31.3334 45.4875 31.3334 44.9102C31.3334 44.3338 30.8653 43.8657 30.2889 43.8657H24.022V43.0589L28.7217 33.2314L33.4224 43.0589V44.9102Z" fill="#002B5A"/>
<path d="M42.2999 24.0223C42.2999 23.7346 42.533 23.4996 42.8217 23.4996H43.8662C44.1549 23.4996 44.388 23.7346 44.388 24.0223V26.2324C45.1793 26.4118 45.8932 26.7933 46.4769 27.3179V24.0223C46.4769 22.5826 45.3059 21.4106 43.8662 21.4106H42.8217C41.382 21.4106 40.2109 22.5826 40.2109 24.0223V27.3179C40.7946 26.7933 41.5086 26.4127 42.2999 26.2324V24.0223Z" fill="#002B5A"/>
<path d="M44.3867 52.2216H46.4757V34.3042C45.892 34.8278 45.1781 35.2094 44.3867 35.3897V52.2216Z" fill="#002B5A"/>
<path d="M38.7647 29.7666H26.9758C26.6971 29.7666 26.4349 29.6582 26.2373 29.4606L24.4989 27.7222C24.0918 27.3143 23.4307 27.3143 23.0228 27.7222C22.6148 28.1302 22.6148 28.7913 23.0228 29.1993L24.7602 30.9376C25.3521 31.5296 26.1389 31.8556 26.9758 31.8556H38.7647C38.6882 31.5186 38.6436 31.1699 38.6436 30.8111C38.6436 30.4514 38.6882 30.1035 38.7647 29.7666Z" fill="#002B5A"/>
<path d="M59.7108 31.8556C60.5486 31.8556 61.3345 31.5296 61.9264 30.9376L63.6638 29.1993C64.0718 28.7913 64.0718 28.1302 63.6638 27.7222C63.2568 27.3143 62.5957 27.3143 62.1877 27.7222L60.4493 29.4606C60.2517 29.6582 59.9895 29.7666 59.7108 29.7666H47.9219C47.9984 30.1035 48.043 30.4514 48.043 30.8111C48.043 31.1699 47.9984 31.5186 47.9219 31.8556H59.7108Z" fill="#002B5A"/>
<path d="M47.9218 29.7666C47.7024 28.804 47.187 27.9553 46.4758 27.3179C45.8921 26.7934 45.1781 26.4127 44.3868 26.2324C44.0508 26.155 43.702 26.1113 43.3432 26.1113C42.9835 26.1113 42.6348 26.155 42.2987 26.2324C41.5074 26.4118 40.7935 26.7934 40.2098 27.3179C39.4995 27.9563 38.9832 28.805 38.7637 29.7666C38.6872 30.1035 38.6426 30.4514 38.6426 30.8111C38.6426 31.1698 38.6872 31.5186 38.7637 31.8555C38.9832 32.8181 39.4986 33.6659 40.2098 34.3042C40.7935 34.8278 41.5074 35.2094 42.2987 35.3897C42.6348 35.4662 42.9835 35.5108 43.3432 35.5108C43.702 35.5108 44.0508 35.4662 44.3868 35.3897C45.1781 35.2094 45.8921 34.8278 46.4758 34.3042C47.1861 33.6659 47.7024 32.8172 47.9218 31.8555C47.9983 31.5186 48.043 31.1698 48.043 30.8111C48.043 30.4514 47.9983 30.1035 47.9218 29.7666ZM40.7316 30.8111C40.7316 29.3714 41.9026 28.1994 43.3432 28.1994C44.7829 28.1994 45.954 29.3714 45.954 30.8111C45.954 32.2508 44.7829 33.4218 43.3432 33.4218C41.9026 33.4218 40.7316 32.2508 40.7316 30.8111Z" fill="#002B5A"/>
<mask id="mask4_196_1344" style="mask-type:luminance" maskUnits="userSpaceOnUse" x="30" y="52" width="26" height="13">
<path d="M30.8086 52.1216H55.9855V64.8339H30.8086V52.1216Z" fill="white"/>
</mask>
<g mask="url(#mask4_196_1344)">
<path d="M42.2979 52.2217H39.1645C37.4361 52.2217 36.031 53.6268 36.031 55.3551V57.9659H32.8976C31.7456 57.9659 30.8086 58.9029 30.8086 60.0549V63.7101C30.8086 64.2865 31.2767 64.7546 31.8531 64.7546H54.8309C55.4073 64.7546 55.8754 64.2865 55.8754 63.7101V60.0549C55.8754 58.9029 54.9383 57.9659 53.7864 57.9659H50.6529V55.3551C50.6529 53.6268 49.2478 52.2217 47.5195 52.2217H42.2979ZM53.7864 62.6656H32.8976V60.0549H53.7864V62.6656ZM47.5195 54.3107C48.0959 54.3107 48.564 54.7787 48.564 55.3551V57.9659H38.12V55.3551C38.12 54.7787 38.5881 54.3107 39.1645 54.3107H47.5195Z" fill="#002B5A"/>
</g>
<mask id="mask5_196_1344" style="mask-type:luminance" maskUnits="userSpaceOnUse" x="48" y="31" width="19" height="21">
<path d="M48.9922 31.8398H66.9288V51.8882H48.9922V31.8398Z" fill="white"/>
</mask>
<g mask="url(#mask5_196_1344)">
<path d="M65.7988 43.8657H64.7543V42.8221C64.7543 42.6655 64.7197 42.5116 64.6523 42.3714L59.6229 31.8555H56.3073L51.2779 42.3714C51.2106 42.5116 51.1769 42.6655 51.1769 42.8221V43.8657H50.1324C49.555 43.8657 49.0879 44.3338 49.0879 44.9102C49.0879 45.4875 49.555 45.9547 50.1324 45.9547H51.2652C51.7706 49.2029 54.578 51.6989 57.9656 51.6989C61.3522 51.6989 64.1596 49.2029 64.665 45.9547H65.7988C66.3752 45.9547 66.8433 45.4875 66.8433 44.9102C66.8433 44.3338 66.3752 43.8657 65.7988 43.8657ZM57.9656 49.6108C55.7336 49.6108 53.8632 48.0446 53.386 45.9547H59.5318C60.1083 45.9547 60.5763 45.4875 60.5763 44.9102C60.5763 44.3338 60.1083 43.8657 59.5318 43.8657H53.2649V43.0589L57.9656 33.2314L62.6653 43.0589V44.9102C62.6653 47.5027 60.5572 49.6108 57.9656 49.6108Z" fill="#002B5A"/>
</g>
</svg>
