<svg width="67" height="70" viewBox="0 0 67 70" fill="none" xmlns="http://www.w3.org/2000/svg">
<path d="M55.5755 41.9466L52.5768 43.5792C52.5372 43.4944 52.496 43.4112 52.4524 43.3288C51.1768 40.986 48.2298 40.116 45.883 41.3908L40.6215 44.257C37.8134 43.3538 35.0045 42.449 32.1956 41.5435L29.6929 40.738C25.947 39.5327 22.2955 39.8744 18.8419 41.7551L9.72057 46.7201L8.73499 45.0107C8.16466 44.03 6.89634 43.6899 5.90592 44.2554L1.04269 47.0602C0.560406 47.3349 0.216263 47.7824 0.071659 48.3213C-0.0721376 48.8569 0.0021842 49.4151 0.279275 49.8917L11.2329 68.9108C11.6142 69.5749 12.3121 69.9465 13.0303 69.9465C13.3801 69.9465 13.7356 69.8576 14.0603 69.6734L18.9308 66.8662C19.4091 66.5915 19.75 66.1448 19.8954 65.6092C20.04 65.0736 19.9673 64.5162 19.6926 64.0379L18.7531 62.4069L19.1942 62.1669C21.2283 61.0626 23.3764 60.8607 25.5753 61.5683L30.2924 63.0903C31.3813 63.4401 32.4606 63.6146 33.5237 63.6146C35.1871 63.6146 36.8141 63.1873 38.387 62.3317L60.2053 50.4548C62.552 49.176 63.4213 46.2298 62.1433 43.8854C60.8661 41.537 57.9199 40.6694 55.5755 41.9466ZM46.9251 43.3086C48.2136 42.609 49.8325 43.0872 50.5305 44.3677C50.5757 44.4525 50.6153 44.5381 50.6509 44.627L45.4839 47.4383C45.0396 46.5036 44.306 45.7265 43.3908 45.2337L46.9251 43.3086ZM13.0699 67.7201L2.22861 48.8948L6.90199 46.1991L8.32542 48.6711C8.33269 48.6832 8.33754 48.6969 8.34481 48.709C8.36258 48.743 8.38277 48.7745 8.40459 48.806L16.2835 62.4852C16.2859 62.4917 16.2884 62.4982 16.2924 62.5038C16.3021 62.52 16.3134 62.5369 16.3231 62.5531L17.7449 65.0259L13.0699 67.7201ZM59.1615 48.5337L37.3448 60.4107C35.3131 61.5166 33.1659 61.717 30.9637 61.0093L26.2459 59.4873C23.4556 58.5898 20.7323 58.8459 18.1504 60.2475L17.6641 60.5133L10.8104 48.6129L19.8857 43.6737C22.7939 42.0904 25.8694 41.802 29.0232 42.8166L31.5259 43.6228C34.9932 44.7401 38.4597 45.8582 41.9261 46.9714C42.9004 47.2864 43.6161 48.1532 43.7503 49.1776C43.7503 49.18 43.7503 49.1816 43.7519 49.1841C43.8036 49.5686 43.7696 49.9273 43.642 50.3183C43.4263 50.9888 42.9578 51.5381 42.3228 51.8637C41.6878 52.1884 40.9672 52.2482 40.2951 52.0325C36.7083 50.8797 33.1174 49.7213 29.5273 48.5644L29.3448 48.5055C28.7712 48.3197 28.1548 48.6355 27.9706 49.2099C27.7856 49.7843 28.0999 50.3999 28.675 50.5849L28.8584 50.643C32.4501 51.8007 36.0402 52.9591 39.627 54.1119C40.8541 54.507 42.1653 54.3987 43.3197 53.8074C44.4741 53.216 45.328 52.2143 45.7214 50.9888C45.8652 50.5461 45.9427 50.1107 45.9565 49.6696L56.62 43.866C57.9086 43.164 59.5259 43.6406 60.2271 44.9291C60.9275 46.2128 60.45 47.8317 59.1615 48.5337ZM38.7909 8.03402C34.0084 8.03402 30.1162 11.9246 30.1162 16.7087C30.1162 19.8867 31.4637 21.3909 32.7652 22.8467C32.9591 23.064 33.1602 23.2886 33.3557 23.518C33.6409 23.8508 33.8525 24.2039 34.0004 24.5763C33.1707 24.9891 32.5988 25.8446 32.5988 26.8318C32.5988 27.9127 33.2854 28.8336 34.2451 29.1899V29.8143C34.2451 31.2749 35.4351 32.4633 36.8981 32.4633H40.6885C42.1491 32.4633 43.3374 31.2749 43.3374 29.8143V29.1915C44.2964 28.836 44.9838 27.9143 44.9838 26.8334C44.9838 25.8454 44.4127 24.9915 43.5846 24.5779C43.7325 24.2039 43.9441 23.8524 44.2269 23.5188C44.4224 23.2894 44.6235 23.0656 44.8174 22.8483C46.1189 21.3917 47.4663 19.8883 47.4663 16.7103C47.4663 11.9262 43.5741 8.03402 38.7909 8.03402ZM42.2695 26.4949C42.2711 26.4949 42.2719 26.4949 42.2719 26.4949H42.4674C42.6475 26.4949 42.801 26.6492 42.801 26.8318C42.801 27.0119 42.6475 27.1654 42.4674 27.1654H35.1217C34.9391 27.1654 34.7848 27.0119 34.7848 26.8318C34.7848 26.6492 34.9391 26.4949 35.1217 26.4949H42.2695ZM40.6885 30.2772H36.8981C36.6436 30.2772 36.4296 30.064 36.4296 29.8127V29.3482H41.153V29.8127C41.153 30.0656 40.9406 30.2772 40.6885 30.2772ZM43.1888 21.3909C42.9868 21.6163 42.7776 21.8514 42.5627 22.101C41.9948 22.7707 41.5973 23.5107 41.3703 24.3105H36.2147C35.9893 23.5099 35.5894 22.7675 35.0182 22.0986C34.8066 21.8498 34.5974 21.6163 34.3954 21.3909C33.1804 20.033 32.3023 19.0522 32.3023 16.7087C32.3023 13.1299 35.2137 10.2184 38.7925 10.2184C42.3721 10.2184 45.2827 13.1299 45.2827 16.7087C45.2819 19.0522 44.403 20.033 43.1888 21.3909ZM58.3319 2.51644C55.7653 2.51644 53.463 3.6652 51.9087 5.47396C51.1194 4.15879 50.6913 2.64489 50.6913 1.0914C50.6913 0.487939 50.2025 0 49.5999 0H27.9835C27.3817 0 26.8921 0.489554 26.8921 1.0914C26.8921 5.78579 23.0759 9.60367 18.3839 9.60367C18.0656 9.60367 17.7643 9.74342 17.5567 9.98335C17.3491 10.2241 17.257 10.5448 17.3046 10.8591C18.6957 20.0176 21.2186 27.0345 25.0171 32.313C28.4594 37.0955 32.854 40.3115 38.4524 42.1437C38.5631 42.1792 38.6778 42.1978 38.7925 42.1978C38.9072 42.1978 39.0219 42.18 39.1326 42.1437C48.7225 39.0044 55.052 31.5738 58.4635 19.4465C63.0723 19.377 66.8021 15.6068 66.8021 10.981C66.8005 6.31412 63.0012 2.51644 58.3319 2.51644ZM50.1193 13.0491C50.5046 14.5808 51.3093 15.9469 52.4015 17.0205C49.8939 26.5175 45.4362 32.5174 38.7925 35.3295C31.6697 32.3098 27.0303 25.5683 24.6326 14.7513C28.2065 13.1162 30.9774 10.1764 32.3911 6.50962H45.1955C46.1932 9.07938 47.9155 11.3672 50.1193 13.0491ZM38.7909 39.9536C28.36 36.391 22.2559 27.3908 19.6506 11.7121C24.5946 11.1256 28.5143 7.15186 29.0192 2.1828H48.5634C48.7597 4.09982 49.473 5.93201 50.6242 7.47823C50.272 8.24891 50.0329 9.07938 49.9262 9.95266C48.6054 8.56559 47.5932 6.89254 47.0002 5.07812C46.854 4.62815 46.4347 4.3252 45.9621 4.3252H31.618C31.1454 4.3252 30.7254 4.62815 30.5799 5.07812C29.394 8.71019 26.552 11.7008 22.9814 13.0766C22.4829 13.2689 22.1953 13.794 22.3036 14.3166C24.8442 26.6298 30.1057 34.2211 38.3845 37.5244C38.5138 37.5761 38.6519 37.6028 38.7885 37.6028C38.925 37.6028 39.0631 37.5761 39.1932 37.5244C46.543 34.596 51.4878 28.336 54.2805 18.4197C54.8977 18.7566 55.5634 19.0191 56.2622 19.1952C53.0849 30.2223 47.3581 37.0236 38.7909 39.9536ZM58.3319 17.2661C54.8662 17.2661 52.0468 14.4467 52.0468 10.981C52.0468 7.51781 54.8662 4.69924 58.3319 4.69924C61.7983 4.69924 64.6177 7.51781 64.6177 10.981C64.6161 14.4467 61.7967 17.2661 58.3319 17.2661ZM61.8799 8.44683C62.3065 8.87337 62.3065 9.56408 61.8799 9.99063L58.3529 13.5177C58.1396 13.7309 57.8593 13.8376 57.5806 13.8376C57.3011 13.8376 57.0223 13.7309 56.8091 13.5177L54.783 11.4916C54.3565 11.0659 54.3565 10.3744 54.783 9.94781C55.2095 9.52207 55.9002 9.52207 56.3268 9.94781L57.5798 11.2008L60.3345 8.44522C60.7627 8.02029 61.4534 8.02029 61.8799 8.44683ZM38.7909 12.3802C37.1122 12.3802 35.7477 13.7447 35.7477 15.4234C35.7477 16.7176 36.5588 17.8235 37.6995 18.2638V19.9506C37.6995 20.5532 38.189 21.0428 38.7909 21.0428C39.3935 21.0428 39.8831 20.5532 39.8831 19.9506V18.2638C41.0238 17.8235 41.8349 16.7176 41.8349 15.4234C41.8349 13.7447 40.4704 12.3802 38.7909 12.3802ZM38.7909 14.563C39.2651 14.563 39.6504 14.9484 39.6504 15.4226C39.6504 15.896 39.2651 16.2813 38.7909 16.2813C38.3175 16.2813 37.9321 15.896 37.9321 15.4226C37.9321 14.9581 38.3256 14.563 38.7909 14.563Z" fill="#002B5A"/>
</svg>
