<svg width="42" height="57" viewBox="0 0 42 57" fill="none" xmlns="http://www.w3.org/2000/svg">
<path d="M2.57541 50.7611C1.14953 50.9328 1.57304 54.4487 3.00928 54.2765C4.29617 54.1223 5.5836 53.9675 6.86995 53.8111C7.41446 53.7485 8.18573 53.7256 8.32908 53.0504C8.52203 52.1387 7.37031 51.5889 6.72224 51.2477C5.29418 50.4963 4.12502 50.5742 2.57541 50.7611Z" fill="black"/>
<path d="M37.4587 52.1953C38.8852 52.0274 39.2999 55.5434 37.8626 55.7128C36.5757 55.8654 35.2883 56.018 34.002 56.169C33.4563 56.2338 32.702 56.394 32.4044 55.7722C32.0016 54.9309 32.9925 54.126 33.5419 53.6415C34.753 52.5751 35.9086 52.3789 37.4587 52.1953Z" fill="black"/>
<path d="M34.9133 50.4406C36.3402 50.2728 36.755 53.7882 35.3177 53.9582C34.0308 54.1108 32.7439 54.2634 31.4565 54.4143C30.9114 54.4786 30.1571 54.6388 29.8595 54.0171C29.4567 53.1762 30.4476 52.3714 30.997 51.8864C32.2087 50.8199 33.3637 50.6237 34.9133 50.4406Z" fill="black"/>
<path d="M5.04851 52.7849C3.62208 52.9566 4.0456 56.472 5.48183 56.3003C6.76927 56.1461 8.05616 55.9913 9.3425 55.8349C9.88756 55.7723 10.6588 55.7494 10.8022 55.0737C10.9951 54.162 9.84287 53.6127 9.19479 53.2716C7.76728 52.5195 6.59757 52.598 5.04851 52.7849Z" fill="black"/>
<path d="M22.2582 28.8412C21.4798 28.8412 20.7271 28.4565 20.3134 27.7655C19.7046 26.7454 20.0785 25.4463 21.1522 24.8665L25.7858 22.3598L29.919 15.6205C30.5442 14.608 31.9096 14.2625 32.9795 14.8576C34.0402 15.451 34.4016 16.7534 33.7781 17.7681L29.3402 24.9978C29.1396 25.3204 28.8572 25.5896 28.5144 25.7743L23.3603 28.5628C23.0125 28.7541 22.6343 28.8412 22.2582 28.8412Z" fill="black"/>
<path d="M28.7812 18.8005L30.8312 11.3556L32.9461 8.91807C33.0709 8.87611 33.1516 8.85104 33.1826 8.8396L33.066 13.3947L34.0438 11.2548L33.8111 10.0265L34.3703 9.1622L35.4681 9.62376L35.7275 10.6864L34.7448 11.5332L34.6472 14.6154L36.7555 10.3829C36.7887 10.3943 38.4359 10.2973 38.5607 10.3371L42.0017 16.5843L40.3131 37.0194L32.982 36.4647L28.7812 32.3422V18.8005Z" fill="black"/>
<mask id="mask0_287_2138" style="mask-type:luminance" maskUnits="userSpaceOnUse" x="31" y="0" width="9" height="10">
<path d="M31.8418 0H39.9349V9.31353H31.8418V0Z" fill="white"/>
</mask>
<g mask="url(#mask0_287_2138)">
<path d="M35.8741 9.17158H35.8381C33.9348 9.15468 32.7455 7.99288 32.0968 5.51505C32.0789 5.44475 31.869 4.20829 31.8772 3.64591C31.8952 1.62365 33.7086 -0.00299022 35.9199 0.0155376H35.9575C38.1645 0.0346104 39.9501 1.69068 39.9332 3.71076C39.9272 4.26768 39.6972 5.5096 39.6792 5.57608C38.9875 8.0441 37.7775 9.18738 35.8741 9.17158Z" fill="black"/>
</g>
<path d="M33.7227 53.1686V35.827C33.7227 34.3584 34.973 33.1677 36.5139 33.1677C38.0581 33.1677 39.3079 34.3584 39.3079 35.827V53.1686H33.7227Z" fill="black"/>
<path d="M30.1895 52.1899V32.7198C30.1895 31.2507 31.4393 30.0605 32.9834 30.0605C34.526 30.0605 35.7747 31.2507 35.7747 32.7198V52.1899H30.1895Z" fill="black"/>
<path d="M22.2579 28.8432C21.9603 28.8432 21.6572 28.786 21.3667 28.6633L12.8245 25.1196C12.3487 24.9213 11.9584 24.572 11.7235 24.1311L8.28251 17.6556C7.72492 16.6061 8.16587 15.3265 9.2658 14.7963C10.3696 14.2677 11.7137 14.6852 12.2702 15.7325L15.3471 21.5236L23.1523 24.7649C24.2822 25.2341 24.8011 26.4874 24.3068 27.5631C23.9399 28.3642 23.1207 28.8432 22.2579 28.8432Z" fill="black"/>
<mask id="mask1_287_2138" style="mask-type:luminance" maskUnits="userSpaceOnUse" x="0" y="8" width="14" height="29">
<path d="M0 8.75464H13.1256V36.5159H0V8.75464Z" fill="white"/>
</mask>
<g mask="url(#mask1_287_2138)">
<path d="M0.717255 13.3296C0.717255 13.3296 4.14024 8.8508 4.17458 8.83936C4.17458 8.83936 9.42515 10.2965 9.55161 10.3368L12.9926 16.584L12.1134 36.4639H5.69094L0.00976562 33.0073L0.717255 13.3296Z" fill="black"/>
</g>
<mask id="mask2_287_2138" style="mask-type:luminance" maskUnits="userSpaceOnUse" x="2" y="0" width="9" height="10">
<path d="M2.82422 0H10.9173V9.31353H2.82422V0Z" fill="white"/>
</mask>
<g mask="url(#mask2_287_2138)">
<path d="M6.86568 9.17499H6.83025C4.92853 9.1581 3.73703 7.99629 3.08731 5.51846C3.0726 5.44817 2.86275 4.2117 2.86929 3.64933C2.88673 1.62707 4.70015 0.000427744 6.91365 0.0189555H6.94798C9.15494 0.0380284 10.9438 1.69409 10.9253 3.71418C10.9188 4.2711 10.6909 5.51301 10.6691 5.5795C9.97526 8.04752 8.76794 9.1908 6.86568 9.17499Z" fill="black"/>
</g>
<path d="M4.73047 53.1686V35.827C4.73047 34.3584 5.98084 33.1677 7.52554 33.1677C9.06589 33.1677 10.3163 34.3584 10.3163 35.827V53.1686H4.73047Z" fill="black"/>
<path d="M1.20117 52.1899V32.7198C1.20117 31.2507 2.45154 30.0605 3.99407 30.0605C5.53823 30.0605 6.7886 31.2507 6.7886 32.7198V52.1899H1.20117Z" fill="black"/>
</svg>
