<svg width="50" height="50" viewBox="0 0 50 50" fill="none" xmlns="http://www.w3.org/2000/svg">
<path d="M40.177 45.3109H37.0391C36.9878 45.3109 36.9365 45.3067 36.8859 45.297C36.8352 45.2874 36.7863 45.2729 36.738 45.2536C36.6904 45.2343 36.6451 45.2107 36.6023 45.1824C36.5589 45.154 36.519 45.1221 36.4828 45.0859C36.446 45.0497 36.4135 45.0098 36.3845 44.967C36.3555 44.9248 36.3314 44.8795 36.3115 44.8319C36.2916 44.7842 36.2765 44.7353 36.2662 44.6847C36.2566 44.634 36.2512 44.5833 36.2512 44.532C36.2512 44.4801 36.2566 44.4294 36.2662 44.3788C36.2765 44.3281 36.2916 44.2792 36.3115 44.2316C36.3314 44.1839 36.3555 44.1386 36.3845 44.0964C36.4135 44.0536 36.446 44.0138 36.4828 43.9776C36.519 43.9414 36.5589 43.9094 36.6023 43.881C36.6451 43.8527 36.6904 43.8291 36.738 43.8098C36.7863 43.7905 36.8352 43.7761 36.8859 43.7664C36.9365 43.7567 36.9878 43.7525 37.0391 43.7525H39.3981V43.0183C39.3981 42.967 39.4029 42.9163 39.4132 42.8663C39.4228 42.8162 39.4379 42.7673 39.4572 42.7202C39.4765 42.6726 39.5006 42.6279 39.529 42.5851C39.5573 42.5429 39.5899 42.5037 39.6261 42.4675C39.6623 42.4313 39.7015 42.3987 39.7444 42.3703C39.7866 42.342 39.8313 42.3178 39.8789 42.2985C39.926 42.2786 39.9748 42.2641 40.0249 42.2539C40.075 42.2442 40.1257 42.2394 40.177 42.2394C40.2282 42.2394 40.2789 42.2442 40.329 42.2539C40.3791 42.2641 40.4279 42.2786 40.475 42.2985C40.5221 42.3178 40.5673 42.342 40.6095 42.3703C40.6524 42.3987 40.6916 42.4313 40.7278 42.4675C40.764 42.5037 40.796 42.5429 40.8243 42.5851C40.8527 42.6279 40.8768 42.6726 40.8967 42.7202C40.916 42.7673 40.9311 42.8162 40.9408 42.8663C40.951 42.9163 40.9558 42.967 40.9558 43.0183V44.5308C40.9558 44.5821 40.951 44.6328 40.9408 44.6834C40.9311 44.7335 40.916 44.7824 40.8967 44.8294C40.8768 44.8765 40.8533 44.9218 40.8249 44.964C40.7966 45.0068 40.764 45.046 40.7278 45.0822C40.6916 45.1184 40.6524 45.151 40.6095 45.1794C40.5673 45.2077 40.5221 45.2319 40.475 45.2512C40.4279 45.2711 40.3791 45.2856 40.329 45.2958C40.2783 45.3055 40.2276 45.3109 40.177 45.3109ZM31.7993 45.3109H26.7169C26.665 45.3109 26.6144 45.3067 26.5637 45.297C26.513 45.2874 26.4635 45.2729 26.4159 45.2536C26.3682 45.2343 26.323 45.2107 26.2795 45.1824C26.2367 45.154 26.1969 45.1221 26.1601 45.0859C26.1239 45.0497 26.0907 45.0098 26.0623 44.967C26.0334 44.9248 26.0092 44.8795 25.9893 44.8319C25.9694 44.7842 25.9543 44.7353 25.9441 44.6847C25.9338 44.634 25.929 44.5833 25.929 44.532C25.929 44.4801 25.9338 44.4294 25.9441 44.3788C25.9543 44.3281 25.9694 44.2792 25.9893 44.2316C26.0092 44.1839 26.0334 44.1386 26.0623 44.0964C26.0907 44.0536 26.1239 44.0138 26.1601 43.9776C26.1969 43.9414 26.2367 43.9094 26.2795 43.881C26.323 43.8527 26.3682 43.8291 26.4159 43.8098C26.4635 43.7905 26.513 43.7761 26.5637 43.7664C26.6144 43.7567 26.665 43.7525 26.7169 43.7525H31.7993C31.8506 43.7525 31.9018 43.7567 31.9525 43.7664C32.0032 43.7761 32.0521 43.7905 32.0997 43.8098C32.1474 43.8291 32.1932 43.8527 32.2361 43.881C32.2789 43.9094 32.3187 43.9414 32.3555 43.9776C32.3923 44.0138 32.4249 44.0536 32.4539 44.0964C32.4822 44.1386 32.507 44.1839 32.5269 44.2316C32.5468 44.2792 32.5613 44.3281 32.5715 44.3788C32.5818 44.4294 32.5866 44.4801 32.5866 44.532C32.5866 44.5833 32.5818 44.634 32.5715 44.6847C32.5613 44.7353 32.5468 44.7842 32.5269 44.8319C32.507 44.8795 32.4822 44.9248 32.4539 44.967C32.4249 45.0098 32.3923 45.0497 32.3555 45.0859C32.3187 45.1221 32.2789 45.154 32.2361 45.1824C32.1932 45.2107 32.1474 45.2343 32.0997 45.2536C32.0521 45.2729 32.0032 45.2874 31.9525 45.297C31.9018 45.3067 31.8506 45.3109 31.7993 45.3109ZM23.1012 45.3109H18.5963C18.5444 45.3109 18.4937 45.3067 18.443 45.297C18.3923 45.2874 18.3429 45.2729 18.2952 45.2536C18.2475 45.2343 18.2023 45.2107 18.1589 45.1824C18.116 45.154 18.0762 45.1221 18.0394 45.0859C18.0032 45.0497 17.97 45.0098 17.9417 44.967C17.9127 44.9248 17.8886 44.8795 17.8687 44.8319C17.8488 44.7842 17.8337 44.7353 17.8234 44.6847C17.8132 44.634 17.8083 44.5833 17.8083 44.532C17.8083 44.4801 17.8132 44.4294 17.8234 44.3788C17.8337 44.3281 17.8488 44.2792 17.8687 44.2316C17.8886 44.1839 17.9127 44.1386 17.9417 44.0964C17.97 44.0536 18.0032 44.0138 18.0394 43.9776C18.0762 43.9414 18.116 43.9094 18.1589 43.881C18.2023 43.8527 18.2475 43.8291 18.2952 43.8098C18.3429 43.7905 18.3923 43.7761 18.443 43.7664C18.4937 43.7567 18.5444 43.7525 18.5963 43.7525H23.1012C23.1525 43.7525 23.2038 43.7567 23.2545 43.7664C23.3052 43.7761 23.354 43.7905 23.4017 43.8098C23.4494 43.8291 23.4952 43.8527 23.538 43.881C23.5809 43.9094 23.6207 43.9414 23.6575 43.9776C23.6943 44.0138 23.7269 44.0536 23.7558 44.0964C23.7848 44.1386 23.8089 44.1839 23.8288 44.2316C23.8488 44.2792 23.8632 44.3281 23.8735 44.3788C23.8837 44.4294 23.8886 44.4801 23.8886 44.532C23.8886 44.5833 23.8837 44.634 23.8735 44.6847C23.8632 44.7353 23.8488 44.7842 23.8288 44.8319C23.8089 44.8795 23.7848 44.9248 23.7558 44.967C23.7269 45.0098 23.6943 45.0497 23.6575 45.0859C23.6207 45.1221 23.5809 45.154 23.538 45.1824C23.4952 45.2107 23.4494 45.2343 23.4017 45.2536C23.354 45.2729 23.3052 45.2874 23.2545 45.297C23.2038 45.3067 23.1525 45.3109 23.1012 45.3109ZM9.7854 36.6647H9.77273C9.72145 36.6641 9.67077 36.6581 9.6207 36.6472C9.57123 36.637 9.52236 36.6213 9.4753 36.6008C9.42884 36.5803 9.3842 36.5561 9.34196 36.5266C9.30034 36.4976 9.26112 36.465 9.22552 36.4282C9.18993 36.3914 9.15856 36.3516 9.1308 36.3088C9.10305 36.2653 9.07952 36.2201 9.06082 36.173C9.04211 36.1254 9.02764 36.0765 9.01859 36.0258C9.00954 35.9758 9.00531 35.9251 9.00592 35.8738C9.00893 35.7043 9.01617 35.5347 9.02764 35.3658C9.0385 35.1963 9.05418 35.0279 9.07349 34.859C9.09279 34.6907 9.11632 34.523 9.14408 34.3552C9.17123 34.1881 9.2032 34.0216 9.2388 33.8557C9.27439 33.6898 9.31421 33.5251 9.35765 33.361C9.40109 33.1975 9.44875 33.0346 9.50064 32.8729C9.55192 32.7112 9.60742 32.5513 9.66655 32.392C9.72567 32.2334 9.78902 32.0759 9.85599 31.9202C9.92296 31.764 9.99355 31.6101 10.0678 31.4575C10.1426 31.3055 10.2204 31.1546 10.3018 31.0062C10.3839 30.8578 10.469 30.7112 10.5577 30.5664C10.6463 30.4222 10.7386 30.2798 10.8346 30.1399C10.9305 29.9999 11.0294 29.8623 11.1314 29.7266C11.234 29.5914 11.3396 29.4587 11.4481 29.329C11.5573 29.1987 11.669 29.0714 11.7842 28.9465C11.8988 28.8222 12.0171 28.7003 12.1377 28.5815C12.259 28.462 12.3827 28.3462 12.5088 28.2334C12.6355 28.1205 12.7646 28.0107 12.8967 27.904C13.0282 27.7972 13.1628 27.6934 13.2997 27.5932C13.4361 27.4931 13.5754 27.3966 13.7172 27.3031C13.8584 27.2095 14.0026 27.1196 14.148 27.0334C14.294 26.9465 14.4418 26.8638 14.592 26.7848C14.7417 26.7052 14.8937 26.6297 15.0475 26.558C15.2008 26.4856 15.3558 26.4174 15.5127 26.3534C15.6702 26.2889 15.8282 26.2279 15.9881 26.1712C16.148 26.1145 16.3091 26.062 16.4714 26.0132C16.6337 25.9643 16.7972 25.919 16.9619 25.878C17.1266 25.837 17.2919 25.8002 17.4584 25.767C17.6243 25.7338 17.7914 25.7055 17.9592 25.6801C18.1275 25.6554 18.2952 25.6349 18.4641 25.618C18.6331 25.6011 18.802 25.5884 18.9715 25.58C19.1411 25.5715 19.3106 25.5673 19.4801 25.5667H21.4463C21.4982 25.5661 21.5489 25.5709 21.5996 25.5806C21.6503 25.5896 21.6997 25.6041 21.7474 25.6234C21.7951 25.6427 21.8403 25.6669 21.8837 25.6952C21.9266 25.7236 21.9664 25.7555 22.0032 25.7917C22.0394 25.8279 22.0726 25.8678 22.1009 25.91C22.1299 25.9528 22.154 25.9981 22.1739 26.0457C22.1939 26.0934 22.2089 26.1423 22.2192 26.1929C22.2294 26.243 22.2343 26.2943 22.2343 26.3456C22.2343 26.3975 22.2294 26.4481 22.2192 26.4988C22.2089 26.5495 22.1939 26.5984 22.1739 26.646C22.154 26.6931 22.1299 26.7383 22.1009 26.7812C22.0726 26.824 22.0394 26.8632 22.0032 26.8994C21.9664 26.9356 21.9266 26.9682 21.8837 26.9966C21.8403 27.0249 21.7951 27.0485 21.7474 27.0678C21.6997 27.0871 21.6503 27.1015 21.5996 27.1112C21.5489 27.1208 21.4982 27.1251 21.4463 27.1245H19.4801C14.6397 27.1245 10.6397 31.0605 10.5643 35.8985C10.5631 35.9492 10.5577 35.9993 10.5468 36.0488C10.5365 36.0982 10.5208 36.1459 10.5009 36.1923C10.481 36.2394 10.4569 36.2834 10.4285 36.3251C10.3996 36.3667 10.3676 36.4053 10.3314 36.4409C10.2952 36.4765 10.256 36.5085 10.2138 36.5362C10.1715 36.564 10.1269 36.5875 10.0804 36.6068C10.0334 36.6261 9.9851 36.6406 9.93563 36.6503C9.88616 36.6599 9.83608 36.6647 9.7854 36.6647ZM36.8672 29.5359C36.6717 29.5359 36.5009 29.4714 36.3537 29.3423C35.9513 28.9887 35.5199 28.6732 35.0602 28.3969C34.6005 28.1212 34.1202 27.8883 33.6183 27.6988C33.1163 27.5094 32.6023 27.3664 32.0744 27.2699C31.5471 27.1733 31.015 27.1251 30.4786 27.1245H28.5148C28.4635 27.1251 28.4123 27.1208 28.3616 27.1112C28.3109 27.1015 28.262 27.0871 28.2144 27.0678C28.1661 27.0485 28.1208 27.0249 28.078 26.9966C28.0352 26.9682 27.9954 26.9356 27.9586 26.8994C27.9218 26.8632 27.8892 26.824 27.8602 26.7812C27.8313 26.7383 27.8071 26.6931 27.7872 26.646C27.7673 26.5984 27.7522 26.5489 27.7426 26.4988C27.7323 26.4481 27.7275 26.3969 27.7275 26.3456C27.7275 26.2943 27.7323 26.243 27.7426 26.1923C27.7522 26.1423 27.7673 26.0928 27.7872 26.0457C27.8071 25.9981 27.8313 25.9528 27.8602 25.91C27.8892 25.8672 27.9218 25.8279 27.9586 25.7917C27.9954 25.7555 28.0352 25.723 28.078 25.6952C28.1208 25.6669 28.1661 25.6427 28.2144 25.6234C28.262 25.6041 28.3109 25.5896 28.3616 25.58C28.4123 25.5709 28.4635 25.5661 28.5148 25.5667H30.4786C31.1091 25.5673 31.7335 25.624 32.3531 25.7374C32.9733 25.8503 33.5779 26.0186 34.1673 26.2406C34.7567 26.4632 35.3215 26.7365 35.8614 27.0611C36.4014 27.3851 36.9082 27.7555 37.3812 28.1712C37.4409 28.2237 37.491 28.2834 37.532 28.351C37.5736 28.4186 37.6038 28.491 37.6231 28.5676C37.6418 28.6448 37.6497 28.7227 37.6448 28.8017C37.64 28.8807 37.6243 28.9573 37.596 29.031C37.5682 29.1052 37.5296 29.1733 37.4813 29.2361C37.4325 29.2982 37.3758 29.3519 37.3106 29.3972C37.2454 29.4424 37.1748 29.4768 37.0994 29.5003C37.024 29.5239 36.9462 29.5353 36.8672 29.5353V29.5359Z" fill="black"/>
<path d="M28.5153 27.5444C28.464 27.5444 28.4134 27.5396 28.3633 27.5294C28.3132 27.5197 28.2643 27.5046 28.2173 27.4853C28.1702 27.4654 28.125 27.4419 28.0828 27.4129C28.0399 27.3846 28.0007 27.3526 27.9645 27.3164C27.9283 27.2802 27.8963 27.241 27.868 27.1981C27.8396 27.1559 27.8155 27.1107 27.7956 27.0636C27.7763 27.0165 27.7612 26.9677 27.7515 26.9176C27.7413 26.8675 27.7364 26.8168 27.7364 26.7656V23.0889C27.737 23.0383 27.7425 22.9882 27.7527 22.9381C27.7636 22.8886 27.7787 22.8404 27.798 22.7939C27.8179 22.7469 27.842 22.7028 27.871 22.6606C27.8993 22.6184 27.9313 22.5797 27.9675 22.5441C28.0037 22.5079 28.0429 22.4766 28.0852 22.4482C28.128 22.4205 28.1726 22.3963 28.2191 22.377C28.2662 22.3577 28.315 22.3432 28.3645 22.3336C28.4146 22.3239 28.4647 22.3191 28.5153 22.3191C28.566 22.3191 28.6167 22.3239 28.6662 22.3336C28.7162 22.3432 28.7645 22.3577 28.8116 22.377C28.8586 22.3963 28.9033 22.4205 28.9455 22.4482C28.9877 22.4766 29.0269 22.5079 29.0631 22.5441C29.0993 22.5797 29.1319 22.6184 29.1603 22.6606C29.1886 22.7028 29.2128 22.7469 29.2327 22.7939C29.2526 22.8404 29.2677 22.8886 29.2779 22.9381C29.2882 22.9882 29.2936 23.0383 29.2942 23.0889V26.7656C29.2942 26.8168 29.2894 26.8675 29.2791 26.9176C29.2695 26.9677 29.2544 27.0165 29.2351 27.0636C29.2152 27.1107 29.1916 27.1559 29.1633 27.1981C29.1343 27.241 29.1024 27.2802 29.0662 27.3164C29.03 27.3526 28.9907 27.3846 28.9479 27.4129C28.9057 27.4413 28.8604 27.4654 28.8134 27.4853C28.7663 27.5046 28.7174 27.5197 28.6674 27.5294C28.6173 27.5396 28.5666 27.5444 28.5153 27.5444ZM21.4469 27.5444C21.3962 27.5444 21.3455 27.5396 21.2948 27.5294C21.2447 27.5197 21.1965 27.5046 21.1488 27.4853C21.1018 27.4654 21.0571 27.4419 21.0143 27.4129C20.972 27.3846 20.9322 27.3526 20.896 27.3164C20.8598 27.2802 20.8278 27.241 20.7995 27.1981C20.7711 27.1559 20.747 27.1107 20.7277 27.0636C20.7078 27.0165 20.6933 26.9677 20.6831 26.9176C20.6734 26.8675 20.668 26.8168 20.668 26.7656V23.0889C20.668 23.0383 20.6734 22.9876 20.6831 22.9369C20.6933 22.8868 20.7078 22.8386 20.7277 22.7909C20.747 22.7438 20.7711 22.6992 20.7995 22.6564C20.8278 22.6141 20.8598 22.5743 20.896 22.5381C20.9322 22.5019 20.972 22.4699 21.0143 22.4416C21.0571 22.4132 21.1018 22.3891 21.1488 22.3692C21.1965 22.3499 21.2447 22.3354 21.2948 22.3251C21.3455 22.3149 21.3962 22.3101 21.4469 22.3101C21.4981 22.3101 21.5488 22.3149 21.5989 22.3251C21.649 22.3354 21.6978 22.3499 21.7449 22.3692C21.7926 22.3891 21.8372 22.4132 21.88 22.4416C21.9223 22.4699 21.9615 22.5019 21.9977 22.5381C22.0339 22.5743 22.0665 22.6141 22.0948 22.6564C22.1232 22.6992 22.1473 22.7438 22.1666 22.7909C22.1865 22.8386 22.201 22.8868 22.2113 22.9369C22.2209 22.9876 22.2257 23.0383 22.2257 23.0889V26.7656C22.2257 26.8168 22.2209 26.8675 22.2113 26.9176C22.201 26.9677 22.1865 27.0165 22.1666 27.0636C22.1473 27.1107 22.1232 27.1559 22.0948 27.1981C22.0665 27.241 22.0339 27.2802 21.9977 27.3164C21.9615 27.3526 21.9223 27.3846 21.88 27.4129C21.8372 27.4419 21.7926 27.4654 21.7449 27.4853C21.6978 27.5046 21.649 27.5197 21.5989 27.5294C21.5488 27.5396 21.4981 27.5444 21.4469 27.5444Z" fill="black"/>
<path d="M32.4229 18.2606H32.2298C32.1786 18.2612 32.1273 18.2569 32.0766 18.2473C32.0259 18.2376 31.977 18.2232 31.9288 18.2039C31.8811 18.1845 31.8359 18.161 31.793 18.1327C31.7496 18.1043 31.7098 18.0717 31.6736 18.0355C31.6368 17.9993 31.6042 17.9601 31.5752 17.9173C31.5463 17.8744 31.5221 17.8298 31.5022 17.7821C31.4823 17.7345 31.4672 17.6856 31.4576 17.6349C31.4473 17.5842 31.4419 17.5336 31.4419 17.4817C31.4419 17.4304 31.4473 17.3791 31.4576 17.329C31.4672 17.2784 31.4823 17.2295 31.5022 17.1818C31.5221 17.1342 31.5463 17.0889 31.5752 17.0467C31.6042 17.0039 31.6368 16.964 31.6736 16.9278C31.7098 16.8916 31.7496 16.8597 31.793 16.8313C31.8359 16.8029 31.8811 16.7788 31.9288 16.7595C31.977 16.7402 32.0259 16.7257 32.0766 16.7167C32.1273 16.707 32.1786 16.7022 32.2298 16.7028H32.4229C32.5206 16.7022 32.6172 16.6919 32.7131 16.672C32.8084 16.6527 32.9013 16.6238 32.9912 16.5858C33.0811 16.5477 33.1668 16.5019 33.2476 16.447C33.3285 16.3921 33.4033 16.3306 33.4721 16.2612C33.5408 16.1918 33.6024 16.1164 33.6561 16.0349C33.7104 15.9541 33.7556 15.8678 33.793 15.7779C33.8298 15.6874 33.8582 15.5945 33.8769 15.4986C33.8962 15.4033 33.9053 15.3061 33.9053 15.2084C33.9053 15.1112 33.8962 15.0141 33.8769 14.9188C33.8582 14.8229 33.8298 14.7299 33.793 14.6394C33.7556 14.5496 33.7104 14.4633 33.6561 14.3824C33.6024 14.301 33.5408 14.2256 33.4721 14.1562C33.4033 14.0868 33.3285 14.0247 33.2476 13.9704C33.1668 13.9155 33.0811 13.8696 32.9912 13.8316C32.9013 13.7936 32.8084 13.7646 32.7131 13.7453C32.6172 13.7254 32.5206 13.7152 32.4229 13.7146H32.2715C32.2196 13.7152 32.1689 13.7103 32.1182 13.7007C32.0675 13.691 32.0181 13.6772 31.9704 13.6579C31.9227 13.6385 31.8775 13.6144 31.8341 13.5861C31.7912 13.5577 31.7514 13.5257 31.7146 13.4895C31.6784 13.4533 31.6452 13.4135 31.6169 13.3707C31.5879 13.3284 31.5638 13.2832 31.5439 13.2355C31.524 13.1879 31.5089 13.139 31.4986 13.0883C31.4884 13.0382 31.4835 12.987 31.4835 12.9357C31.4835 12.8838 31.4884 12.8331 31.4986 12.7824C31.5089 12.7318 31.524 12.6829 31.5439 12.6352C31.5638 12.5876 31.5879 12.5429 31.6169 12.5001C31.6452 12.4572 31.6784 12.418 31.7146 12.3818C31.7514 12.3456 31.7912 12.3131 31.8341 12.2847C31.8775 12.2563 31.9227 12.2328 31.9704 12.2135C32.0181 12.1942 32.0675 12.1797 32.1182 12.1701C32.1689 12.1604 32.2196 12.1562 32.2715 12.1568H32.4229C32.5237 12.1562 32.6238 12.1604 32.7234 12.1695C32.8235 12.1791 32.9224 12.193 33.0208 12.2123C33.1197 12.2316 33.2169 12.2551 33.3128 12.2841C33.4093 12.3125 33.5034 12.3456 33.5964 12.3836C33.6893 12.4217 33.7798 12.4645 33.8684 12.5115C33.9571 12.558 34.0434 12.6093 34.1273 12.6648C34.2105 12.7203 34.2914 12.78 34.3692 12.8434C34.447 12.9067 34.5212 12.9737 34.5924 13.0443C34.6636 13.1149 34.7312 13.1891 34.7951 13.2663C34.8585 13.3441 34.9188 13.4244 34.9743 13.5076C35.0304 13.5909 35.0823 13.6766 35.1294 13.7652C35.177 13.8533 35.2199 13.9438 35.2585 14.0367C35.2971 14.129 35.3309 14.2238 35.3599 14.3197C35.3894 14.4156 35.4135 14.5128 35.4335 14.6111C35.4528 14.7094 35.4678 14.8084 35.4775 14.9085C35.4878 15.0081 35.4926 15.1082 35.4926 15.2084C35.4926 15.3091 35.4878 15.4093 35.4775 15.5088C35.4678 15.609 35.4528 15.7079 35.4335 15.8063C35.4135 15.9046 35.3894 16.0017 35.3599 16.0977C35.3309 16.1936 35.2971 16.2877 35.2585 16.3806C35.2199 16.4735 35.177 16.564 35.1294 16.6521C35.0823 16.7408 35.0304 16.8265 34.9743 16.9097C34.9188 16.993 34.8585 17.0732 34.7951 17.1505C34.7312 17.2283 34.6636 17.3019 34.5924 17.3731C34.5212 17.4437 34.447 17.5106 34.3692 17.574C34.2914 17.6373 34.2105 17.6971 34.1273 17.7526C34.0434 17.8081 33.9571 17.8588 33.8684 17.9058C33.7798 17.9529 33.6893 17.9951 33.5964 18.0331C33.5034 18.0711 33.4093 18.1049 33.3128 18.1333C33.2169 18.1622 33.1197 18.1858 33.0208 18.2051C32.9224 18.2244 32.8235 18.2382 32.7234 18.2479C32.6238 18.2569 32.5237 18.2612 32.4229 18.2606ZM17.7291 18.2606H17.5384C17.4377 18.2612 17.3375 18.2569 17.238 18.2479C17.1378 18.2382 17.0389 18.2244 16.9405 18.2051C16.8416 18.1858 16.7445 18.1622 16.6485 18.1333C16.552 18.1049 16.4579 18.0711 16.365 18.0331C16.2721 17.9951 16.1816 17.9529 16.0929 17.9058C16.0042 17.8588 15.9179 17.8081 15.8341 17.7526C15.7508 17.6971 15.67 17.6373 15.5921 17.574C15.5143 17.5106 15.4401 17.4437 15.3689 17.3731C15.2977 17.3019 15.2301 17.2283 15.1662 17.1505C15.1028 17.0732 15.0425 16.993 14.987 16.9097C14.9309 16.8265 14.879 16.7408 14.8319 16.6521C14.7843 16.564 14.7414 16.4735 14.7028 16.3806C14.6642 16.2877 14.6304 16.1936 14.6015 16.0977C14.5719 16.0017 14.5478 15.9046 14.5279 15.8063C14.5086 15.7079 14.4935 15.609 14.4838 15.5088C14.4736 15.4093 14.4688 15.3091 14.4688 15.2084C14.4688 15.1082 14.4736 15.0081 14.4838 14.9085C14.4935 14.8084 14.5086 14.7094 14.5279 14.6111C14.5478 14.5128 14.5719 14.4156 14.6015 14.3197C14.6304 14.2238 14.6642 14.129 14.7028 14.0367C14.7414 13.9438 14.7843 13.8533 14.8319 13.7652C14.879 13.6766 14.9309 13.5909 14.987 13.5076C15.0425 13.4244 15.1028 13.3441 15.1662 13.2663C15.2301 13.1891 15.2977 13.1149 15.3689 13.0443C15.4401 12.9737 15.5143 12.9067 15.5921 12.8434C15.67 12.78 15.7508 12.7203 15.8341 12.6648C15.9179 12.6093 16.0042 12.558 16.0929 12.5115C16.1816 12.4645 16.2721 12.4217 16.365 12.3836C16.4579 12.3456 16.552 12.3125 16.6485 12.2841C16.7445 12.2551 16.8416 12.2316 16.9405 12.2123C17.0389 12.193 17.1378 12.1791 17.238 12.1695C17.3375 12.1604 17.4377 12.1562 17.5384 12.1568H17.6905C17.7418 12.1562 17.793 12.1604 17.8437 12.1701C17.8938 12.1797 17.9433 12.1942 17.9909 12.2135C18.0386 12.2328 18.0844 12.2563 18.1273 12.2847C18.1701 12.3131 18.2099 12.3456 18.2467 12.3818C18.2835 12.418 18.3161 12.4572 18.3451 12.5001C18.3734 12.5429 18.3982 12.5876 18.4181 12.6352C18.4374 12.6829 18.4525 12.7318 18.4627 12.7824C18.473 12.8331 18.4778 12.8838 18.4778 12.9357C18.4778 12.987 18.473 13.0382 18.4627 13.0883C18.4525 13.139 18.4374 13.1879 18.4181 13.2355C18.3982 13.2832 18.3734 13.3284 18.3451 13.3707C18.3161 13.4135 18.2835 13.4533 18.2467 13.4895C18.2099 13.5257 18.1701 13.5577 18.1273 13.5861C18.0844 13.6144 18.0386 13.6385 17.9909 13.6579C17.9433 13.6772 17.8938 13.691 17.8437 13.7007C17.793 13.7103 17.7418 13.7152 17.6905 13.7146H17.5384C17.4395 13.7134 17.3418 13.7224 17.2452 13.7411C17.1481 13.7598 17.054 13.7876 16.9629 13.8244C16.8712 13.8618 16.7843 13.9076 16.7022 13.9619C16.6202 14.0162 16.5436 14.0784 16.4736 14.1477C16.4036 14.2171 16.3414 14.2925 16.2859 14.3746C16.231 14.4566 16.1846 14.5429 16.1466 14.634C16.1086 14.7251 16.0802 14.8186 16.0609 14.9158C16.0416 15.0123 16.0319 15.11 16.0319 15.2084C16.0319 15.3073 16.0416 15.4051 16.0609 15.5016C16.0802 15.5981 16.1086 15.6922 16.1466 15.7833C16.1846 15.8744 16.231 15.9607 16.2859 16.0428C16.3414 16.1242 16.4036 16.2002 16.4736 16.2696C16.5436 16.339 16.6202 16.4011 16.7022 16.4554C16.7843 16.5097 16.8712 16.5556 16.9629 16.593C17.054 16.6298 17.1481 16.6575 17.2452 16.6763C17.3418 16.695 17.4395 16.704 17.5384 16.7028H17.7291C17.7804 16.7022 17.8316 16.707 17.8823 16.7167C17.9324 16.7257 17.9819 16.7402 18.0295 16.7595C18.0772 16.7788 18.1224 16.8029 18.1659 16.8313C18.2087 16.8597 18.2485 16.8916 18.2853 16.9278C18.3221 16.964 18.3547 17.0039 18.3831 17.0467C18.412 17.0889 18.4368 17.1342 18.4561 17.1818C18.476 17.2295 18.4911 17.2784 18.5013 17.329C18.5116 17.3791 18.5164 17.4304 18.5164 17.4817C18.5164 17.5336 18.5116 17.5842 18.5013 17.6349C18.4911 17.6856 18.476 17.7345 18.4561 17.7821C18.4368 17.8298 18.412 17.8744 18.3831 17.9173C18.3547 17.9601 18.3221 17.9993 18.2853 18.0355C18.2485 18.0717 18.2087 18.1043 18.1659 18.1327C18.1224 18.161 18.0772 18.1845 18.0295 18.2039C17.9819 18.2232 17.9324 18.2376 17.8823 18.2473C17.8316 18.2569 17.7804 18.2612 17.7291 18.2606Z" fill="black"/>
<path d="M24.9783 24.7881C24.7141 24.7875 24.4504 24.7742 24.188 24.7482C23.9249 24.7223 23.6637 24.6831 23.4049 24.6312C23.1461 24.5799 22.8902 24.5154 22.6375 24.4381C22.3847 24.3615 22.1361 24.2722 21.8924 24.1715C21.648 24.0701 21.4097 23.9573 21.1768 23.8324C20.9439 23.7081 20.7177 23.5724 20.4981 23.4252C20.2785 23.2786 20.0667 23.1211 19.8622 22.9534C19.6583 22.7862 19.4628 22.6089 19.2758 22.4218C19.0893 22.2354 18.912 22.0399 18.7442 21.8354C18.5771 21.6315 18.4197 21.4197 18.2731 21.2001C18.1258 20.9805 17.9901 20.7543 17.8658 20.5214C17.7409 20.2885 17.6281 20.0496 17.5267 19.8059C17.4254 19.5621 17.3367 19.3135 17.2595 19.0608C17.1829 18.808 17.1183 18.5522 17.067 18.2933C17.0151 18.0339 16.9759 17.7733 16.95 17.5102C16.9234 17.2478 16.9102 16.9841 16.9102 16.7199V12.9359C16.9108 12.8852 16.9162 12.8345 16.9264 12.785C16.9367 12.7356 16.9518 12.6873 16.9717 12.6402C16.9916 12.5938 17.0157 12.5491 17.0441 12.5069C17.0731 12.4653 17.105 12.4261 17.1412 12.3905C17.1774 12.3549 17.2166 12.3229 17.2589 12.2951C17.3011 12.2668 17.3458 12.2433 17.3928 12.224C17.4399 12.2046 17.4881 12.1902 17.5382 12.1799C17.5883 12.1703 17.6384 12.1654 17.689 12.1654C17.7397 12.1654 17.7904 12.1703 17.8399 12.1799C17.8899 12.1902 17.9382 12.2046 17.9853 12.224C18.0323 12.2433 18.077 12.2668 18.1192 12.2951C18.1614 12.3229 18.2007 12.3549 18.2369 12.3905C18.2731 12.4261 18.305 12.4653 18.334 12.5069C18.3623 12.5491 18.3865 12.5938 18.4064 12.6402C18.4263 12.6873 18.4414 12.7356 18.4516 12.785C18.4619 12.8345 18.4673 12.8852 18.4679 12.9359V16.7199C18.4679 16.9328 18.4788 17.1458 18.4993 17.3582C18.5204 17.5706 18.5518 17.7811 18.5934 17.9905C18.635 18.1992 18.6863 18.4062 18.7485 18.6101C18.8106 18.814 18.8824 19.0149 18.9639 19.2116C19.0453 19.4089 19.1364 19.6013 19.2372 19.7896C19.3373 19.9772 19.4471 20.16 19.5654 20.3374C19.6842 20.5148 19.8109 20.6861 19.9461 20.8508C20.0812 21.0155 20.2248 21.1736 20.375 21.3244C20.5258 21.4752 20.6839 21.6182 20.8486 21.7534C21.0139 21.8885 21.1847 22.0158 21.362 22.1341C21.5394 22.2523 21.7222 22.3621 21.9105 22.4629C22.0981 22.563 22.2905 22.6541 22.4878 22.7356C22.6851 22.8176 22.8854 22.8894 23.0893 22.9509C23.2939 23.0131 23.5002 23.065 23.7096 23.1066C23.9183 23.1482 24.1295 23.179 24.3412 23.2001C24.5536 23.2212 24.7666 23.2315 24.9795 23.2315C25.1931 23.2315 25.4055 23.2212 25.6178 23.2001C25.8302 23.179 26.0408 23.1482 26.2501 23.1066C26.4595 23.065 26.6658 23.0131 26.8697 22.9509C27.0743 22.8894 27.2746 22.8176 27.4718 22.7356C27.6685 22.6541 27.861 22.563 28.0492 22.4629C28.2375 22.3621 28.4203 22.2523 28.5976 22.1341C28.775 22.0158 28.9458 21.8885 29.1105 21.7534C29.2758 21.6182 29.4332 21.4752 29.5841 21.3244C29.7349 21.1736 29.8779 21.0155 30.013 20.8508C30.1488 20.6861 30.2755 20.5148 30.3937 20.3374C30.5126 20.16 30.6218 19.9772 30.7225 19.7896C30.8233 19.6013 30.9144 19.4089 30.9958 19.2116C31.0773 19.0149 31.1491 18.814 31.2112 18.6101C31.2727 18.4062 31.3246 18.1992 31.3663 17.9905C31.4079 17.7811 31.4393 17.5706 31.4598 17.3582C31.4809 17.1458 31.4912 16.9328 31.4912 16.7199V12.9359C31.4912 12.8846 31.4966 12.8339 31.5062 12.7838C31.5165 12.7338 31.531 12.6849 31.5509 12.6378C31.5702 12.5902 31.5943 12.5455 31.6227 12.5033C31.651 12.4605 31.6836 12.4212 31.7198 12.385C31.756 12.3488 31.7952 12.3163 31.8375 12.2879C31.8803 12.2595 31.9249 12.2354 31.972 12.2161C32.0197 12.1968 32.0679 12.1817 32.1186 12.1721C32.1687 12.1618 32.2194 12.157 32.2706 12.157C32.3213 12.157 32.372 12.1618 32.4221 12.1721C32.4727 12.1817 32.521 12.1968 32.5687 12.2161C32.6157 12.2354 32.6604 12.2595 32.7032 12.2879C32.7454 12.3163 32.7853 12.3488 32.8209 12.385C32.8571 12.4212 32.8896 12.4605 32.918 12.5033C32.9464 12.5455 32.9705 12.5902 32.9898 12.6378C33.0097 12.6849 33.0242 12.7338 33.0344 12.7838C33.0441 12.8339 33.0495 12.8846 33.0495 12.9359V16.7199C33.0489 16.9841 33.0356 17.2478 33.0097 17.5102C32.9832 17.7733 32.9445 18.0345 32.8927 18.2933C32.8408 18.5528 32.7762 18.8086 32.6996 19.0614C32.6224 19.3141 32.5331 19.5621 32.4323 19.8065C32.331 20.0502 32.2175 20.2891 32.0933 20.522C31.9684 20.7549 31.8326 20.9811 31.686 21.2007C31.5388 21.4203 31.3813 21.6321 31.2136 21.8366C31.0465 22.0405 30.8691 22.236 30.6821 22.423C30.4951 22.6095 30.2996 22.7868 30.0957 22.9546C29.8912 23.1223 29.6794 23.2792 29.4598 23.4258C29.2402 23.573 29.0133 23.7087 28.7804 23.833C28.5476 23.9579 28.3093 24.0707 28.0649 24.1721C27.8212 24.2728 27.5726 24.3621 27.3198 24.4387C27.067 24.516 26.8112 24.5799 26.5518 24.6318C26.293 24.6837 26.0317 24.7223 25.7687 24.7482C25.5062 24.7748 25.2426 24.7881 24.9783 24.7881Z" fill="black"/>
<mask id="mask0_287_812" style="mask-type:luminance" maskUnits="userSpaceOnUse" x="14" y="0" width="21" height="14">
<path d="M14.9414 0H34.8654V13.717H14.9414V0Z" fill="white"/>
</mask>
<g mask="url(#mask0_287_812)">
<path d="M32.2721 13.7146C32.2359 13.7146 32.1991 13.7122 32.1629 13.7068C32.07 13.6935 31.9825 13.6646 31.8999 13.6199C31.8172 13.5753 31.7454 13.5173 31.6839 13.4462C31.6223 13.3756 31.5753 13.2959 31.5421 13.2084C31.5095 13.1204 31.4932 13.0293 31.4926 12.9357V8.80905C31.4926 8.70769 31.483 8.60754 31.4631 8.5086C31.4432 8.40905 31.4136 8.31312 31.375 8.21961C31.3364 8.12609 31.2887 8.03741 31.2326 7.95294C31.1765 7.86908 31.1125 7.79125 31.0407 7.71946C30.9695 7.64827 30.8917 7.58431 30.8073 7.52821C30.7234 7.47149 30.6347 7.42443 30.5412 7.38582C30.4477 7.34661 30.3511 7.31765 30.2522 7.29774C30.1533 7.27783 30.0525 7.26757 29.9517 7.26757H20.0109C19.9095 7.26757 19.8094 7.27783 19.7104 7.29774C19.6109 7.31765 19.5143 7.34661 19.4214 7.38522C19.3279 7.42443 19.2392 7.47149 19.1548 7.52821C19.0709 7.58431 18.9931 7.64827 18.9213 7.71946C18.8501 7.79125 18.7861 7.86908 18.73 7.95294C18.6733 8.03741 18.6263 8.12609 18.587 8.21961C18.5484 8.31312 18.5195 8.40905 18.4996 8.5086C18.4797 8.60754 18.4694 8.70769 18.4694 8.80905V12.9357C18.4694 12.987 18.4646 13.0377 18.4543 13.0878C18.4447 13.1379 18.4296 13.1867 18.4103 13.2338C18.391 13.2808 18.3668 13.3261 18.3385 13.3683C18.3101 13.4112 18.2775 13.4504 18.2413 13.4866C18.2051 13.5228 18.1659 13.5548 18.1231 13.5831C18.0809 13.6115 18.0362 13.6356 17.9886 13.6555C17.9415 13.6748 17.8926 13.6893 17.8425 13.6995C17.7925 13.7098 17.7418 13.7146 17.6905 13.7146H17.5385C17.4528 13.7146 17.3689 13.7008 17.2875 13.673C17.206 13.6452 17.1312 13.6048 17.0631 13.5523C16.9949 13.4998 16.937 13.4383 16.8899 13.3665C16.8422 13.2947 16.8073 13.2175 16.7855 13.1342L15.1837 7.05762C14.7825 5.53364 15.1312 3.95596 16.1653 2.61478C17.3895 1.02685 19.416 0 21.3285 0H26.1949C27.3973 0 28.461 0.696229 29.0317 1.79608C29.3086 1.59155 29.6109 1.43771 29.9385 1.33394C30.2667 1.23017 30.6027 1.1825 30.9466 1.19095C32.5092 1.20603 34.4386 1.97104 34.7517 5.53062C34.8646 6.81569 34.7186 7.30317 34.4537 8.18824C34.4109 8.33122 34.3638 8.48808 34.3131 8.66486L33.0202 13.1511C32.9967 13.232 32.9611 13.3074 32.9134 13.3768C32.8658 13.4468 32.8079 13.5071 32.7403 13.5578C32.6733 13.6084 32.5991 13.6471 32.5195 13.6742C32.4392 13.7008 32.3566 13.7146 32.2721 13.7146ZM21.3285 1.55837C19.9035 1.55837 18.3246 2.36501 17.3985 3.56561C16.8809 4.23771 16.3373 5.31946 16.6896 6.66063L17.0311 7.95475C17.0769 7.79427 17.1361 7.63861 17.2073 7.48718C17.279 7.33635 17.3623 7.19216 17.457 7.0546C17.5517 6.91704 17.6567 6.78733 17.7726 6.66667C17.8878 6.546 18.0127 6.4356 18.146 6.33545C18.2794 6.23469 18.4205 6.1454 18.5683 6.06757C18.7162 5.98974 18.8694 5.92459 19.0275 5.87149C19.1861 5.8184 19.3478 5.77798 19.5125 5.75083C19.6778 5.72428 19.8438 5.71041 20.0109 5.71041H29.9517C30.1165 5.71041 30.28 5.72368 30.4422 5.75023C30.6051 5.77617 30.7644 5.81538 30.9207 5.86667C31.0769 5.91855 31.2284 5.9819 31.3744 6.05792C31.5204 6.13333 31.6597 6.22021 31.7925 6.31795C31.9246 6.41569 32.0489 6.52368 32.1641 6.64072C32.2794 6.75837 32.3843 6.88446 32.4797 7.019C32.575 7.15294 32.6588 7.29412 32.7318 7.44193C32.8048 7.58914 32.8652 7.74178 32.914 7.89925C32.9297 7.84495 32.9454 7.79306 32.9605 7.74238C33.2103 6.90739 33.2857 6.6552 33.1994 5.66757C32.9732 3.09864 31.8679 2.75837 30.9291 2.74932C30.806 2.7457 30.6848 2.75596 30.5641 2.78069C30.4435 2.80543 30.3276 2.84404 30.216 2.89593C30.1044 2.94781 30.0006 3.01176 29.9041 3.08839C29.8076 3.16501 29.7213 3.25128 29.6453 3.34842C29.5343 3.47994 29.4269 3.61508 29.3237 3.75324C29.2791 3.81357 29.2266 3.86606 29.1662 3.91131C29.1059 3.95656 29.0407 3.99216 28.9708 4.0181C28.9002 4.04404 28.8278 4.05973 28.7524 4.06516C28.6775 4.06999 28.6033 4.06456 28.5303 4.04827C28.4567 4.03198 28.3873 4.00603 28.3216 3.96923C28.2558 3.93303 28.1967 3.88778 28.1442 3.83469C28.0917 3.781 28.0477 3.72127 28.0121 3.6549C27.9765 3.58854 27.9517 3.51855 27.9361 3.44495C27.9005 3.27059 27.8649 3.12097 27.8293 2.98643C27.5988 2.11765 26.9575 1.55897 26.1943 1.55897L21.3285 1.55837Z" fill="black"/>
</g>
<path d="M24.9101 47.3296C24.7641 47.3296 24.6295 47.2916 24.5052 47.2162L22.6518 46.0892C22.5294 46.015 22.4353 45.9148 22.3683 45.7887C22.3013 45.662 22.2712 45.5281 22.2784 45.3851L22.9909 31.0026C22.9933 30.9519 23.0012 30.9012 23.0138 30.8518C23.0259 30.8023 23.0434 30.754 23.0651 30.7082C23.0868 30.6617 23.1134 30.6183 23.1436 30.5773C23.1743 30.5356 23.2081 30.4982 23.2461 30.4638C23.2841 30.4294 23.3252 30.3993 23.3692 30.3727C23.4126 30.3468 23.4591 30.3251 23.5068 30.3076C23.555 30.2907 23.6045 30.278 23.6552 30.2708C23.7058 30.2629 23.7565 30.2605 23.8078 30.2635C23.8585 30.2659 23.9092 30.2732 23.9586 30.2858C24.0081 30.2979 24.0564 30.3154 24.1022 30.3371C24.1487 30.3588 24.1921 30.3854 24.2331 30.4156C24.2742 30.4463 24.3122 30.4807 24.3466 30.5181C24.381 30.5561 24.4111 30.5972 24.4377 30.6412C24.4636 30.6846 24.4853 30.7311 24.5028 30.7794C24.5197 30.827 24.5324 30.8765 24.5396 30.9272C24.5475 30.9779 24.5499 31.0285 24.5469 31.0798L23.8573 44.999L24.9095 45.6385L25.9598 44.999L25.2642 30.9477C25.2618 30.8964 25.2642 30.8457 25.2721 30.795C25.2793 30.745 25.292 30.6955 25.3089 30.6472C25.3264 30.599 25.3481 30.5531 25.3746 30.5097C25.4006 30.4656 25.4313 30.4246 25.4651 30.3872C25.4995 30.3492 25.5375 30.3148 25.5785 30.2846C25.6196 30.2539 25.663 30.2279 25.7095 30.2062C25.7553 30.1845 25.8036 30.167 25.8531 30.1549C25.9025 30.1423 25.9526 30.135 26.0039 30.1326C26.0552 30.1296 26.1058 30.132 26.1565 30.1398C26.2066 30.1471 26.2561 30.1598 26.3043 30.1766C26.3526 30.1941 26.3985 30.2159 26.4425 30.2418C26.4859 30.2684 26.527 30.2985 26.565 30.3323C26.603 30.3667 26.6368 30.4047 26.6675 30.4457C26.6977 30.4868 26.7242 30.5302 26.746 30.576C26.7683 30.6225 26.7852 30.6702 26.7979 30.7196C26.8099 30.7691 26.8178 30.8198 26.8202 30.8705L27.5387 45.3857C27.5454 45.5281 27.5158 45.6626 27.4488 45.7887C27.3819 45.9148 27.2877 46.015 27.1659 46.0892L25.3149 47.2162C25.1906 47.2922 25.0555 47.3296 24.9101 47.3296Z" fill="black"/>
<path d="M29.1092 34.4773C28.9089 34.4773 28.7339 34.4097 28.5855 34.2746L24.4558 30.5153C24.416 30.4785 24.3798 30.4381 24.3478 30.394C24.3158 30.35 24.2893 30.3029 24.2675 30.2529C24.2452 30.2034 24.2289 30.1515 24.2175 30.0984C24.2066 30.0447 24.2012 29.991 24.2012 29.9367C24.2018 29.8824 24.2072 29.8281 24.2187 29.775C24.2301 29.7219 24.247 29.6707 24.2693 29.6206C24.2917 29.5711 24.3188 29.5241 24.3508 29.48C24.3828 29.4366 24.4196 29.3962 24.46 29.36L28.4624 25.766C28.6102 25.6333 28.784 25.5669 28.9825 25.5669H30.4799C31.1182 25.5669 31.7517 25.6248 32.3798 25.74C32.4377 25.7503 32.4932 25.7672 32.5475 25.7907C32.6012 25.8137 32.6519 25.8426 32.6989 25.8776C32.7466 25.912 32.7894 25.9512 32.828 25.9959C32.866 26.0399 32.8992 26.0882 32.927 26.14C32.9541 26.1919 32.9758 26.2456 32.9909 26.3023C33.0066 26.3591 33.015 26.417 33.0175 26.4755C33.0199 26.534 33.0157 26.5919 33.0048 26.6499C32.9939 26.7072 32.977 26.7633 32.9535 26.817L29.8241 34.0091C29.7939 34.0791 29.7541 34.1425 29.7052 34.2004C29.6564 34.2583 29.6003 34.3084 29.5369 34.35C29.473 34.3916 29.4054 34.423 29.3324 34.4447C29.26 34.4664 29.1858 34.4773 29.1098 34.4773H29.1092ZM26.1414 29.9434L28.8292 32.3898L31.1104 27.1476C30.9004 27.1325 30.6899 27.1253 30.4793 27.1253H29.2811L26.1414 29.9434Z" fill="black"/>
<path d="M20.8523 34.4773C20.7762 34.4773 20.702 34.4664 20.6296 34.4453C20.5566 34.4236 20.4891 34.3916 20.4257 34.35C20.3618 34.3084 20.3057 34.2589 20.2568 34.201C20.2079 34.1431 20.1681 34.0791 20.1379 34.0097L17.0079 26.817C16.985 26.7633 16.9675 26.7072 16.9566 26.6499C16.9464 26.5919 16.9416 26.534 16.944 26.4755C16.9464 26.417 16.9554 26.3591 16.9705 26.3029C16.9856 26.2462 17.0073 26.1919 17.0351 26.14C17.0622 26.0882 17.0954 26.0405 17.134 25.9959C17.172 25.9518 17.2149 25.9126 17.2625 25.8776C17.3096 25.8432 17.3603 25.8143 17.414 25.7907C17.4677 25.7678 17.5238 25.7509 17.5811 25.74C18.2085 25.6248 18.8414 25.5669 19.4791 25.5669H20.979C21.1781 25.5669 21.3512 25.6333 21.4996 25.7666L25.4996 29.3594C25.5401 29.3962 25.5762 29.436 25.6082 29.48C25.6402 29.5241 25.6674 29.5711 25.6897 29.6206C25.712 29.6701 25.7289 29.7219 25.7404 29.775C25.7518 29.8281 25.7578 29.8818 25.7578 29.9361C25.7578 29.9904 25.7524 30.0447 25.7416 30.0978C25.7301 30.1509 25.7138 30.2028 25.6921 30.2523C25.6698 30.3023 25.6432 30.3494 25.6112 30.3934C25.5799 30.4375 25.5437 30.4779 25.5032 30.5147L21.3766 34.274C21.2281 34.4097 21.0532 34.4773 20.8523 34.4773ZM18.8511 27.147L21.1322 32.3898L23.8182 29.9434L20.6809 27.1247H19.4797C19.2698 27.1247 19.0604 27.1319 18.8511 27.147Z" fill="black"/>
<mask id="mask1_287_812" style="mask-type:luminance" maskUnits="userSpaceOnUse" x="0" y="35" width="20" height="15">
<path d="M0 35.0312H19.419V49.9018H0V35.0312Z" fill="white"/>
</mask>
<g mask="url(#mask1_287_812)">
<path d="M17.2744 49.8911H2.13772C1.99956 49.8905 1.86321 49.8773 1.72746 49.8501C1.59232 49.823 1.4608 49.7831 1.3335 49.73C1.2062 49.6776 1.08493 49.6124 0.9703 49.5358C0.855669 49.4592 0.749485 49.3717 0.651748 49.2745C0.55401 49.1768 0.467132 49.0706 0.390511 48.956C0.313889 48.8414 0.248731 48.7201 0.196242 48.5928C0.14315 48.4655 0.103331 48.334 0.0761819 48.1982C0.0490326 48.0631 0.0357597 47.9267 0.0351562 47.7886V37.2094C0.0357597 37.0718 0.0490326 36.9349 0.0761819 36.7997C0.103331 36.6646 0.14315 36.5331 0.196242 36.4058C0.248731 36.2785 0.313889 36.1572 0.390511 36.0426C0.467132 35.9279 0.55401 35.8218 0.651748 35.724C0.749485 35.6263 0.855669 35.5394 0.9703 35.4628C1.08493 35.3862 1.2062 35.321 1.3335 35.2685C1.4608 35.2154 1.59232 35.1756 1.72746 35.1484C1.86261 35.1213 1.99956 35.108 2.13712 35.1074H17.2744C17.4119 35.108 17.5489 35.1213 17.684 35.1484C17.8192 35.1756 17.9507 35.2154 18.078 35.2685C18.2059 35.321 18.3266 35.3862 18.4412 35.4628C18.5558 35.5394 18.662 35.6263 18.7597 35.724C18.8575 35.8218 18.9444 35.9279 19.021 36.0426C19.0976 36.1572 19.1628 36.2785 19.2152 36.4058C19.2683 36.5331 19.3082 36.6646 19.3353 36.7997C19.3625 36.9349 19.3763 37.0718 19.3763 37.2094V47.7886C19.3763 47.9267 19.3625 48.0631 19.3353 48.1982C19.3082 48.334 19.2683 48.4649 19.2159 48.5928C19.1628 48.7201 19.0982 48.8414 19.021 48.956C18.9444 49.0706 18.8575 49.1768 18.7597 49.2745C18.6626 49.3717 18.5564 49.4592 18.4412 49.5358C18.3266 49.6124 18.2059 49.677 18.078 49.73C17.9507 49.7831 17.8192 49.823 17.684 49.8501C17.5489 49.8773 17.4119 49.8905 17.2744 49.8911ZM2.13772 36.6652C2.06532 36.6658 1.99594 36.6791 1.92958 36.7068C1.86321 36.7346 1.80409 36.7738 1.7528 36.8251C1.70212 36.8757 1.66291 36.9349 1.63516 37.0012C1.6074 37.0682 1.59353 37.1376 1.59353 37.2094V47.7886C1.59353 47.8604 1.6074 47.9297 1.63516 47.9967C1.66291 48.0631 1.70212 48.1222 1.7528 48.1729C1.80409 48.2242 1.86321 48.2634 1.92958 48.2911C1.99594 48.3189 2.06532 48.3328 2.13772 48.3328H17.2744C17.3462 48.3328 17.4155 48.3189 17.4825 48.2911C17.5489 48.2634 17.608 48.2242 17.6587 48.1729C17.71 48.1222 17.7492 48.0631 17.7769 47.9967C17.8041 47.9297 17.818 47.8604 17.818 47.7886V37.2094C17.818 37.1376 17.8041 37.0682 17.7769 37.0012C17.7492 36.9349 17.71 36.8757 17.6587 36.8251C17.608 36.7738 17.5489 36.7346 17.4825 36.7068C17.4155 36.6797 17.3462 36.6658 17.2744 36.6652H2.13772Z" fill="black"/>
</g>
<mask id="mask2_287_812" style="mask-type:luminance" maskUnits="userSpaceOnUse" x="0" y="35" width="20" height="10">
<path d="M0 35.0312H19.419V44.6071H0V35.0312Z" fill="white"/>
</mask>
<g mask="url(#mask2_287_812)">
<path d="M8.67528 44.5047C8.56909 44.5047 8.46713 44.4836 8.36939 44.4414L0.508158 41.0773C0.438173 41.0471 0.373618 41.0079 0.315096 40.959C0.256574 40.9101 0.206499 40.854 0.164266 40.7901C0.122034 40.7267 0.0900582 40.658 0.0683388 40.5849C0.0466193 40.5119 0.0351562 40.4371 0.0351562 40.3611V37.2094C0.0357597 37.0718 0.0490326 36.9349 0.0761819 36.7997C0.103331 36.6646 0.14315 36.5331 0.196242 36.4058C0.248731 36.2785 0.313889 36.1572 0.390511 36.0426C0.467132 35.9279 0.55401 35.8218 0.651748 35.724C0.749485 35.6263 0.855669 35.5394 0.9703 35.4628C1.08493 35.3862 1.2062 35.321 1.3335 35.2685C1.4608 35.2154 1.59232 35.1756 1.72746 35.1484C1.86261 35.1213 1.99956 35.108 2.13712 35.1074H17.2744C17.4119 35.108 17.5489 35.1213 17.684 35.1484C17.8192 35.1756 17.9507 35.2154 18.078 35.2685C18.2059 35.321 18.3266 35.3862 18.4412 35.4628C18.5558 35.5394 18.662 35.6263 18.7597 35.724C18.8575 35.8218 18.9444 35.9279 19.021 36.0426C19.0976 36.1572 19.1628 36.2785 19.2152 36.4058C19.2683 36.5331 19.3082 36.6646 19.3353 36.7997C19.3625 36.9349 19.3763 37.0718 19.3763 37.2094V40.3611C19.3763 40.4371 19.3655 40.5119 19.3432 40.5849C19.3214 40.658 19.2895 40.7261 19.2472 40.7901C19.2056 40.8534 19.1549 40.9095 19.0964 40.959C19.0379 41.0079 18.9739 41.0471 18.9039 41.0773L11.421 44.2785C11.3739 44.2984 11.3257 44.3135 11.2756 44.3243C11.2255 44.3346 11.1748 44.34 11.1235 44.3406C11.0723 44.3412 11.0216 44.337 10.9715 44.3279C10.9214 44.3183 10.8726 44.3038 10.8249 44.2851C10.7772 44.2658 10.732 44.2423 10.6892 44.2145C10.6463 44.1868 10.6065 44.1548 10.5703 44.1192C10.5335 44.0836 10.5009 44.0444 10.472 44.0021C10.443 43.9599 10.4189 43.9153 10.3984 43.8682C10.3784 43.8211 10.3628 43.7729 10.3525 43.7228C10.3416 43.6727 10.3362 43.6221 10.3356 43.5708C10.335 43.5195 10.3398 43.4688 10.3489 43.4187C10.3585 43.3687 10.3724 43.3198 10.3917 43.2721C10.4104 43.2245 10.4339 43.1792 10.4623 43.1364C10.4901 43.0935 10.522 43.0543 10.5576 43.0175C10.5932 42.9807 10.6324 42.9481 10.6747 42.9192C10.7169 42.8902 10.7616 42.8661 10.8086 42.8456L17.8186 39.8471V37.2094C17.8186 37.1376 17.8047 37.0682 17.7769 37.0012C17.7492 36.9349 17.71 36.8757 17.6593 36.8251C17.608 36.7738 17.5495 36.7346 17.4825 36.7068C17.4162 36.6797 17.3468 36.6658 17.2744 36.6652H2.13772C2.06532 36.6658 1.99594 36.6791 1.92958 36.7068C1.86321 36.7346 1.80409 36.7738 1.7528 36.8251C1.70212 36.8757 1.66291 36.9349 1.63516 37.0012C1.6074 37.0682 1.59353 37.1376 1.59353 37.2094V39.8471L8.98237 43.0091C9.06442 43.0447 9.13802 43.0929 9.20378 43.1539C9.26955 43.2148 9.32324 43.2854 9.36427 43.3644C9.4059 43.4441 9.43305 43.5285 9.44511 43.6172C9.45778 43.7059 9.45476 43.794 9.43666 43.8815C9.41857 43.9696 9.38659 44.0516 9.34013 44.1282C9.29368 44.2049 9.23576 44.2718 9.16698 44.3285C9.0976 44.3853 9.02038 44.4287 8.93591 44.4589C8.85205 44.489 8.76457 44.5041 8.67528 44.5047Z" fill="black"/>
</g>
<path d="M10.5877 46.6174H9.20132C9.11565 46.6174 9.03058 46.6089 8.94672 46.592C8.86286 46.5757 8.78141 46.551 8.70177 46.5178C8.62274 46.4852 8.54793 46.4448 8.47613 46.3977C8.40494 46.3501 8.33918 46.2958 8.27824 46.2355C8.21791 46.1751 8.16361 46.1094 8.11595 46.0382C8.06829 45.967 8.02786 45.8916 7.99529 45.8125C7.9621 45.7335 7.93737 45.652 7.92047 45.5682C7.90358 45.4837 7.89513 45.3993 7.89453 45.3136V42.4798C7.89513 42.3941 7.90358 42.3091 7.92047 42.2252C7.93737 42.1413 7.9621 42.0593 7.99529 41.9802C8.02786 41.9012 8.06829 41.8264 8.11595 41.7552C8.16361 41.684 8.21791 41.6183 8.27824 41.5573C8.33918 41.497 8.40494 41.4427 8.47613 41.3956C8.54793 41.348 8.62274 41.3075 8.70177 41.275C8.78141 41.2424 8.86286 41.2177 8.94672 41.2008C9.03058 41.1839 9.11565 41.176 9.20132 41.176H10.5877C10.6734 41.176 10.7585 41.1845 10.8423 41.2014C10.9262 41.2177 11.0077 41.243 11.0867 41.2756C11.1657 41.3082 11.2405 41.3486 11.3117 41.3962C11.3829 41.4439 11.4487 41.4976 11.5096 41.5579C11.5699 41.6189 11.6236 41.6846 11.6713 41.7558C11.719 41.827 11.7594 41.9018 11.792 41.9809C11.8245 42.0599 11.8499 42.1413 11.8662 42.2252C11.8831 42.3091 11.8915 42.3941 11.8915 42.4798V45.3136C11.8915 45.3993 11.8831 45.4837 11.8662 45.5676C11.8499 45.6514 11.8245 45.7329 11.792 45.8119C11.7594 45.891 11.719 45.9664 11.6713 46.0376C11.6236 46.1082 11.5699 46.1745 11.5096 46.2348C11.4487 46.2952 11.3829 46.3495 11.3117 46.3971C11.2405 46.4442 11.1657 46.4846 11.0867 46.5172C11.0077 46.5504 10.9262 46.5751 10.8423 46.592C10.7585 46.6089 10.6734 46.6174 10.5877 46.6174ZM9.4529 45.0596H10.3337V42.7338H9.4529V45.0596Z" fill="black"/>
<path d="M13.354 36.665C13.3033 36.665 13.2526 36.6602 13.2019 36.6506C13.1519 36.6403 13.103 36.6258 13.0559 36.6059C13.0089 36.5866 12.9636 36.5625 12.9214 36.5341C12.8786 36.5058 12.8393 36.4732 12.8031 36.437C12.7669 36.4008 12.7344 36.3616 12.706 36.3193C12.6776 36.2765 12.6535 36.2318 12.6342 36.1842C12.6143 36.1371 12.5998 36.0883 12.5896 36.0382C12.5799 35.9881 12.5745 35.9374 12.5745 35.8861V34.4997C12.5745 34.4671 12.5678 34.4364 12.5552 34.4062C12.5425 34.376 12.5244 34.3501 12.5015 34.3266C12.4786 34.3036 12.4526 34.2861 12.4224 34.2735C12.3923 34.2608 12.3615 34.2542 12.3289 34.2542H7.08428C7.0517 34.2542 7.01973 34.2608 6.98956 34.2729C6.96 34.2855 6.93285 34.303 6.90992 34.3266C6.88639 34.3495 6.86829 34.3754 6.85562 34.4056C6.84295 34.4358 6.83632 34.4671 6.83571 34.4997V35.8861C6.83571 35.9374 6.83028 35.9881 6.82063 36.0382C6.81038 36.0883 6.7959 36.1371 6.77599 36.1842C6.75668 36.2318 6.73255 36.2765 6.70419 36.3193C6.67584 36.3616 6.64326 36.4008 6.60706 36.437C6.57146 36.4732 6.53164 36.5058 6.48941 36.5341C6.44657 36.5625 6.40193 36.5866 6.35487 36.6059C6.30721 36.6258 6.25894 36.6403 6.20826 36.6506C6.15819 36.6602 6.10751 36.665 6.05683 36.665C6.00555 36.665 5.95487 36.6602 5.90479 36.6506C5.85412 36.6403 5.80585 36.6258 5.75819 36.6059C5.71113 36.5866 5.66648 36.5625 5.62365 36.5341C5.58142 36.5058 5.5416 36.4732 5.506 36.437C5.4698 36.4008 5.43722 36.3616 5.40887 36.3193C5.38051 36.2765 5.35638 36.2318 5.33707 36.1842C5.31716 36.1371 5.30268 36.0883 5.29243 36.0382C5.28277 35.9881 5.27734 35.9374 5.27734 35.8861V34.4997C5.27795 34.3815 5.28941 34.2638 5.31294 34.148C5.33647 34.0315 5.37086 33.9187 5.41611 33.8095C5.46136 33.6997 5.51746 33.596 5.58323 33.4976C5.64899 33.3993 5.7238 33.3082 5.80766 33.2243C5.89152 33.1404 5.98262 33.0656 6.08157 32.9999C6.17991 32.9341 6.28428 32.8786 6.39348 32.8334C6.50268 32.7881 6.61611 32.7537 6.73194 32.7308C6.84838 32.7079 6.96543 32.6964 7.08428 32.6958H12.3295C12.4478 32.6964 12.5648 32.7079 12.6813 32.7308C12.7971 32.7543 12.9099 32.7887 13.0191 32.834C13.1289 32.8792 13.2327 32.9347 13.331 33.0005C13.4294 33.0662 13.5205 33.141 13.6043 33.2249C13.6876 33.3088 13.7624 33.3999 13.8282 33.4982C13.8945 33.5966 13.95 33.7003 13.9953 33.8095C14.0405 33.9193 14.0749 34.0322 14.0979 34.148C14.1214 34.2638 14.1328 34.3815 14.1328 34.4997V35.8861C14.1328 35.9374 14.128 35.9881 14.1184 36.0382C14.1081 36.0883 14.0936 36.1371 14.0737 36.1842C14.0544 36.2318 14.0303 36.2765 14.0019 36.3193C13.9736 36.3616 13.941 36.4008 13.9048 36.437C13.8686 36.4732 13.8294 36.5058 13.7871 36.5341C13.7443 36.5625 13.6997 36.5866 13.652 36.6059C13.6049 36.6258 13.5561 36.6403 13.506 36.6506C13.4559 36.6602 13.4052 36.665 13.354 36.665Z" fill="black"/>
<mask id="mask3_287_812" style="mask-type:luminance" maskUnits="userSpaceOnUse" x="40" y="38" width="10" height="12">
<path d="M40.2695 38.429H49.9998V49.9017H40.2695V38.429Z" fill="white"/>
</mask>
<g mask="url(#mask3_287_812)">
<path d="M45.2089 49.8907C45.0689 49.8901 44.9386 49.8551 44.8179 49.7851C44.6972 49.7151 44.6019 49.6192 44.5325 49.4985L40.395 42.2672C40.3696 42.2225 40.3491 42.1761 40.3328 42.1278C40.3165 42.0795 40.3057 42.0295 40.299 41.9788C40.293 41.9281 40.2912 41.8774 40.2948 41.8268C40.2984 41.7755 40.3069 41.7254 40.3208 41.6765C40.334 41.6271 40.3521 41.5794 40.3751 41.5341C40.398 41.4883 40.4251 41.4455 40.4559 41.405C40.4873 41.3646 40.5223 41.3272 40.5609 41.294C40.5995 41.2602 40.6411 41.2313 40.6852 41.2059C40.7292 41.1806 40.7757 41.1595 40.8245 41.1432C40.8728 41.1269 40.9223 41.1154 40.973 41.1094C41.0236 41.1028 41.0743 41.101 41.1256 41.1046C41.1763 41.1082 41.2263 41.1166 41.2758 41.1299C41.3253 41.1432 41.3724 41.1613 41.4182 41.1842C41.4641 41.2065 41.5069 41.2337 41.5473 41.2651C41.5877 41.2958 41.6251 41.3308 41.6589 41.3694C41.6921 41.4074 41.7217 41.4491 41.747 41.4931L44.9476 47.0865L45.2994 45.7797C45.3126 45.7302 45.3307 45.6826 45.3536 45.6367C45.376 45.5903 45.4031 45.5468 45.4345 45.5064C45.4659 45.466 45.5015 45.4286 45.5401 45.3948C45.5787 45.361 45.6203 45.3314 45.665 45.3061C45.7096 45.2807 45.7561 45.2596 45.8049 45.2433C45.8538 45.2271 45.9039 45.2156 45.9546 45.2096C46.0058 45.2029 46.0565 45.2017 46.1078 45.2053C46.1591 45.209 46.2098 45.218 46.2592 45.2319L47.5292 45.583L44.1434 39.6657C44.1187 39.621 44.0981 39.5746 44.0825 39.5263C44.0662 39.478 44.0553 39.4286 44.0493 39.3779C44.0432 39.3278 44.042 39.2771 44.0457 39.2265C44.0499 39.1752 44.0583 39.1257 44.0716 39.0768C44.0855 39.0274 44.1036 38.9803 44.1265 38.935C44.1494 38.8892 44.1766 38.8464 44.2073 38.8065C44.2387 38.7661 44.2737 38.7293 44.3117 38.6961C44.3503 38.663 44.3914 38.6334 44.436 38.608C44.48 38.5827 44.5259 38.5622 44.5742 38.5459C44.6224 38.5296 44.6719 38.5182 44.7226 38.5115C44.7727 38.5049 44.8233 38.5037 44.874 38.5067C44.9253 38.5103 44.9748 38.5188 45.0242 38.532C45.0731 38.5447 45.1208 38.5628 45.166 38.5851C45.2119 38.6074 45.2547 38.634 45.2957 38.6654C45.3362 38.6961 45.373 38.7305 45.4067 38.7685C45.4405 38.8071 45.4701 38.8482 45.4954 38.8916L49.8212 46.4518C49.8592 46.5188 49.887 46.59 49.9045 46.6654C49.9214 46.7402 49.9274 46.8162 49.922 46.8934C49.9165 46.9706 49.8997 47.0449 49.8725 47.1173C49.8448 47.189 49.8073 47.2554 49.7597 47.3163C49.7126 47.3773 49.6571 47.4304 49.5944 47.475C49.5316 47.5191 49.4635 47.5534 49.3898 47.5782C49.3168 47.6023 49.2414 47.6156 49.1642 47.6174C49.087 47.6192 49.0116 47.6102 48.9368 47.589L46.5995 46.9423L45.9612 49.3145C45.9389 49.3972 45.9039 49.4738 45.8562 49.545C45.8086 49.6162 45.7506 49.6777 45.6825 49.7302C45.6143 49.7821 45.5401 49.8219 45.4586 49.8497C45.3778 49.8768 45.2945 49.8907 45.2089 49.8907Z" fill="black"/>
</g>
<mask id="mask4_287_812" style="mask-type:luminance" maskUnits="userSpaceOnUse" x="29" y="38" width="11" height="12">
<path d="M29.6113 38.429H39.3416V49.9017H29.6113V38.429Z" fill="white"/>
</mask>
<g mask="url(#mask4_287_812)">
<path d="M34.4173 49.8908C34.3841 49.8902 34.3509 49.8884 34.3177 49.8842C34.2411 49.8746 34.1675 49.8534 34.0975 49.8221C34.0269 49.7901 33.963 49.7491 33.9045 49.6984C33.8466 49.6477 33.7971 49.5892 33.7567 49.524C33.7156 49.4583 33.6849 49.3883 33.665 49.3141L33.0266 46.9418L30.6864 47.5892C30.6116 47.6097 30.5361 47.6193 30.4589 47.6169C30.3817 47.6151 30.3063 47.6019 30.2327 47.5777C30.1597 47.5536 30.0915 47.5192 30.0282 47.4746C29.9654 47.4299 29.9099 47.3774 29.8628 47.3159C29.8152 47.2549 29.7778 47.1886 29.7506 47.1162C29.7229 47.0444 29.7066 46.9696 29.7012 46.893C29.6957 46.8157 29.7018 46.7397 29.7187 46.6643C29.7361 46.5889 29.7639 46.5177 29.8025 46.4507L34.1277 38.8911C34.1536 38.8471 34.1832 38.8061 34.217 38.7681C34.2502 38.7295 34.2876 38.6951 34.328 38.6643C34.3684 38.6335 34.4113 38.607 34.4571 38.5841C34.5024 38.5617 34.55 38.5442 34.5989 38.531C34.6484 38.5177 34.6984 38.5092 34.7491 38.5062C34.7998 38.5026 34.8505 38.5044 34.9012 38.5111C34.9512 38.5171 35.0007 38.5286 35.049 38.5448C35.0972 38.5611 35.1431 38.5816 35.1877 38.607C35.2318 38.6323 35.2728 38.6619 35.3114 38.6951C35.35 38.7282 35.3844 38.7651 35.4158 38.8055C35.4472 38.8453 35.4743 38.8881 35.4966 38.934C35.5196 38.9792 35.5377 39.0263 35.5515 39.0758C35.5648 39.1246 35.5739 39.1747 35.5775 39.2254C35.5811 39.2761 35.5799 39.3267 35.5739 39.3774C35.5678 39.4275 35.557 39.477 35.5413 39.5252C35.525 39.5735 35.5051 39.62 35.4797 39.6646L32.0939 45.5838L33.3669 45.2314C33.4164 45.2181 33.4671 45.2091 33.5184 45.2055C33.5696 45.2019 33.6203 45.2031 33.6716 45.2091C33.7223 45.2157 33.7723 45.2272 33.8212 45.2435C33.8701 45.2598 33.9165 45.2803 33.9612 45.3056C34.0058 45.3316 34.0475 45.3611 34.0861 45.3949C34.1247 45.4287 34.1603 45.4655 34.1917 45.5065C34.223 45.547 34.2502 45.5904 34.2725 45.6362C34.2954 45.6827 34.3135 45.7304 34.3268 45.7798L34.6785 47.0866L37.8785 41.4933C37.9045 41.4492 37.934 41.4076 37.9672 41.369C38.001 41.331 38.0378 41.296 38.0782 41.2646C38.1187 41.2338 38.1621 41.2067 38.2079 41.1838C38.2538 41.1614 38.3009 41.1433 38.3503 41.1301C38.3998 41.1168 38.4499 41.1083 38.5006 41.1047C38.5518 41.1011 38.6025 41.1023 38.6532 41.1089C38.7039 41.1156 38.7533 41.127 38.8016 41.1433C38.8499 41.1596 38.8963 41.1801 38.941 41.2055C38.985 41.2308 39.0266 41.2604 39.0653 41.2942C39.1039 41.3273 39.1389 41.3641 39.1696 41.4046C39.201 41.445 39.2282 41.4884 39.2511 41.5337C39.274 41.5795 39.2921 41.6272 39.3054 41.6761C39.3187 41.7255 39.3271 41.7756 39.3307 41.8269C39.3343 41.8776 39.3331 41.9282 39.3271 41.9789C39.3205 42.0296 39.309 42.0791 39.2933 42.1279C39.277 42.1762 39.2565 42.2227 39.2312 42.2667L35.0936 49.4981C35.0242 49.6194 34.9289 49.7153 34.8082 49.7853C34.6876 49.8552 34.5573 49.8902 34.4173 49.8908Z" fill="black"/>
</g>
<path d="M39.8112 43.8578C39.6447 43.8596 39.4806 43.8379 39.3201 43.7938C39.159 43.7498 39.007 43.6846 38.8646 43.5983C38.7216 43.5121 38.5937 43.4077 38.4803 43.2852C38.3663 43.1634 38.2715 43.0282 38.1961 42.8792L37.7388 41.9983C37.7225 41.9676 37.7008 41.941 37.6736 41.9187C37.6471 41.8964 37.6169 41.8795 37.5838 41.8692C37.5506 41.8584 37.5162 41.8542 37.4812 41.8572C37.4468 41.8596 37.4136 41.8686 37.3822 41.8843L36.5002 42.3253C36.3506 42.4002 36.1943 42.4532 36.0308 42.4852C35.8667 42.5166 35.702 42.5256 35.5355 42.5118C35.3696 42.4985 35.2079 42.4629 35.0516 42.405C34.8954 42.3471 34.7494 42.2692 34.6142 42.1709C34.4791 42.0732 34.3602 41.9591 34.2565 41.8282C34.1527 41.6979 34.0682 41.5555 34.0037 41.4017C33.9391 41.2478 33.8963 41.0885 33.8758 40.9232C33.8546 40.7573 33.8565 40.592 33.8812 40.4273L34.0308 39.4433C34.035 39.4089 34.0332 39.3745 34.0248 39.3413C34.0163 39.3075 34.0013 39.2768 33.9807 39.249C33.9602 39.2207 33.9355 39.1977 33.9059 39.1796C33.8764 39.1615 33.8444 39.1495 33.8106 39.1434L32.835 38.9836C32.6703 38.9564 32.5129 38.9075 32.3614 38.837C32.2106 38.7664 32.0718 38.6765 31.9451 38.5673C31.8184 38.4587 31.7092 38.335 31.6163 38.1962C31.524 38.0575 31.4522 37.9085 31.4003 37.7498C31.3485 37.5911 31.3195 37.4282 31.3123 37.2617C31.305 37.0952 31.3207 36.9305 31.3593 36.7682C31.3973 36.6059 31.4565 36.4514 31.5373 36.3054C31.6175 36.1588 31.7165 36.0267 31.8335 35.9072L32.5304 35.1996C32.5545 35.1742 32.5726 35.1453 32.5853 35.1133C32.5979 35.0807 32.6046 35.0475 32.6046 35.0131C32.604 34.9781 32.5973 34.945 32.5847 34.9124C32.5714 34.8804 32.5533 34.852 32.5292 34.8267L31.8353 34.125C31.7183 34.0068 31.6194 33.8741 31.5385 33.7281C31.4577 33.5821 31.3985 33.4282 31.3599 33.2659C31.3213 33.1036 31.3056 32.9389 31.3123 32.7724C31.3189 32.6053 31.3479 32.443 31.3991 32.2843C31.451 32.1256 31.5222 31.9766 31.6145 31.8379C31.7068 31.6985 31.816 31.5748 31.9427 31.4656C32.0688 31.3564 32.2076 31.2665 32.3584 31.1953C32.5092 31.1247 32.6667 31.0753 32.8314 31.0475L33.8112 30.884C33.8456 30.878 33.8776 30.8659 33.9071 30.8472C33.9367 30.8285 33.9614 30.805 33.9819 30.7772C34.0025 30.7489 34.0169 30.7175 34.0254 30.6837C34.0332 30.6499 34.035 30.6155 34.0302 30.5812L33.8818 29.6074C33.8565 29.4421 33.8546 29.2768 33.8752 29.1109C33.8957 28.945 33.9379 28.7851 34.0025 28.6306C34.067 28.4768 34.1515 28.3344 34.2552 28.2035C34.359 28.0726 34.4785 27.9579 34.6136 27.8596C34.7488 27.7618 34.8948 27.6834 35.0516 27.6255C35.2079 27.5676 35.3696 27.532 35.5361 27.5181C35.7026 27.5048 35.8679 27.5139 36.032 27.5459C36.1961 27.5778 36.3524 27.6309 36.502 27.7057L37.3835 28.1468C37.4148 28.1618 37.448 28.1709 37.483 28.1733C37.5174 28.1757 37.5518 28.1721 37.585 28.1612C37.6175 28.1504 37.6477 28.1335 37.6743 28.1112C37.7014 28.0888 37.7225 28.0623 37.7388 28.0315L38.1943 27.1531C38.2715 27.0053 38.3669 26.8701 38.4803 26.7483C38.5943 26.6264 38.7228 26.522 38.8652 26.4351C39.0076 26.3483 39.1596 26.2825 39.3201 26.2373C39.4806 26.192 39.6447 26.1697 39.8112 26.1697C39.9783 26.1691 40.1418 26.1914 40.3029 26.2367C40.4634 26.2813 40.6154 26.3471 40.7578 26.4333C40.9002 26.5202 41.0287 26.6246 41.1427 26.7459C41.2568 26.8677 41.3527 27.0029 41.4299 27.1507L41.4311 27.1531L41.8866 28.0315C41.9029 28.0623 41.924 28.0888 41.9506 28.1112C41.9771 28.1335 42.0067 28.1504 42.0393 28.1612C42.0724 28.1715 42.1062 28.1757 42.1406 28.1733C42.175 28.1709 42.2082 28.1618 42.239 28.1468L43.1264 27.7045C43.2761 27.6297 43.4323 27.5766 43.5964 27.5447C43.7605 27.5133 43.9252 27.5042 44.0917 27.5181C44.2583 27.532 44.42 27.5676 44.5762 27.6261C44.7325 27.684 44.8785 27.7624 45.013 27.8608C45.1482 27.9591 45.2676 28.0738 45.3708 28.2047C45.474 28.3356 45.5578 28.4786 45.6224 28.6324C45.6863 28.7869 45.7286 28.9468 45.7485 29.1121C45.769 29.278 45.766 29.4433 45.7412 29.6086L45.5946 30.583C45.5898 30.6174 45.5916 30.6511 45.5994 30.6849C45.6079 30.7193 45.6224 30.7501 45.6429 30.7784C45.6634 30.8062 45.6887 30.8297 45.7183 30.8478C45.7479 30.8665 45.7798 30.878 45.8142 30.884L46.7898 31.0469C46.9545 31.0747 47.112 31.1235 47.2634 31.1947C47.4142 31.2659 47.553 31.3558 47.6797 31.4644C47.8064 31.5736 47.9156 31.6979 48.0079 31.8367C48.1002 31.976 48.172 32.125 48.2233 32.2837C48.2752 32.4424 48.3041 32.6053 48.3108 32.7724C48.3174 32.9389 48.3017 33.1036 48.2631 33.2659C48.2245 33.4288 48.1648 33.5827 48.0839 33.7287C48.0031 33.8747 47.9035 34.0074 47.7865 34.1263L47.0945 34.8285C47.0703 34.8532 47.0516 34.8816 47.0384 34.913C47.0251 34.945 47.0184 34.9781 47.0178 35.0125C47.0178 35.0469 47.0239 35.0801 47.0371 35.1121C47.0498 35.144 47.0685 35.173 47.0921 35.1977L47.7895 35.9078C47.9065 36.0267 48.0055 36.1594 48.0857 36.3054C48.166 36.4514 48.2257 36.6053 48.2637 36.7676C48.3017 36.9299 48.3174 37.0946 48.3108 37.2611C48.3035 37.4276 48.2746 37.5899 48.2233 37.7486C48.1714 37.9072 48.0996 38.0557 48.0073 38.1944C47.915 38.3338 47.8058 38.4575 47.6797 38.5661C47.553 38.6753 47.4148 38.7652 47.2634 38.8358C47.1126 38.9069 46.9551 38.9558 46.7904 38.9836L45.813 39.144C45.7792 39.1501 45.7473 39.1615 45.7177 39.1802C45.6887 39.1983 45.6634 39.2213 45.6435 39.249C45.623 39.2768 45.6085 39.3075 45.6 39.3413C45.5916 39.3745 45.5898 39.4089 45.5952 39.4427L45.7418 40.4261C45.7666 40.5908 45.769 40.7567 45.7485 40.922C45.7279 41.0879 45.6857 41.2478 45.6212 41.4017C45.5566 41.5555 45.4721 41.6979 45.369 41.8288C45.2652 41.9597 45.1457 42.0744 45.0106 42.1721C44.8755 42.2698 44.7295 42.3483 44.5732 42.4062C44.4163 42.4641 44.2552 42.4997 44.0887 42.513C43.9222 42.5263 43.7569 42.5172 43.5934 42.4852C43.4293 42.4532 43.273 42.4002 43.124 42.3247L42.2402 41.8843C42.2088 41.8692 42.1762 41.8602 42.1418 41.8578C42.1068 41.8548 42.073 41.859 42.0399 41.8698C42.0073 41.8807 41.9771 41.897 41.9506 41.9193C41.924 41.9416 41.9029 41.9682 41.8866 41.999L41.4311 42.8774C41.3551 43.0264 41.2604 43.1621 41.1463 43.2846C41.0323 43.4071 40.9038 43.5115 40.7608 43.5977C40.6178 43.6846 40.4652 43.7498 40.3041 43.7938C40.143 43.8385 39.9783 43.8596 39.8112 43.8578ZM37.4951 40.3006C37.6628 40.3 37.8269 40.3223 37.9886 40.367C38.1497 40.4116 38.3023 40.4768 38.4453 40.5637C38.5889 40.6499 38.718 40.7537 38.8326 40.8756C38.9473 40.9974 39.0438 41.1326 39.1216 41.281L39.5777 42.1594C39.6006 42.2029 39.6338 42.2373 39.6761 42.2626C39.7189 42.2879 39.7648 42.3006 39.8142 42.3C39.8637 42.3 39.9095 42.2867 39.9518 42.2614C39.994 42.2355 40.0266 42.2005 40.0495 42.157L40.5038 41.281C40.5587 41.1766 40.6233 41.0777 40.6969 40.9854C40.7711 40.8931 40.8531 40.8086 40.9436 40.7326C41.0341 40.656 41.1313 40.589 41.2344 40.5317C41.3382 40.4738 41.4462 40.4267 41.5584 40.3905C41.6712 40.3537 41.7859 40.3284 41.9035 40.3139C42.0212 40.2994 42.1388 40.297 42.2571 40.3054C42.3747 40.3139 42.4911 40.3338 42.6052 40.3646C42.7192 40.3959 42.8296 40.4376 42.9358 40.4901L43.8215 40.9317C43.8655 40.954 43.912 40.9637 43.9608 40.96C44.0103 40.9558 44.0543 40.9401 44.0948 40.9112C44.1346 40.8822 44.1641 40.8454 44.1835 40.8002C44.2028 40.7543 44.2088 40.7078 44.2016 40.659L44.0543 39.6744C44.0375 39.5573 44.0314 39.4397 44.0375 39.3214C44.0429 39.2038 44.0598 39.0867 44.0881 38.9721C44.1165 38.8569 44.1557 38.7459 44.2058 38.6385C44.2559 38.5317 44.3156 38.4297 44.385 38.3344C44.4543 38.2385 44.5328 38.1504 44.6197 38.0695C44.7059 37.9893 44.7994 37.9181 44.9002 37.8554C45.0009 37.7932 45.1065 37.7407 45.2175 37.6991C45.3279 37.6575 45.4414 37.6267 45.5584 37.6068L46.5352 37.4463C46.5835 37.4379 46.6263 37.4174 46.6631 37.3848C46.6999 37.3528 46.7258 37.3136 46.7409 37.2671C46.756 37.2201 46.7584 37.173 46.747 37.1253C46.7361 37.0777 46.7138 37.0361 46.68 37.0005L45.9838 36.291C45.9011 36.2065 45.8269 36.1148 45.7617 36.0158C45.6966 35.9169 45.6417 35.8125 45.597 35.7027C45.5524 35.5929 45.5186 35.4801 45.4963 35.3643C45.4733 35.2478 45.4619 35.1308 45.4619 35.0125C45.4619 34.8937 45.4733 34.7766 45.4963 34.6608C45.5192 34.5444 45.553 34.4315 45.5982 34.3217C45.6429 34.2125 45.6978 34.1082 45.7629 34.0092C45.8281 33.9103 45.9023 33.8192 45.9856 33.7347L46.6782 33.0306C46.7126 32.9956 46.7355 32.954 46.747 32.9057C46.7584 32.8575 46.7566 32.8098 46.7409 32.7628C46.7258 32.7157 46.6993 32.6759 46.6619 32.6439C46.6245 32.6113 46.581 32.5914 46.5322 32.583L45.5578 32.4201C45.4414 32.4002 45.3273 32.3694 45.2169 32.3278C45.1059 32.2855 45.0003 32.2336 44.8996 32.1709C44.7994 32.1082 44.7053 32.037 44.619 31.9561C44.5322 31.8759 44.4537 31.7872 44.3844 31.6913C44.315 31.5959 44.2552 31.494 44.2052 31.3866C44.1551 31.2792 44.1165 31.1682 44.0881 31.0529C44.0598 30.9383 44.0429 30.8213 44.0375 30.703C44.0314 30.5848 44.0375 30.4671 44.0543 30.3501L44.2009 29.3739C44.2088 29.3256 44.2034 29.2786 44.1847 29.2327C44.166 29.1875 44.137 29.1501 44.0972 29.1205C44.0574 29.0916 44.0133 29.0747 43.9644 29.0704C43.915 29.0662 43.8685 29.0747 43.8245 29.0964L42.9346 29.5398C42.829 29.5923 42.7186 29.6339 42.6046 29.6653C42.4905 29.6961 42.3741 29.716 42.2565 29.7244C42.1382 29.7329 42.0206 29.7299 41.9029 29.716C41.7859 29.7015 41.6706 29.6762 41.5584 29.6394C41.4456 29.6026 41.3376 29.5555 41.2344 29.4982C41.1313 29.4403 41.0341 29.3733 40.9436 29.2973C40.8537 29.2207 40.7711 29.1368 40.6975 29.0445C40.6233 28.9522 40.5587 28.8539 40.5038 28.7489L40.0489 27.8717C40.026 27.827 39.9934 27.792 39.9512 27.7661C39.9083 27.7401 39.8619 27.7269 39.8124 27.7269C39.7623 27.7269 39.7159 27.7401 39.6736 27.7667C39.6308 27.7926 39.5988 27.8282 39.5759 27.8729L39.1216 28.7489C39.0667 28.8532 39.0022 28.9522 38.9279 29.0445C38.8537 29.1362 38.7717 29.2207 38.6812 29.2973C38.5907 29.3733 38.4936 29.4403 38.3898 29.4976C38.2866 29.5555 38.1786 29.6026 38.0658 29.6388C37.9536 29.6756 37.8384 29.7009 37.7213 29.7154C37.6037 29.7299 37.486 29.7329 37.3678 29.7244C37.2495 29.716 37.1337 29.6961 37.019 29.6653C36.905 29.6345 36.7946 29.5929 36.6884 29.5404L35.8034 29.0976C35.7599 29.0729 35.7129 29.0626 35.6628 29.0662C35.6127 29.0704 35.5687 29.0879 35.5295 29.1193C35.4872 29.1477 35.4559 29.1845 35.4365 29.2315C35.4172 29.278 35.4124 29.3263 35.4221 29.3763L35.5705 30.3495C35.5874 30.4665 35.5928 30.5842 35.5874 30.7024C35.5813 30.8207 35.5638 30.9371 35.5355 31.0523C35.5071 31.167 35.4679 31.278 35.4184 31.3854C35.3684 31.4928 35.3086 31.5941 35.2393 31.6901C35.1699 31.786 35.0914 31.8741 35.0052 31.9543C34.9183 32.0351 34.8248 32.1069 34.7246 32.1697C34.6245 32.2318 34.5189 32.2843 34.4085 32.3266C34.2975 32.3688 34.1841 32.4002 34.0676 32.4201L33.089 32.5836C33.0396 32.589 32.9955 32.6083 32.9575 32.6415C32.9195 32.6741 32.8942 32.7151 32.8815 32.7634C32.8634 32.8104 32.8604 32.8587 32.8724 32.9075C32.8839 32.9564 32.9086 32.998 32.9454 33.0318L33.6393 33.7341C33.7219 33.8186 33.7961 33.9109 33.8607 34.0098C33.9252 34.1088 33.9801 34.2131 34.0248 34.3229C34.0694 34.4321 34.1032 34.545 34.1261 34.6614C34.1485 34.7778 34.1599 34.8949 34.1599 35.0131C34.1599 35.1314 34.1491 35.249 34.1261 35.3649C34.1032 35.4813 34.07 35.5941 34.0254 35.7039C33.9807 35.8131 33.9258 35.9175 33.8613 36.0171C33.7961 36.116 33.7225 36.2077 33.6399 36.2928L32.9442 36.9993C32.9074 37.033 32.8839 37.0741 32.8718 37.1229C32.8604 37.1718 32.864 37.2195 32.8815 37.2659C32.8948 37.3148 32.9207 37.3552 32.9587 37.3884C32.9967 37.4216 33.0414 37.4409 33.0908 37.4469L34.0652 37.6062C34.1816 37.6267 34.2951 37.6575 34.4055 37.6997C34.5165 37.7413 34.6221 37.7938 34.7222 37.856C34.823 37.9181 34.9165 37.9899 35.0034 38.0701C35.0896 38.151 35.1681 38.2391 35.2381 38.3344C35.3074 38.4303 35.3672 38.5317 35.4172 38.6385C35.4673 38.7459 35.5065 38.8569 35.5355 38.9715C35.5638 39.0867 35.5813 39.2032 35.5874 39.3208C35.5934 39.4391 35.588 39.5567 35.5711 39.6738L35.4215 40.6584C35.4124 40.7072 35.4172 40.7549 35.4371 40.8008C35.4565 40.8466 35.4872 40.8834 35.5289 40.9106C35.5675 40.9419 35.6115 40.96 35.661 40.9643C35.7111 40.9679 35.7575 40.9582 35.8009 40.9335L36.6866 40.4907C36.9412 40.364 37.2109 40.3 37.4951 40.3006Z" fill="black"/>
<path d="M39.8118 40.3386C39.6375 40.3386 39.4637 40.3302 39.2899 40.3133C39.1162 40.2964 38.9442 40.2704 38.7729 40.2366C38.6022 40.2023 38.4326 40.16 38.2661 40.1093C38.099 40.0587 37.9349 40.0001 37.7738 39.9338C37.6127 39.8668 37.4553 39.7926 37.3014 39.71C37.1476 39.6279 36.9985 39.5386 36.8531 39.4415C36.7083 39.3443 36.5684 39.2406 36.4332 39.1302C36.2987 39.0192 36.1696 38.9027 36.0465 38.779C35.9228 38.656 35.8058 38.5268 35.6954 38.3917C35.5844 38.2572 35.4806 38.1172 35.3841 37.9724C35.2869 37.827 35.1976 37.678 35.1156 37.5241C35.0329 37.3703 34.9587 37.2128 34.8918 37.0517C34.8254 36.89 34.7663 36.7265 34.7156 36.5594C34.6649 36.3923 34.6227 36.2234 34.5889 36.0526C34.5545 35.8813 34.5292 35.7093 34.5123 35.5356C34.4948 35.3618 34.4863 35.1881 34.4863 35.0137C34.4863 34.8394 34.4948 34.665 34.5123 34.4912C34.5292 34.3181 34.5545 34.1455 34.5889 33.9748C34.6227 33.8035 34.6649 33.6345 34.7156 33.4674C34.7663 33.3009 34.8254 33.1368 34.8918 32.9757C34.9587 32.8146 35.0329 32.6572 35.1156 32.5033C35.1976 32.3495 35.2869 32.1998 35.3841 32.0551C35.4806 31.9097 35.5844 31.7697 35.6954 31.6351C35.8058 31.5 35.9228 31.3715 36.0465 31.2478C36.1696 31.1247 36.2987 31.0077 36.4332 30.8967C36.5684 30.7863 36.7083 30.6825 36.8531 30.5854C36.9985 30.4888 37.1476 30.3989 37.3014 30.3169C37.4553 30.2348 37.6127 30.16 37.7738 30.0937C37.9349 30.0267 38.099 29.9682 38.2661 29.9175C38.4326 29.8668 38.6022 29.8246 38.7729 29.7902C38.9442 29.7564 39.1162 29.7311 39.2899 29.7136C39.4637 29.6967 39.6375 29.6882 39.8118 29.6882C39.9862 29.6882 40.1605 29.6967 40.3337 29.7136C40.5074 29.7311 40.68 29.7564 40.8507 29.7902C41.0221 29.8246 41.191 29.8668 41.3575 29.9175C41.5246 29.9682 41.6887 30.0267 41.8498 30.0937C42.0109 30.16 42.1684 30.2348 42.3222 30.3169C42.4761 30.3989 42.6257 30.4888 42.7705 30.5854C42.9153 30.6825 43.0553 30.7863 43.1904 30.8967C43.3249 31.0077 43.4541 31.1247 43.5777 31.2478C43.7008 31.3715 43.8179 31.5 43.9283 31.6351C44.0393 31.7697 44.143 31.9097 44.2396 32.0551C44.3367 32.1998 44.426 32.3495 44.5087 32.5033C44.5907 32.6572 44.6649 32.8146 44.7319 32.9757C44.7988 33.1368 44.8574 33.3009 44.908 33.4674C44.9587 33.6345 45.001 33.8035 45.0347 33.9748C45.0691 34.1455 45.0945 34.3181 45.1114 34.4912C45.1289 34.665 45.1373 34.8394 45.1373 35.0137C45.1373 35.1881 45.1283 35.3618 45.1114 35.5356C45.0939 35.7087 45.0679 35.8813 45.0341 36.052C44.9998 36.2228 44.9575 36.3917 44.9068 36.5588C44.8562 36.7253 44.797 36.8894 44.7301 37.0505C44.6637 37.2116 44.5889 37.3691 44.5068 37.5229C44.4242 37.6762 44.3349 37.8258 44.2378 37.9706C44.1412 38.1154 44.0375 38.2554 43.9264 38.3905C43.816 38.525 43.699 38.6541 43.5759 38.7772C43.4522 38.9009 43.3237 39.0173 43.1886 39.1284C43.0541 39.2388 42.9141 39.3425 42.7693 39.4397C42.6239 39.5362 42.4749 39.6261 42.321 39.7081C42.1672 39.7908 42.0097 39.865 41.8486 39.932C41.6881 39.9989 41.524 40.0575 41.3569 40.1081C41.1904 40.1588 41.0215 40.2017 40.8501 40.2354C40.6794 40.2698 40.5074 40.2952 40.3337 40.3127C40.1599 40.3302 39.9862 40.3386 39.8118 40.3386ZM39.8118 31.246C39.6887 31.246 39.5657 31.252 39.4426 31.2641C39.3201 31.2762 39.1976 31.2943 39.077 31.3184C38.9557 31.3425 38.8363 31.3721 38.718 31.4083C38.6004 31.4439 38.4839 31.4855 38.3699 31.5326C38.2559 31.5796 38.1449 31.6327 38.0356 31.6906C37.9271 31.7492 37.8215 31.8125 37.7189 31.8807C37.6163 31.9495 37.5174 32.0231 37.4215 32.1009C37.3261 32.1793 37.235 32.262 37.1476 32.3495C37.0607 32.4363 36.978 32.5281 36.8996 32.6234C36.8212 32.7187 36.7476 32.8176 36.6794 32.9202C36.6106 33.0228 36.5473 33.1284 36.4893 33.2376C36.4308 33.3462 36.3783 33.4578 36.3313 33.5718C36.2836 33.6858 36.2426 33.8017 36.2064 33.9199C36.1708 34.0376 36.1406 34.1576 36.1165 34.2783C36.0924 34.3995 36.0743 34.5214 36.0622 34.6439C36.0501 34.767 36.0441 34.89 36.0441 35.0137C36.0441 35.1368 36.0501 35.2599 36.0622 35.383C36.0743 35.5054 36.0924 35.6273 36.1165 35.7486C36.1406 35.8692 36.1708 35.9893 36.2064 36.1069C36.242 36.2252 36.2836 36.341 36.3313 36.4551C36.3783 36.5691 36.4308 36.6807 36.4893 36.7893C36.5473 36.8985 36.6106 37.0041 36.6794 37.1066C36.7476 37.2092 36.8212 37.3081 36.8996 37.4035C36.9774 37.4988 37.0607 37.5905 37.1476 37.6774C37.235 37.7649 37.3261 37.8475 37.4215 37.9259C37.5168 38.0044 37.6157 38.0774 37.7189 38.1462C37.8215 38.2149 37.9271 38.2783 38.0356 38.3362C38.1449 38.3941 38.2559 38.4472 38.3699 38.4943C38.4839 38.5413 38.5998 38.583 38.718 38.6192C38.8363 38.6547 38.9557 38.6849 39.077 38.7084C39.1976 38.7326 39.3195 38.7507 39.4426 38.7627C39.5651 38.7748 39.6881 38.7808 39.8118 38.7808C39.9355 38.7808 40.0586 38.7748 40.181 38.7627C40.3041 38.7507 40.426 38.7326 40.5467 38.7084C40.6679 38.6849 40.7874 38.6547 40.9056 38.6192C41.0233 38.583 41.1397 38.5413 41.2537 38.4943C41.3678 38.4472 41.4788 38.3941 41.588 38.3362C41.6966 38.2783 41.8022 38.2149 41.9047 38.1462C42.0073 38.0774 42.1068 38.0044 42.2022 37.9259C42.2975 37.8475 42.3886 37.7649 42.4761 37.6774C42.5629 37.5905 42.6462 37.4988 42.724 37.4035C42.8025 37.3081 42.8761 37.2092 42.9442 37.1066C43.013 37.0041 43.0764 36.8985 43.1343 36.7893C43.1928 36.6807 43.2453 36.5691 43.2924 36.4551C43.34 36.341 43.3817 36.2252 43.4172 36.1069C43.4528 35.9893 43.483 35.8698 43.5071 35.7486C43.5313 35.6273 43.5494 35.5054 43.5614 35.383C43.5735 35.2599 43.5795 35.1368 43.5795 35.0137C43.5795 34.89 43.5729 34.767 43.5608 34.6445C43.5488 34.5214 43.5307 34.3995 43.5065 34.2789C43.4824 34.1576 43.4522 34.0382 43.416 33.9205C43.3804 33.8023 43.3388 33.6864 43.2918 33.5724C43.2441 33.4584 43.1916 33.3474 43.1331 33.2382C43.0752 33.1296 43.0118 33.024 42.943 32.9214C42.8749 32.8189 42.8013 32.7199 42.7228 32.6246C42.6444 32.5293 42.5617 32.4382 42.4749 32.3507C42.3874 32.2632 42.2963 32.1805 42.201 32.1027C42.1056 32.0243 42.0067 31.9507 41.9041 31.8825C41.8016 31.8137 41.696 31.7504 41.5868 31.6919C41.4782 31.6339 41.3672 31.5814 41.2531 31.5338C41.1391 31.4867 41.0233 31.4451 40.905 31.4089C40.7868 31.3733 40.6673 31.3431 40.5467 31.319C40.4254 31.2949 40.3035 31.2768 40.181 31.2647C40.0586 31.252 39.9355 31.246 39.8118 31.246Z" fill="black"/>
<path d="M39.2587 37.4107C39.0747 37.4113 38.9118 37.3534 38.7688 37.2375L37.1115 35.8952C37.0717 35.8626 37.0355 35.827 37.0029 35.7878C36.9697 35.7486 36.9414 35.7063 36.9172 35.6611C36.8925 35.6164 36.8726 35.5694 36.8575 35.5205C36.8424 35.4716 36.8322 35.4216 36.8267 35.3709C36.8213 35.3202 36.8207 35.2689 36.8255 35.2182C36.8304 35.167 36.84 35.1175 36.8545 35.068C36.869 35.0191 36.8883 34.9721 36.9118 34.9268C36.9359 34.8816 36.9637 34.8388 36.9963 34.7989C37.0283 34.7591 37.0638 34.7229 37.1031 34.6903C37.1429 34.6578 37.1851 34.6294 37.2298 34.6047C37.275 34.5805 37.3215 34.5606 37.3703 34.5455C37.4192 34.5305 37.4693 34.5202 37.52 34.5148C37.5712 34.5093 37.6219 34.5087 37.6732 34.5136C37.7239 34.5184 37.774 34.528 37.8228 34.5425C37.8723 34.557 37.9194 34.5763 37.9646 34.6004C38.0099 34.624 38.0521 34.6523 38.0919 34.6843L39.1598 35.5489L41.4319 32.8888C41.4645 32.849 41.5007 32.8122 41.5411 32.779C41.5809 32.7464 41.6237 32.7175 41.6696 32.6934C41.7154 32.6686 41.7637 32.6493 41.8132 32.6348C41.8626 32.6197 41.9139 32.6101 41.9652 32.6053C42.0171 32.6004 42.0684 32.601 42.1203 32.6071C42.1715 32.6125 42.2222 32.6234 42.2717 32.6391C42.3212 32.6547 42.3688 32.6753 42.4141 32.7006C42.4593 32.7259 42.5016 32.7549 42.5414 32.7887C42.5806 32.8225 42.6162 32.8599 42.6482 32.9009C42.6801 32.9413 42.7079 32.9854 42.7314 33.0312C42.755 33.0777 42.7731 33.1259 42.7869 33.176C42.8002 33.2261 42.8092 33.2774 42.8123 33.3286C42.8159 33.3805 42.8141 33.4324 42.8074 33.4837C42.8008 33.535 42.7887 33.5857 42.7718 33.6345C42.755 33.6834 42.7332 33.7305 42.7073 33.7751C42.6807 33.8197 42.6506 33.862 42.6156 33.9006L39.8512 37.138C39.7776 37.2249 39.6889 37.2918 39.5851 37.3395C39.4813 37.3872 39.3727 37.4113 39.2587 37.4107Z" fill="black"/>
</svg>
