<svg width="50" height="49" viewBox="0 0 50 49" fill="none" xmlns="http://www.w3.org/2000/svg">
<mask id="mask0_287_2139" style="mask-type:luminance" maskUnits="userSpaceOnUse" x="0" y="0" width="50" height="39">
<path d="M0 0H50V38.6773H0V0Z" fill="white"/>
</mask>
<g mask="url(#mask0_287_2139)">
<path fill-rule="evenodd" clip-rule="evenodd" d="M25.1582 17.0443C25.8733 17.0443 26.5702 16.9648 27.2403 16.8141V39.4934C26.9429 39.4625 26.6421 39.4461 26.3412 39.4438C25.2482 39.4333 24.1604 39.3994 23.0762 39.3474V16.8141C23.7462 16.9643 24.4426 17.0443 25.1582 17.0443ZM5.56049 17.5455C6.08217 17.5455 6.50805 17.1196 6.50805 16.598V13.7319L16.3288 11.0055C16.1027 10.4243 15.9322 9.81497 15.8241 9.18405L5.37998 12.084C4.94301 12.1681 4.61294 12.5525 4.61294 13.014V16.598C4.61294 17.1196 5.03882 17.5455 5.56049 17.5455ZM43.8078 3.37665V7.69321C43.8078 8.21488 44.2337 8.64076 44.756 8.64076C45.2776 8.64076 45.7035 8.21488 45.7035 7.69321V2.13291C45.7029 1.51601 45.1053 1.05625 44.5042 1.22216L33.9876 4.14135C34.2137 4.7232 34.3837 5.3325 34.4924 5.96284L43.8084 3.37665H43.8078ZM49.9955 14.5545V28.3448C49.9955 28.8057 49.6199 29.1814 49.159 29.1814H40.3523C39.892 29.1814 39.5158 28.8057 39.5158 28.3448V14.5545C39.5158 14.2974 39.6075 14.0766 39.7892 13.8949L44.0573 9.62686C44.2495 9.43408 44.503 9.33828 44.756 9.33828C45.0089 9.33828 45.2624 9.43408 45.4546 9.62686L49.7227 13.8949C49.9044 14.0766 49.9961 14.2974 49.9961 14.5545H49.9955ZM46.0832 12.7254C45.8869 11.9922 45.1333 11.557 44.4002 11.7533C43.667 11.9502 43.2318 12.7038 43.4281 13.4369C43.625 14.1701 44.3786 14.6053 45.1117 14.4084C45.8449 14.2122 46.2801 13.4585 46.0832 12.7254ZM17.5825 7.57345C17.5825 3.40118 20.986 -0.00170898 25.1582 -0.00170898C29.3305 -0.00170898 32.7334 3.40118 32.7334 7.57345C32.7334 11.7457 29.3305 15.1492 25.1582 15.1492C20.986 15.1492 17.5825 11.7457 17.5825 7.57345ZM26.5965 9.40487C26.5737 9.58948 26.4487 9.75422 26.2623 9.8471C25.4597 10.2467 23.9162 9.99841 23.5996 9.41889C23.3472 8.95972 22.7724 8.79089 22.3132 9.04268C21.8535 9.29388 21.6858 9.87047 21.9364 10.3296C22.3687 11.1189 23.2433 11.6184 24.2107 11.8263V12.4012C24.2107 12.9252 24.6342 13.3493 25.1582 13.3493C25.6822 13.3493 26.1058 12.9252 26.1058 12.4012V11.8655C26.4656 11.8018 26.8062 11.6949 27.1071 11.5442C27.8648 11.1668 28.3783 10.4529 28.4776 9.63446C28.5973 8.65302 28.1446 7.80771 27.2011 7.2539C26.5831 6.89112 25.9492 6.73981 25.3358 6.59435C25.1343 6.54645 24.9444 6.50146 24.7586 6.44889C24.2352 6.30342 23.9554 6.15154 23.8251 5.94298C23.7275 5.78817 23.7562 5.62927 23.9063 5.47154C24.1388 5.22969 24.7832 5.02756 25.5216 5.12804C26.0263 5.19756 26.4358 5.39735 26.5667 5.63803C26.8138 6.09837 27.3898 6.27129 27.8507 6.0236C28.3117 5.77473 28.4828 5.19989 28.2357 4.73897C27.8507 4.02509 27.0843 3.51393 26.1058 3.30713V2.74572C26.1058 2.22229 25.6817 1.79759 25.1582 1.79759C24.6348 1.79759 24.2107 2.22229 24.2107 2.74572V3.29836C23.5932 3.42396 22.9897 3.68977 22.5399 4.15887C21.7921 4.93818 21.6619 6.05923 22.2174 6.94778C22.728 7.76448 23.5722 8.08578 24.2492 8.27506C24.4712 8.33698 24.6874 8.38839 24.8959 8.43863C25.4188 8.56248 25.8686 8.66997 26.2407 8.88845C26.6321 9.11745 26.6105 9.28336 26.5965 9.40487ZM0.320335 37.1076V23.3173C0.320335 23.0602 0.412053 22.8388 0.593735 22.6577L4.86181 18.3897C5.054 18.1969 5.30754 18.1011 5.56049 18.1011C5.81345 18.1011 6.06698 18.1969 6.25918 18.3897L10.5273 22.6577C10.7089 22.8388 10.8007 23.0602 10.8007 23.3173V37.1076C10.8007 37.568 10.4244 37.9442 9.9641 37.9442H1.15748C0.696552 37.9442 0.320919 37.5685 0.320919 37.1076H0.320335ZM4.23322 22.1997C4.42951 22.9329 5.18311 23.3681 5.91626 23.1712C6.64942 22.975 7.08464 22.2214 6.88835 21.4882C6.69148 20.755 5.93788 20.3198 5.20472 20.5161C4.47157 20.713 4.03635 21.4666 4.23322 22.1997ZM40.78 41.621C38.0419 42.6977 34.4865 43.8649 32.0604 44.5572C31.0059 48.9882 22.4604 48.459 18.8116 48.3012C18.3197 48.2796 17.8892 48.2609 17.5965 48.2545C17.0147 48.2434 16.5526 47.7626 16.5637 47.1808C16.5748 46.5989 17.0555 46.1368 17.6374 46.1479C18.0224 46.1561 18.4313 46.1736 18.8992 46.1941C21.3546 46.3004 30.4702 46.8548 30.0969 43.5243C29.9363 42.096 28.8684 41.3628 26.3231 41.3389C22.2712 41.3009 18.6276 40.9796 14.5482 40.5508C8.48143 40.129 3.77639 45.1373 0.00195312 49.313L8.74198 58.0531C13.5738 54.1273 15.761 54.9487 19.7703 54.8868C21.6332 54.8581 23.7486 55.2198 26.9587 53.7762L44.1104 45.9756C45.4552 45.3172 46.9893 44.4468 47.6284 43.9327C48.6052 41.5743 46.5967 39.3345 40.78 41.621Z" fill="black"/>
</g>
<mask id="mask1_287_2139" style="mask-type:luminance" maskUnits="userSpaceOnUse" x="15" y="38" width="20" height="7">
<path d="M15.707 38.1938H34.307V44.8816H15.707V38.1938Z" fill="white"/>
</mask>
<g mask="url(#mask1_287_2139)">
<mask id="mask2_287_2139" style="mask-type:luminance" maskUnits="userSpaceOnUse" x="15" y="38" width="20" height="7">
<path d="M19.0509 38.1956H30.9473C32.7939 38.1956 34.2912 39.6922 34.2912 41.5394C34.2912 43.3861 32.7939 44.8833 30.9473 44.8833H19.0509C17.2037 44.8833 15.707 43.3861 15.707 41.5394C15.707 39.6922 17.2037 38.1956 19.0509 38.1956Z" fill="white"/>
</mask>
<g mask="url(#mask2_287_2139)">
<path d="M15.707 38.1956H34.2807V44.8833H15.707V38.1956Z" fill="black"/>
</g>
</g>
<mask id="mask3_287_2139" style="mask-type:luminance" maskUnits="userSpaceOnUse" x="12" y="42" width="26" height="7">
<path d="M12.7832 42.0669H37.4342V48.6542H12.7832V42.0669Z" fill="white"/>
</mask>
<g mask="url(#mask3_287_2139)">
<mask id="mask4_287_2139" style="mask-type:luminance" maskUnits="userSpaceOnUse" x="12" y="42" width="26" height="7">
<path d="M16.0769 42.0659H34.1376C35.0109 42.0659 35.8492 42.4129 36.4667 43.0304C37.0842 43.6485 37.4312 44.4862 37.4312 45.3596C37.4312 46.2329 37.0842 47.0706 36.4667 47.6887C35.8492 48.3062 35.0109 48.6532 34.1376 48.6532H16.0769C15.2035 48.6532 14.3658 48.3062 13.7477 47.6887C13.1302 47.0706 12.7832 46.2329 12.7832 45.3596C12.7832 44.4862 13.1302 43.6485 13.7477 43.0304C14.3658 42.4129 15.2035 42.0659 16.0769 42.0659Z" fill="white"/>
</mask>
<g mask="url(#mask4_287_2139)">
<path d="M12.7832 42.0659H37.4342V48.6532H12.7832V42.0659Z" fill="black"/>
</g>
</g>
</svg>
